M48
;Layer_Color=9474304
;FILE_FORMAT=4:4
METRIC,LZ
;TYPE=PLATED
T01F00S00C0.3000
T02F00S00C0.4000
T04F00S00C0.7000
T05F00S00C0.8000
T06F00S00C0.9000
T07F00S00C1.2000
T08F00S00C1.5000
T09F00S00C2.0000
;TYPE=NON_PLATED
T10F00S00C0.6000
T11F00S00C0.8000
%
T01
X00089991Y00115006
Y00120006
Y00125006
Y00130006
Y00135006
X00089926Y00140183
Y00145183
Y00150183
Y00155183
X00173589Y00162667
X00185589
X00197589
X00209589
X00221589
X00233589
X00245589
X00257589
X00263589Y00150667
X00251589
X00239589
X00227589
X00215589
X00203589
X00191589
X00179589
X00173589Y00138667
X00185589
X00197589
X00209589
X00221589
X00233589
X00245589
X00257589
X00269589
X00275589Y00126667
X00287589
X00281589Y00114667
X00293589
X00305589
X00317589
X00329589
X00322965Y00122917
X00269589Y00114667
X00257589
X00245589
X00233589
X00239589Y00126667
X00251589
X00263589
X00227589
X00280965Y00147917
X00234153Y00025003
X00396653
X00401589Y00114667
X00413589
X00425589
X00437589
X00449589
X0046159
X0047359
X00485589
X00497589
X0050959
X00515589Y00126667
X00503589
X00491589
X00485589Y00150667
X0047359
X00491589Y00162667
X0050959Y00138667
X0052159
X00527589Y00150667
X00683589
X0069559
X00707589
X00719589
X00713589Y00138667
X0072559
X0073159Y00126667
X00719589
X00707589
X0069559
X00683589
X0067159
X00659589
X00653589Y00114667
X0066559
X00677589
X00689589
X0070159
X00713589
X0072559
X0070159Y00138667
X00689589
X00677589
X0070159Y00162667
X00721952Y00025029
X00559153Y00025003
X00389589Y00114667
X00377589
X00365589
X00353589
X00341589
X00342215Y00124167
X00358215Y00127917
X00743589Y00126667
X0075559
X00767589
X0076159Y00114667
X00773589
X0078559
X00789215Y00120167
X00797589Y00114667
X00805215Y00114417
X0082159Y00114667
X00833589
X0084559
X00857589
X00869589
X0088159
X00893589
X0090559
X0091159Y00126667
X00899589
X00887589
X0087559
X00863589
X0085159
X00839589
X00827589
X00828813Y00141165
X00823109Y00141261
X00779965Y00144167
X00759715Y00149167
X00749589Y00138667
X00737589
Y00114667
X00749589
X00959589Y00126667
X01044977Y00125006
Y00120006
Y00115006
Y00130006
Y00135006
X01045042Y00140183
Y00145183
Y00150183
Y00155183
X00885272Y00024997
X00899589Y00234667
X0091159
X00923589
X0093559
X00947589
X00959589
X0097159
X00983589
X0099559
X01007589
X01019589
X01013589Y00246667
X0100159
X00989589
X00977589
X0096559
X00953589
X0094159
X00929589
X00917589
X0090559
X00905715Y00275917
X00898965
X00892215
X00864215Y00286167
X00836215Y00276917
X00829965
X00823715
X00827589Y00306667
X0081559
X00803589
X0079159
X00779589
X00767589
X0075559
X00743589
X00737589Y00294667
X00749589
X0076159
X00773589
X00789965Y00294417
X00767589Y00282667
X0075559
X00759965Y00275167
X00743589Y00282667
X00737715Y00220167
Y00206397
Y00192427
X0078113Y00174748
X00795226Y0017484
X0080319Y00201051
Y00208881
Y00216667
X00811326Y00208881
X00798135Y00241957
X00847808Y00248069
X00843855Y00252117
X00851965Y00252167
X00855918Y00248119
X00848965Y00336535
Y00342417
X00842781
Y00336535
X00827589Y00330667
X0082159Y00318667
X00809589
X00811662Y00384667
X00817465
Y00390793
X00811662
X00797465Y00419417
X00788965
X00779965
X00764465Y00381417
X00774465Y00516917
X00788642Y00514709
X00789851Y00501757
X00800146Y00502818
X008409Y00512784
Y00519167
X00845715Y00515917
X00847215Y00540667
X00839715Y00552167
X00839465Y00561167
X00857589Y00558667
X00869589
X00869465Y00530667
X00887465Y00526917
Y00520917
X00904815Y00539137
X00927465Y00494917
X00927465Y00466417
X00902215Y00455709
X00887667Y00451786
X00887715Y00421667
X00876465Y00415167
X00902215Y00417667
X00876215Y00342917
X0100159Y00342667
X01013589
X01019589Y00354667
X01007589
X0100159Y00366667
X01013589
X01019589Y00378667
X01007589
X01013589Y00390667
X01019589Y00402667
X01013589Y00414667
X01019589Y00426667
X01013589Y00438667
X01019589Y00450667
X01007589
X0100159Y00462667
X01013589
X01019589Y00474667
X01007589
X0099559
X00983589
X00977589Y00486667
X00989589
X0100159
X01013589
X0096559
X0107122Y0048969
X0106614Y0049604
X0107757
X01044984Y0055
Y00555
Y0056
X01109997Y00559909
X01109994Y00400704
X0110551Y0030554
Y0029665
X01109994Y00235405
X01013589Y00222667
X0100159
X00989589
X00977589
X0096559
X00953589
X0099559Y00258667
X01007589
X01019589
X01013589Y00270667
X0100159
X01007589Y00282667
X01019589
X01013589Y00294667
X0100159
X01007589Y00306667
X01019589
X01013589Y00318667
X0100159
X01007589Y00330667
X01019589
X00854015Y00481987
X00778465Y00540667
X00779465Y00551917
X00779965Y00561167
X00698965Y00524417
X00684715Y00536417
X00654415Y00518388
X00656421Y00501635
X00662265Y00478602
X00657715Y00471917
X00652465Y00465417
X00634936Y0046162
X00635215Y00455917
X00667215Y00447667
X00667465Y00404417
X00646715
X00587206Y00409908
X00591715Y00455917
Y0046162
X00581215Y00476667
X00581465Y00485417
X00578443Y00513546
X00568905Y00538707
X00609215Y00533667
X00619913Y00537665
X00629227Y00511019
X00647215Y00556917
X00653715
X00650465Y00561667
X00593965Y00562417
X00530965Y00547667
X00525183Y00531791
X00504229Y00539225
X00508913Y00547344
X00515589Y00558667
X00497047Y00555462
X00487465Y00482417
X00443715Y00485667
Y00478667
Y00471667
X00437715Y004639
X00430882
X00424049
X00417215
X00411215Y00471667
Y00478667
Y00485667
Y00515167
X00405465Y00524917
X00399965Y00506667
X00358888Y00505084
X00340215Y00531667
X00385215Y00549917
X00390465
X00401589Y00450667
X00413589
X00425589
X00432768Y00450121
X00419589Y00438667
X00407589
X00401589Y00426667
X00413589
X00425589
X00419589Y00414667
X00407589
X00401589Y00402667
X00378715Y00384917
X00413589Y00366667
X00425589
X00408965Y00351212
X00417215Y003179
X00424049
X00430882
X00437715
X00443715Y0032415
Y0033115
Y0033815
X00467589Y00330667
X00479589
X00491589
X00503589
X00515589
X0050959Y00318667
X00497589
X00485589
X0047359
X0046159
X00467589Y00306667
X00479589
X00491589
X00485589Y00294667
X0047359
X0046159
X00467589Y00282667
X00479589
X0047359Y00270667
X00485589
X00499965Y00277167
X0052159Y00270667
X0053359
X00545589
X00557589
X0056959
X0058159
X0059359
X00605589
X00617589
X0062959
X0064159
X00653589
X0066559
X00677589
X00689589
X0070159
X00713589
X0072559
X0073159Y00282667
X00719589
X00707589
X0069559
X00683589
X0067159
X00659589
X00647589
X00635589
X0062359
X0061159
X0059959
X00587589
X00575589
X00563589
X00551589
X00539589
X00527589
X00545589Y00294667
X00557589
X0056959
X00563589Y00306667
X00551589
X00586098Y00298417
X00585715Y00318034
Y00351917
X00636465Y00325917
X00647589Y00306667
X00659589
X0067159
X00683589
X0069559
X00707589
X00719589
X0073159
X0072559Y00294667
X00713589
X0070159
X00689589
X00677589
X0066559
X00653589
X0064159
X00647589Y00258667
X00659589
X0067159
X00683589
X0069559
X00707589
X00719589
X00713589Y00246667
X0072559
X00719589Y00234667
X00707589
X0069559
X00683589
X0067159
X0066559Y00246667
X00677589
X00689589
X0070159
Y00222667
X00713589
X0072559
X00719589Y00210667
X00707589
X0069559
X00689589Y00222667
X00713589Y00198667
X0072559
X00719589Y00186667
X00726465Y00176167
X00672405Y00172107
X00667965Y00176667
X00676965Y00167417
X0059359Y00198667
X0058159
X0056959
X00575589Y00210667
X00587589
X0059959
X00563589
X00551589
X00539589
X0052159Y00198667
X00515589Y00186667
X00498415Y00187347
X00497589Y00174667
X0050959
X0047359
X0046159
X00460329Y00186632
X00467589Y00186667
X00479589
X00472965Y00229417
X00455215Y00237917
X00405465Y00223417
X00405465Y00215167
X0039659Y00223417
X00387715
X00377765Y00271167
X00352215
X00424095Y00280667
X00432375Y00291487
X00469989Y00359984
X00486715Y00384917
X00469205Y00419757
X00467317Y00429908
X00507425Y00451507
X00531435Y00439667
Y00429917
Y00420417
X00542465Y00477167
X00554465Y00474667
X00545553Y0049491
X00564965Y00455917
X00685904Y00483691
X00719715Y00438667
X00358715Y00351167
X00251589Y00378667
X00239589
X00227589
X00215589
X00203589
X00191589
X00179589
X00167589
X00155589
X00189965Y00367667
X00197589Y00366667
X00209589
X00221589
X00233589
X00227589Y00354667
X00221589Y00390667
X00233589
X00245589
X00257589
X00251465Y00432917
X00237215
X00197589Y00462667
X00203589Y00474667
X00191589
X00179589
X00173589Y00486667
X00185589
X00197589
X00203589Y00498667
X00209589Y00510667
X00215589Y00522667
Y00546667
X00242715Y00550167
X00248215
X00288122Y00559002
X00281965Y00530417
X00294715Y00495417
X00323215Y00540417
X00161589Y00486667
X00149589
X00137589
X00125589
X00113589
X00119589Y00474667
X00131589
X00143589
X00155589
X00149589Y00462667
X00137589
X00125589
X00113589
X00119589Y00450667
X00131589
X00143589
X00155589
X00149589Y00438667
X00161589
X00137589
X00125589
X00113589
X00025Y00413037
X00024997Y00249723
X00161589Y00234667
X00167589Y00222667
X00161589Y00210667
X00173589
X00185589
X00197589
X00209589
X00221589
X00233589
X00245589
X00257589
X00269589
X00281589
X00287589Y00222667
Y00198667
X00286965Y00188417
X00259715Y00173667
X00251965
X00239589Y00174667
X00227589
X00215589
X00203589
X00209589Y00186667
X00221589
X00233589
X00245589
X00251589Y00198667
X00239589
X00227589
X00215589
X00203589
X00203965Y00231667
X00221589Y00234667
X00233589
X00245589
X00239589Y00222667
X00227589
X00215589
X00224965Y00251667
X00203965Y00276667
X00224965Y00306917
X00167589Y00198667
X00329715Y00231917
X00089984Y0055
Y00555
Y0056
Y00565
Y0057
X00089918Y00575178
Y00580178
Y00585178
Y00590178
X00025003Y00575847
Y00738347
X00113589Y00714667
X00125589
X00137589
X00149589
X00161589
X00173589
X00185589
X00197589
X00191589Y00726667
X00179589
X00167589
X00155589
X00143589
X00149589Y00738667
X00161589
X00173589
X00185589
X00197589
X00191589Y00750667
X00179589
X00167589
X00155589
X00149589Y00762667
X00161589
X00173589
X00185589
X00197589
X00191589Y00774667
X00179589
X00167589
X00155589
X00143589
X00131589
X00119589
X00113589Y00786667
X00125589
X00137589
X00149589
X00161589
X00173589
X00185589
X00197589
X00191589Y00798667
X00179589
X00167589
X00155589
X00143589
X00131589
X00119589
X00113589Y00810667
Y00834667
X00119589Y00846667
X00131589
X00143589
X00155589
X00167589
X00179589
X00191589
X00203589
X00197589Y00834667
X00185589
X00173589
X00161589
X00149589
X00155589Y00822667
X00167589
X00179589
X00191589
X00185589Y00810667
X00197589
X00173589
X00161589
X00149589
X00137589Y00762667
X00125589
X00113589
X00114465Y00669667
X00123903
X0013334
X00142778
X00152215
X00161589Y00666667
X00173589
X00185589
X00197589
X00191589Y00678667
X00179589
X00167589
Y00702667
X00179589
X00191589
X00197589Y00690667
X00233589
X00239589Y00702667
X00227589
X00233589Y00714667
X00245589
X00257589
X00269589
X00275589Y00726667
X00263589
X00251589
X00239589
X00227589
X00233589Y00738667
X00245589
X00257589
X00269589
X00281589
X00275589Y00750667
X00263589
X00251589
X00239589
X00227589
X00233589Y00762667
X00269589
X00281589
X00287589Y00774667
X00299589
X00314215Y00751667
X00314465Y00715417
X00315195Y0065814
X00302465Y00625167
X00263589Y00630667
X00251589
X00239589
X00227589
X00233589Y00642667
X00245589
X00257589
X00263589Y00654667
X00251589
X00239589
X00227589
X00233589Y00666667
X00245589
X00257589
X00263589Y00678667
Y00702667
X00239589Y00678667
X00227589
X00191589Y00654667
X00179589
X00167589
X00155589
X00161589Y00642667
X00173589
X00185589
X00197589
X00191589Y00630667
X00179589
X00167589
X00173589Y00618667
X00185589
X00197589
X00191589Y00606667
X00179589
X00167589
X00173589Y00594667
X00185589
X00197589
X00233589
X00245589
X00257589
X00263589Y00606667
X00251589
X00239589
X00227589
X00233589Y00618667
X00245589
X00257589
X00247715Y00568167
X00310955Y00569897
X00321465Y00567917
X00329406Y00885644
X0032374Y00896924
X00335406Y00897644
X00329406Y00909644
X0032501Y00959154
X0033644
X0031358Y00956614
X00299406Y00957644
X00287406
X00275406
X00305406Y00945644
X00025003Y00900847
X00341406Y00909644
X00353406
X0035295Y00921054
X00365406Y00909644
X00371406Y00897644
X00383406
X00395406
X00389406Y00885644
X00377406
X00365406
X00353406
X00341406
X00347406Y00897644
X00359406
X00371406Y00873644
X00383406
X00395406
X00377406Y00861644
X00389406Y00837644
X00401406
X00413406
X00425406
X00437406
X00449406
X00447306Y00830065
X00452306
X00457306
X00462306
X00467484Y0083
X00472484
X00477484
X00482484
X00487484
X00485406Y00837644
X00497406
X00509406
X00521407
X00533406
X00545406
X00557407
X00569407
X00581407
X00593406
X00605406
Y00873644
X00617407
X00629407
X00641406
X00647406Y00885644
X00659407
X00671406
X00686524Y008875
Y008925
Y008975
Y009025
X00677406Y00897644
X00665406
X00653407
X00641406
X00629407
X00617407
X00605406
X0061203Y00905814
X0059679
X0057774Y00913434
Y00919784
Y00926134
X00570967
Y00919784
Y00913434
X00564193
Y00919784
Y00926134
X0055742
Y00919784
Y00913434
X00556648Y00942784
Y00947864
X00561728
Y00942784
Y00952944
X0061076Y00952663
X0061584
Y00947018
X0061076
Y00941374
X0061584
X00629038Y00941514
X00635388
Y00947864
X00629038
Y00954214
X00635388
X0064759Y00959154
Y00947724
X00647406Y00933644
X0063489Y00932484
X00629407Y00921644
X00641406
X00647406Y00909644
X00659407
X00671406
X00635406
Y00885644
X00623406
X00611406
X00623406Y00861644
X0067807Y00874064
X00686524Y008825
X00701406Y00945644
X00707406Y00957644
X00719407
X00731406
X00695406
X0068315Y00959154
X0067172
X0066029
X00687965Y00794667
X00687715Y00742917
X00704715Y00757417
X00711465Y00766167
X00734255Y00741442
Y00731417
X00724715
Y00716167
X00734255
Y00706312
X00704465Y00717167
X00697401Y00711155
X00689677Y00703274
X00683215Y00694417
X00636465Y00697417
X00638997Y00686033
X00624465Y00679417
X00621573Y00703169
X00627796Y00708691
X00639465Y00720167
X00646965Y00714417
X00644715Y00744417
X00657215Y00751023
X00625926Y00764305
X00631842Y00772827
X00631147Y00792444
X00599715Y00719917
X0058988Y00714343
X00581423Y00709041
X00575662Y00703114
X00563109Y00700478
X00559965Y00718667
X00564465Y00725667
X00551715Y00711417
X00544456Y00692169
X00539215Y00683667
X00534871Y00673707
X00543086Y00662308
X00549223Y00667993
X00537215Y00655417
X00530488Y00649409
X00524543Y00643537
X00503285Y0065106
X00511715Y00664917
X00516215Y00672417
X00492715Y00683667
X00481715Y00675667
X00487465Y00661917
X00472965Y00612917
X00473715Y00601167
X00468965Y00587167
Y00579167
X00489865Y00565142
X0050959Y00570667
X00515589Y00582667
X00527465Y00580167
X0052159Y00594667
X0053359
X00533215Y00605417
X0054903Y00605348
X0050959Y00594667
X00459965Y00621417
X00410521Y00654953
X00414465Y00683667
X00407465Y00728667
X00407215Y00752167
X00428465
X00447306Y00746435
X00452306
X00457306
X00462306
X00467484Y007465
X00472484
X00477484
X00482484
X00487484
X00485589Y00750667
X0047359
X00479589Y00762667
X00467589
X0046159Y00774667
X00453465Y00777667
X00485589Y00786667
X00497589
X0050959
X00503589Y00798667
X00491589
X00479589
X00473406Y00837644
X00461406
X0045767Y00921429
X0043677Y00915974
X0045963Y00959154
X00381852Y00935684
X0035168Y00948994
X003466Y00955344
X00376215Y00722667
Y00715417
X00382465Y00712417
X00444617Y00729933
X00503465Y00755417
X0050959Y00762667
X00503589Y00774667
X00531965Y00704167
X00592465Y00683917
X00628715Y00610417
X00635215
X00642215
X00671527Y00622886
X00676954Y00603109
X00705965Y00594167
X00710465Y00637917
X00723715
X00683965Y00637417
X00584215Y00576667
X00573017Y00576536
X00397715Y00599167
X00342215Y00604667
X00341965Y00631667
X00356965Y00632917
X00342215Y00566167
X00736715Y00637917
X00749215
X00763715
X0079159Y00666667
X00803589
X0081559
X00816715Y00681167
X00797589Y00678667
X0078559
X00779589Y00690667
X00773589Y00702667
X00779589Y00714667
X00792715Y00714167
X00805715Y00701167
X00825965
X00826215Y00714417
X00831278Y00689381
X00881715
X00881077Y00676962
X00904215Y00725167
X00929715Y00712917
X00937215
X00959425Y00687727
Y00678837
X00971465Y00656167
X01013589Y00666667
X01019589Y00678667
X01013589Y00690667
X01019589Y00702667
X01013589Y00714667
X00988965Y00724417
X00989589Y00762667
X0099559Y00774667
X01007589
X01019589
X01019965Y00763667
X01013589Y00786667
X0100159
X01007589Y00798667
X01019589
X0099559
Y00846667
X01007589
X01019589
X00983589
X00978465Y00835167
X00957965Y00810417
X00925215Y00809417
X00925965Y00787417
X0093159
X00937215
Y00781167
X0093159
X00925965
X00860215Y00820917
X00773589Y00726667
X00759215Y00731417
X00749499
Y00741442
Y00716167
X00759215
X00749499Y00706312
X00831465Y00577167
X00862215Y00572167
X00922465Y00588917
X01045049Y00590178
Y00585178
Y00580178
Y00575178
X01044984Y0057
Y00565
X0111004Y00723899
X01109997Y00884141
X01044984Y008825
Y008875
Y008925
Y008975
Y009025
X00900847Y01109997
X00738347
X00737406Y00993644
Y00969644
X00725406
X00731406Y00981644
X00719407Y01005644
X00713407Y01017644
X00701406
X00689407
X00677406
X00695406Y01005644
X00689407Y00993644
X00687458Y00984694
X00695406Y00981644
X00701406Y00993644
X00665406
X00653407
X00659407Y00981644
X00647406Y01005644
X00641406Y01017644
X00605406
X00593406
X00581407
X00569407
X00575406Y01005644
X00587406
X00599406
X00611406
X00563406
X0052694Y01003604
X00521407Y01017644
X00509406
X00497406
X00485406
X00491406Y01005644
X00503406
X00479406
X00471558Y00998664
X00485406Y00993644
X00498228Y00975804
X00523628
Y00969454
Y00963104
X00529978
Y00969454
Y00975804
X0046979Y00970584
X0045963Y00969314
X00436662Y01008935
X00431662
X00426662
X00421662
X00416484Y01009
X00411484
X00406484
X00401484
X00396484
X00396306Y01045065
X00401306
X00406306
X00411306
X00416484Y01045
X00421484
X00426484
X00431484
X00436484
X0061529Y010904
X00714984Y01045
X00719984
X00724984
X00729984
Y0103
X00724984
X00719984
X00714984
X00326778Y01012634
X00287406Y01005644
X00275406
X0026278Y01004874
X00269406Y00993644
X00281406
X00287406Y00981644
X00275406
X0026278Y00980744
X00269406Y00969644
X00281406
X00293406
X00281406Y01017644
X00269406
X00250843Y01109997
T02
X00343965Y00692667
X00353965
T04
X00141545Y00395947
Y00415947
X00990959Y00676999
Y00696999
X00954185Y00831237
X00934185
X0061553Y00976659
X0055773
T05
X00658965Y00159417
X00852805Y00160677
X00923805
X00972041Y00280241
X00622215Y00196667
X00639965Y00176917
X00265953Y00838357
X00240553
X00870345Y00837933
X00895745
T06
X00132655Y00226717
Y00252117
Y00277517
Y00302917
Y00328317
Y00353717
T07
X00177093Y00690906
T08
X00252593Y00690906
T09
X00739944Y008925
X00991564
T10
X00405176Y00992709
X00428188
X00685063Y01001973
X00708075
T11
X00947125Y00292887
X00947125Y00317887
Y00342887
Y00367887
Y00392887
Y00417887
Y00442887
X00972125Y00430387
Y00405387
Y00380387
Y00355387
Y00330387
Y00305387
M30
