G04*
G04 #@! TF.GenerationSoftware,Altium Limited,Altium Designer,24.5.2 (23)*
G04*
G04 Layer_Physical_Order=2*
G04 Layer_Color=15238730*
%FSLAX44Y44*%
%MOMM*%
G71*
G04*
G04 #@! TF.SameCoordinates,EBE0DA84-5026-4A79-9117-03B61D32DCC8*
G04*
G04*
G04 #@! TF.FilePolarity,Positive*
G04*
G01*
G75*
%ADD11R,2.2000X2.2000*%
%ADD20C,0.3810*%
%ADD21C,0.4000*%
%ADD22C,0.6000*%
%ADD23C,0.5000*%
%ADD24C,0.3000*%
%ADD25C,0.7000*%
%ADD55C,0.2000*%
%ADD60C,0.5000*%
%ADD61C,0.4000*%
%ADD62O,1.0000X2.0000*%
%ADD63C,0.7000*%
%ADD64O,1.0000X1.8000*%
%ADD65C,0.6000*%
%ADD66O,1.5000X2.0000*%
%ADD67C,1.6000*%
%ADD68O,1.5000X1.4000*%
%ADD69C,1.8000*%
%ADD70C,1.2000*%
%ADD71C,1.5000*%
%ADD72O,1.4000X2.0000*%
%ADD73O,2.2000X1.8000*%
%ADD74O,2.0000X1.4000*%
%ADD75O,0.6500X1.0000*%
%ADD76C,1.7000*%
%ADD77C,1.5000*%
G36*
X490218Y1027465D02*
X736635D01*
Y1027450D01*
X738560Y1027197D01*
X740353Y1026454D01*
X741894Y1025272D01*
X743075Y1023732D01*
X743818Y1021938D01*
X744072Y1020014D01*
X744086D01*
Y967314D01*
X744202Y966729D01*
Y960598D01*
X744086Y960014D01*
X744072D01*
X743818Y958089D01*
X743075Y956295D01*
X741894Y954755D01*
X740353Y953573D01*
X738560Y952830D01*
X736684Y952583D01*
X736635Y952626D01*
Y952626D01*
X729768Y952176D01*
X723018Y950834D01*
X716501Y948621D01*
X710329Y945577D01*
X704606Y941754D01*
X699432Y937216D01*
X694895Y932042D01*
X691071Y926320D01*
X688027Y920148D01*
X685815Y913631D01*
X684473Y906881D01*
X684022Y900014D01*
X684086D01*
Y850014D01*
X684090Y849993D01*
X683757Y846608D01*
X682763Y843333D01*
X681150Y840315D01*
X678979Y837670D01*
X676334Y835499D01*
X673316Y833885D01*
X670041Y832892D01*
X666655Y832559D01*
X666635Y832563D01*
X336600D01*
X336580Y832559D01*
X333194Y832892D01*
X329920Y833885D01*
X326901Y835499D01*
X324256Y837670D01*
X322085Y840315D01*
X320472Y843333D01*
X319478Y846608D01*
X319145Y849993D01*
X319149Y850014D01*
Y900014D01*
X319213D01*
X318763Y906881D01*
X317420Y913631D01*
X315208Y920148D01*
X312164Y926320D01*
X308340Y932042D01*
X303803Y937216D01*
X298629Y941754D01*
X292906Y945577D01*
X286734Y948621D01*
X280217Y950834D01*
X273467Y952176D01*
X266615Y952625D01*
Y952625D01*
X266568Y952583D01*
X264693Y952830D01*
X262899Y953573D01*
X261359Y954755D01*
X260177Y956295D01*
X259434Y958089D01*
X259181Y960014D01*
X259167D01*
Y1020014D01*
X259181D01*
X259434Y1021938D01*
X260177Y1023732D01*
X261359Y1025272D01*
X262899Y1026454D01*
X264693Y1027197D01*
X266618Y1027450D01*
Y1027465D01*
X342982D01*
X343002Y1027469D01*
X346388Y1027135D01*
X349662Y1026142D01*
X352681Y1024529D01*
X355326Y1022358D01*
X357497Y1019712D01*
X358914Y1017060D01*
X359280Y1016135D01*
X359556Y1015226D01*
X359556Y1015226D01*
X359706Y1015038D01*
X359706Y1015038D01*
X359735Y1014995D01*
X360681Y1012710D01*
X362685Y1010098D01*
X365296Y1008095D01*
X368337Y1006835D01*
X371600Y1006406D01*
Y1006465D01*
X461600D01*
Y1006406D01*
X464863Y1006835D01*
X467904Y1008095D01*
X470515Y1010098D01*
X472519Y1012710D01*
X473465Y1014995D01*
X473494Y1015038D01*
X473494Y1015038D01*
X473645Y1015226D01*
X473645Y1015226D01*
X473920Y1016135D01*
X474286Y1017060D01*
X475703Y1019712D01*
X477874Y1022358D01*
X480520Y1024529D01*
X483538Y1026142D01*
X486813Y1027135D01*
X490198Y1027469D01*
X490218Y1027465D01*
D02*
G37*
G36*
X656454Y748642D02*
X656235Y748687D01*
X655978Y748696D01*
X655684Y748667D01*
X655351Y748602D01*
X654981Y748499D01*
X654573Y748360D01*
X653643Y747970D01*
X652562Y747433D01*
X651628Y749201D01*
X652180Y749502D01*
X653526Y750340D01*
X653871Y750599D01*
X654165Y750847D01*
X654406Y751085D01*
X654595Y751312D01*
X654733Y751529D01*
X654819Y751736D01*
X656454Y748642D01*
D02*
G37*
G36*
X650303Y746239D02*
X649750Y745938D01*
X648404Y745100D01*
X648059Y744841D01*
X647766Y744593D01*
X647524Y744355D01*
X647335Y744127D01*
X647197Y743911D01*
X647111Y743704D01*
X645476Y746798D01*
X645695Y746753D01*
X645952Y746745D01*
X646246Y746773D01*
X646579Y746838D01*
X646949Y746941D01*
X647357Y747080D01*
X648287Y747470D01*
X649368Y748007D01*
X650303Y746239D01*
D02*
G37*
G36*
X569267Y729055D02*
X568828Y728605D01*
X567789Y727407D01*
X567535Y727058D01*
X567328Y726734D01*
X567168Y726436D01*
X567054Y726163D01*
X566986Y725915D01*
X566965Y725692D01*
X564490Y728167D01*
X564713Y728188D01*
X564961Y728256D01*
X565234Y728370D01*
X565532Y728530D01*
X565856Y728737D01*
X566205Y728991D01*
X566978Y729637D01*
X567853Y730469D01*
X569267Y729055D01*
D02*
G37*
G36*
X701527Y721530D02*
X702725Y720491D01*
X703074Y720237D01*
X703398Y720030D01*
X703696Y719870D01*
X703969Y719756D01*
X704218Y719688D01*
X704440Y719667D01*
X701965Y717192D01*
X701944Y717415D01*
X701877Y717663D01*
X701762Y717936D01*
X701602Y718234D01*
X701395Y718558D01*
X701142Y718907D01*
X700495Y719680D01*
X699663Y720555D01*
X701077Y721969D01*
X701527Y721530D01*
D02*
G37*
G36*
X561923Y720275D02*
X562146Y720147D01*
X562420Y720034D01*
X562744Y719937D01*
X563120Y719855D01*
X563545Y719787D01*
X564549Y719697D01*
X565756Y719667D01*
Y717667D01*
X565128Y717660D01*
X563545Y717547D01*
X563120Y717479D01*
X562744Y717397D01*
X562420Y717299D01*
X562146Y717187D01*
X561923Y717059D01*
X561750Y716917D01*
Y720417D01*
X561923Y720275D01*
D02*
G37*
G36*
X694463Y715518D02*
X695661Y714479D01*
X696010Y714226D01*
X696333Y714019D01*
X696632Y713858D01*
X696905Y713744D01*
X697153Y713677D01*
X697375Y713655D01*
X694901Y711180D01*
X694880Y711403D01*
X694812Y711651D01*
X694698Y711924D01*
X694537Y712223D01*
X694330Y712546D01*
X694077Y712895D01*
X693430Y713669D01*
X692598Y714544D01*
X694013Y715958D01*
X694463Y715518D01*
D02*
G37*
G36*
X553323Y709459D02*
X553195Y709236D01*
X553083Y708962D01*
X552985Y708638D01*
X552903Y708263D01*
X552835Y707837D01*
X552745Y706833D01*
X552715Y705626D01*
X550715D01*
X550708Y706255D01*
X550595Y707837D01*
X550528Y708263D01*
X550445Y708638D01*
X550348Y708962D01*
X550235Y709236D01*
X550108Y709459D01*
X549965Y709632D01*
X553465D01*
X553323Y709459D01*
D02*
G37*
G36*
X687891Y701524D02*
X687719Y701666D01*
X687496Y701794D01*
X687222Y701907D01*
X686898Y702004D01*
X686523Y702086D01*
X686096Y702154D01*
X685092Y702244D01*
X683886Y702274D01*
Y704274D01*
X684514Y704281D01*
X686096Y704394D01*
X686523Y704462D01*
X686898Y704544D01*
X687222Y704641D01*
X687496Y704754D01*
X687719Y704882D01*
X687891Y705024D01*
Y701524D01*
D02*
G37*
G36*
X824180Y699417D02*
X824007Y699559D01*
X823784Y699687D01*
X823510Y699799D01*
X823186Y699897D01*
X822811Y699979D01*
X822385Y700047D01*
X821381Y700137D01*
X820174Y700167D01*
Y702167D01*
X820803Y702175D01*
X822385Y702287D01*
X822811Y702355D01*
X823186Y702437D01*
X823510Y702534D01*
X823784Y702647D01*
X824007Y702775D01*
X824180Y702917D01*
Y699417D01*
D02*
G37*
G36*
X807673Y702775D02*
X807896Y702647D01*
X808170Y702534D01*
X808494Y702437D01*
X808869Y702355D01*
X809296Y702287D01*
X810300Y702197D01*
X811506Y702167D01*
Y700167D01*
X810878Y700160D01*
X809296Y700047D01*
X808869Y699979D01*
X808494Y699897D01*
X808170Y699799D01*
X807896Y699687D01*
X807673Y699559D01*
X807501Y699417D01*
Y702917D01*
X807673Y702775D01*
D02*
G37*
G36*
X681430Y692667D02*
X681257Y692810D01*
X681034Y692937D01*
X680760Y693049D01*
X680436Y693147D01*
X680061Y693230D01*
X679635Y693297D01*
X678631Y693387D01*
X677424Y693417D01*
Y695417D01*
X678053Y695424D01*
X679635Y695537D01*
X680061Y695604D01*
X680436Y695687D01*
X680760Y695785D01*
X681034Y695897D01*
X681257Y696024D01*
X681430Y696167D01*
Y692667D01*
D02*
G37*
G36*
X637212Y684283D02*
X637040Y684425D01*
X636816Y684553D01*
X636543Y684665D01*
X636218Y684763D01*
X635843Y684845D01*
X635417Y684913D01*
X634413Y685003D01*
X633206Y685033D01*
Y687033D01*
X633835Y687040D01*
X635417Y687153D01*
X635843Y687220D01*
X636218Y687303D01*
X636543Y687400D01*
X636816Y687513D01*
X637040Y687640D01*
X637212Y687783D01*
Y684283D01*
D02*
G37*
G36*
X490930Y681917D02*
X490849Y681964D01*
X490703Y682007D01*
X490493Y682044D01*
X490218Y682077D01*
X489007Y682144D01*
X487215Y682167D01*
Y685167D01*
X487877Y685169D01*
X490849Y685369D01*
X490930Y685417D01*
Y681917D01*
D02*
G37*
G36*
X416332Y685369D02*
X416478Y685327D01*
X416688Y685289D01*
X416962Y685257D01*
X418174Y685189D01*
X419965Y685167D01*
Y682167D01*
X419303Y682164D01*
X416332Y681964D01*
X416250Y681917D01*
Y685417D01*
X416332Y685369D01*
D02*
G37*
G36*
X483278Y673716D02*
X483218Y673633D01*
X483165Y673487D01*
X483118Y673276D01*
X483078Y673001D01*
X483015Y672259D01*
X482968Y670662D01*
X482965Y670002D01*
X479965Y670382D01*
X479795Y674066D01*
X483278Y673716D01*
D02*
G37*
G36*
X114965Y858848D02*
X281469D01*
X281469Y858848D01*
X289802D01*
X290776Y857392D01*
X291568Y855480D01*
X291972Y853452D01*
X291973Y852417D01*
X291969Y852357D01*
Y827683D01*
X292028Y826488D01*
X292494Y824143D01*
X293409Y821934D01*
X294737Y819946D01*
X296428Y818255D01*
X298416Y816927D01*
X300625Y816012D01*
X302970Y815546D01*
X303447Y815522D01*
X305121Y814148D01*
X307936Y812644D01*
X310989Y811718D01*
X314165Y811405D01*
Y811415D01*
X314165Y811415D01*
X517896D01*
Y756483D01*
X517849D01*
X518313Y752959D01*
X519673Y749675D01*
X521083Y747837D01*
X519577Y746515D01*
X508530Y757562D01*
X508128Y758532D01*
X506581Y760080D01*
X504559Y760917D01*
X502371D01*
X500350Y760080D01*
X498802Y758532D01*
X497965Y756511D01*
Y754323D01*
X498802Y752301D01*
X500350Y750754D01*
X501320Y750352D01*
X514162Y737510D01*
X515816Y736405D01*
X517767Y736017D01*
X519718Y736405D01*
X519900Y736527D01*
X554723D01*
X555489Y734679D01*
X530197Y709388D01*
X528850Y708830D01*
X527303Y707282D01*
X526465Y705261D01*
Y703073D01*
X527303Y701051D01*
X528850Y699504D01*
X530871Y698667D01*
X533059D01*
X535081Y699504D01*
X536628Y701051D01*
X537465Y703073D01*
Y703678D01*
X544367Y710581D01*
X546427Y709812D01*
X547052Y708301D01*
X547481Y707873D01*
X547482Y707868D01*
X547521Y707694D01*
X547553Y707488D01*
X547637Y706316D01*
Y701853D01*
X547637Y701853D01*
X547947Y700292D01*
X548831Y698969D01*
X552390Y695411D01*
X551679Y693696D01*
X549776D01*
X549118Y695284D01*
X547571Y696831D01*
X545550Y697669D01*
X543362D01*
X541340Y696831D01*
X539793Y695284D01*
X538956Y693263D01*
Y691075D01*
X539047Y690854D01*
X537660Y688976D01*
X536100Y688330D01*
X534552Y686782D01*
X533715Y684761D01*
Y682573D01*
X534281Y681207D01*
X533923Y679786D01*
X533276Y678999D01*
X531755Y678369D01*
X530208Y676822D01*
X529371Y674801D01*
Y672613D01*
X530208Y670591D01*
X530751Y670049D01*
X530920Y667390D01*
X510813Y647283D01*
X509906Y647158D01*
X509639Y647240D01*
X508593Y649501D01*
X508785Y649966D01*
Y652154D01*
X508563Y652691D01*
Y687917D01*
X508175Y689868D01*
X507070Y691522D01*
X498820Y699772D01*
X497166Y700877D01*
X495215Y701265D01*
X380827D01*
X363070Y719022D01*
X361416Y720127D01*
X359465Y720515D01*
X316530D01*
X315559Y720917D01*
X313371D01*
X311350Y720080D01*
X309802Y718532D01*
X308965Y716511D01*
Y714323D01*
X309802Y712301D01*
X311350Y710754D01*
X313371Y709917D01*
X315559D01*
X316530Y710319D01*
X357354D01*
X375110Y692562D01*
X376764Y691457D01*
X378715Y691069D01*
X413135D01*
X413371Y689167D01*
X411350Y688330D01*
X409803Y686782D01*
X408965Y684761D01*
Y682573D01*
X409803Y680551D01*
X411350Y679004D01*
X413371Y678167D01*
X415559D01*
X417519Y678979D01*
X419007Y679079D01*
X475010D01*
X476347Y677079D01*
X476215Y676761D01*
Y674573D01*
X476772Y673229D01*
X476877Y670949D01*
Y644818D01*
X459316Y627256D01*
X458936Y626917D01*
X458871D01*
X456850Y626080D01*
X455302Y624533D01*
X454465Y622511D01*
Y620323D01*
X455302Y618302D01*
X456850Y616754D01*
X458871Y615917D01*
X461059D01*
X463081Y616754D01*
X464628Y618302D01*
X465439Y620261D01*
X466421Y621384D01*
X484709Y639673D01*
X485704Y641161D01*
X486053Y642917D01*
Y671511D01*
X486070Y672085D01*
X486085Y672259D01*
X486378Y672551D01*
X487215Y674573D01*
Y676761D01*
X487084Y677079D01*
X487878Y678268D01*
X489600Y679004D01*
X491621Y678167D01*
X493809D01*
X495831Y679004D01*
X496367Y679541D01*
X498367Y678712D01*
Y653558D01*
X497785Y652154D01*
Y649966D01*
X498623Y647944D01*
X499085Y647482D01*
X499152Y645156D01*
X498992Y644962D01*
X473415Y619384D01*
X473248Y619225D01*
X472618Y618692D01*
X472413Y618538D01*
X472246Y618427D01*
X472228Y618417D01*
X471871D01*
X469850Y617580D01*
X468302Y616032D01*
X467465Y614011D01*
Y611823D01*
X468302Y609801D01*
X469850Y608254D01*
X470538Y607969D01*
X470600Y605830D01*
X469053Y604282D01*
X468215Y602261D01*
Y600073D01*
X469053Y598051D01*
X470600Y596504D01*
X472621Y595667D01*
X474809D01*
X476831Y596504D01*
X478378Y598051D01*
X479189Y600011D01*
X480171Y601134D01*
X505616Y626579D01*
X661345D01*
X665688Y622237D01*
X666027Y621857D01*
Y621792D01*
X666864Y619770D01*
X668411Y618223D01*
X670433Y617386D01*
X672621D01*
X672949Y617167D01*
Y608202D01*
X672941Y607902D01*
X672868Y607108D01*
X672831Y606883D01*
X672796Y606728D01*
X672291Y606224D01*
X671454Y604203D01*
Y603274D01*
X669454Y602446D01*
X650599Y621301D01*
X649276Y622185D01*
X647715Y622495D01*
X647715Y622495D01*
X546215D01*
X546215Y622495D01*
X544654Y622185D01*
X543331Y621301D01*
X533895Y611865D01*
X533692Y611671D01*
X533073Y611155D01*
X532882Y611015D01*
X532732Y610919D01*
X532727Y610917D01*
X532121D01*
X530100Y610080D01*
X528553Y608532D01*
X527715Y606511D01*
Y604323D01*
X528553Y602301D01*
X530100Y600754D01*
X532121Y599917D01*
X534309D01*
X536331Y600754D01*
X537878Y602301D01*
X538715Y604323D01*
Y604929D01*
X538717Y604933D01*
X538813Y605083D01*
X538936Y605252D01*
X539706Y606140D01*
X547904Y614339D01*
X646026D01*
X668831Y591533D01*
X670154Y590649D01*
X671715Y590339D01*
X671715Y590339D01*
X700815D01*
X701540Y590296D01*
X701839Y590260D01*
X702080Y590218D01*
X702154Y590200D01*
X702850Y589504D01*
X704871Y588667D01*
X707059D01*
X709081Y589504D01*
X710628Y591051D01*
X711465Y593073D01*
Y595261D01*
X710628Y597282D01*
X709081Y598830D01*
X707059Y599667D01*
X704871D01*
X702850Y598830D01*
X702680Y598660D01*
X702398Y598596D01*
X702207Y598569D01*
X701034Y598495D01*
X682732D01*
X681825Y600495D01*
X682454Y602015D01*
Y604203D01*
X681617Y606224D01*
X681262Y606578D01*
X681258Y606593D01*
X681219Y606777D01*
X681186Y606992D01*
X681105Y608165D01*
Y628789D01*
X683285Y630969D01*
X683488Y631163D01*
X684107Y631679D01*
X684299Y631819D01*
X684449Y631915D01*
X684453Y631917D01*
X685059D01*
X687081Y632754D01*
X688628Y634301D01*
X689465Y636323D01*
Y638511D01*
X690305Y639768D01*
X703346D01*
X704161Y638954D01*
X704644Y638409D01*
X704824Y638177D01*
X704958Y637984D01*
X704965Y637972D01*
Y636823D01*
X705802Y634801D01*
X707350Y633254D01*
X709371Y632417D01*
X711559D01*
X713581Y633254D01*
X715128Y634801D01*
X715598Y635938D01*
X717813Y636552D01*
X718691Y635673D01*
X719053Y634801D01*
X720600Y633254D01*
X722621Y632417D01*
X723321D01*
X723715Y632339D01*
X724109Y632417D01*
X724809D01*
X726831Y633254D01*
X728378Y634801D01*
X728482Y635054D01*
X730841Y635523D01*
X733831Y632533D01*
X735154Y631649D01*
X736715Y631339D01*
X738276Y631649D01*
X739599Y632533D01*
X740483Y633856D01*
X740496Y633919D01*
X741378Y634801D01*
X741482Y635054D01*
X743841Y635523D01*
X744545Y634819D01*
X744553Y634801D01*
X746100Y633254D01*
X746117Y633247D01*
X746331Y633033D01*
X747654Y632149D01*
X749215Y631839D01*
X750776Y632149D01*
X752099Y633033D01*
X752215Y633206D01*
X752331Y633254D01*
X753878Y634801D01*
X754715Y636823D01*
Y637071D01*
X756715Y637899D01*
X757581Y637033D01*
X758289Y636269D01*
X758584Y635912D01*
X758589Y635904D01*
X758610Y635869D01*
X759053Y634801D01*
X760600Y633254D01*
X762621Y632417D01*
X764809D01*
X766831Y633254D01*
X768378Y634801D01*
X769215Y636823D01*
Y639011D01*
X768378Y641032D01*
X766831Y642580D01*
X764809Y643417D01*
X762837D01*
X762177Y643973D01*
X735273Y670877D01*
X733949Y671761D01*
X732389Y672072D01*
X732389Y672072D01*
X650001D01*
X649235Y673920D01*
X665654Y690339D01*
X678174D01*
X678456Y690332D01*
X679258Y690260D01*
X679492Y690223D01*
X679667Y690184D01*
X679671Y690183D01*
X680100Y689754D01*
X682121Y688917D01*
X684309D01*
X686331Y689754D01*
X687878Y691301D01*
X688715Y693323D01*
Y695511D01*
X688606Y695774D01*
X689942Y697774D01*
X690771D01*
X692792Y698611D01*
X694340Y700158D01*
X695177Y702180D01*
Y703959D01*
X695751Y704821D01*
X696808Y705656D01*
X698494D01*
X700516Y706493D01*
X702063Y708040D01*
X702900Y710061D01*
Y710144D01*
X703371Y711667D01*
X705559D01*
X707581Y712504D01*
X709128Y714052D01*
X709965Y716073D01*
Y718261D01*
X709128Y720283D01*
X707581Y721830D01*
X705559Y722667D01*
X704953D01*
X704949Y722669D01*
X704799Y722765D01*
X704630Y722888D01*
X703742Y723658D01*
X693494Y733906D01*
X692171Y734790D01*
X690610Y735100D01*
X688853Y735737D01*
X688809Y737417D01*
X690831Y738254D01*
X692378Y739801D01*
X693215Y741823D01*
Y744011D01*
X692378Y746032D01*
X690831Y747580D01*
X688809Y748417D01*
X686621D01*
X684600Y747580D01*
X683053Y746032D01*
X682215Y744011D01*
Y743906D01*
X678513Y740203D01*
X651153D01*
X650220Y741925D01*
X651343Y743307D01*
X654664Y745062D01*
X654916Y745187D01*
X655659Y745499D01*
X655884Y745575D01*
X655950Y745594D01*
X656121Y745523D01*
X658309D01*
X660331Y746360D01*
X661878Y747907D01*
X662715Y749929D01*
Y752117D01*
X661878Y754138D01*
X660331Y755686D01*
X658309Y756523D01*
X656121D01*
X654100Y755686D01*
X652552Y754138D01*
X652151Y753169D01*
X652150Y753168D01*
X652131Y753138D01*
X652100Y753107D01*
X651964Y752992D01*
X651797Y752867D01*
X650799Y752245D01*
X647267Y750378D01*
X647014Y750253D01*
X646271Y749941D01*
X646047Y749865D01*
X645980Y749846D01*
X645809Y749917D01*
X643621D01*
X641600Y749080D01*
X640052Y747533D01*
X639215Y745511D01*
Y743323D01*
X639679Y742203D01*
X638538Y740203D01*
X619403D01*
X618638Y742051D01*
X622412Y745825D01*
X623407Y747314D01*
X623756Y749070D01*
Y758086D01*
X624832Y758805D01*
X627020D01*
X629042Y759643D01*
X629626Y760227D01*
X696137D01*
X699215Y757149D01*
Y756323D01*
X700052Y754302D01*
X701600Y752754D01*
X703621Y751917D01*
X705809D01*
X707831Y752754D01*
X709378Y754302D01*
X710215Y756323D01*
Y758511D01*
X710105Y758777D01*
X711487Y760667D01*
X712559D01*
X714581Y761504D01*
X716128Y763052D01*
X716965Y765073D01*
Y767261D01*
X716128Y769283D01*
X714581Y770830D01*
X712559Y771667D01*
X711733D01*
X707689Y775711D01*
X706366Y776595D01*
X704805Y776906D01*
X704805Y776906D01*
X635542D01*
X634957Y777490D01*
X632936Y778327D01*
X630748D01*
X628726Y777490D01*
X627179Y775943D01*
X626342Y773921D01*
Y772819D01*
X624521Y771300D01*
X623756Y771543D01*
Y791260D01*
X632941Y800444D01*
X834959D01*
X834965Y800417D01*
X834965Y800417D01*
X853409D01*
X855046Y798584D01*
X855045Y798417D01*
X854661Y796821D01*
X854615Y796229D01*
X854465Y795476D01*
Y795175D01*
X854406Y794879D01*
Y793579D01*
X854315Y792417D01*
X854406Y791255D01*
Y789955D01*
X854465Y789659D01*
Y789358D01*
X854615Y788605D01*
X854661Y788013D01*
X855076Y786285D01*
X855426Y784528D01*
X855541Y784250D01*
X855600Y783954D01*
X855686Y783747D01*
X855693Y783718D01*
X857383Y779637D01*
X857399Y779611D01*
X857484Y779405D01*
X857652Y779154D01*
X857767Y778876D01*
X858762Y777386D01*
X859691Y775871D01*
X860077Y775419D01*
X860503Y774781D01*
X860716Y774568D01*
X860883Y774317D01*
X861803Y773398D01*
X862560Y772512D01*
X863446Y771755D01*
X864366Y770835D01*
X864616Y770668D01*
X864829Y770455D01*
X865468Y770028D01*
X865919Y769643D01*
X867434Y768714D01*
X868924Y767719D01*
X869202Y767604D01*
X869453Y767436D01*
X869659Y767351D01*
X869685Y767335D01*
X873766Y765645D01*
X873795Y765638D01*
X874002Y765552D01*
X874298Y765493D01*
X874576Y765378D01*
X876333Y765028D01*
X878061Y764613D01*
X878653Y764567D01*
X879406Y764417D01*
X879707D01*
X880003Y764358D01*
X881303D01*
X882465Y764267D01*
X883628Y764358D01*
X884927D01*
X885223Y764417D01*
X885524D01*
X886277Y764567D01*
X886869Y764613D01*
X888597Y765028D01*
X890354Y765378D01*
X890632Y765493D01*
X890928Y765552D01*
X891135Y765637D01*
X891164Y765645D01*
X895245Y767335D01*
X895271Y767351D01*
X895478Y767436D01*
X895728Y767604D01*
X896006Y767719D01*
X897496Y768714D01*
X899011Y769643D01*
X899463Y770029D01*
X900101Y770455D01*
X900314Y770668D01*
X900564Y770835D01*
X901484Y771755D01*
X902370Y772512D01*
X903128Y773398D01*
X904047Y774317D01*
X904214Y774568D01*
X904427Y774781D01*
X904854Y775419D01*
X905239Y775871D01*
X906168Y777386D01*
X907163Y778876D01*
X907278Y779154D01*
X907446Y779405D01*
X907531Y779611D01*
X907547Y779637D01*
X909238Y783718D01*
X909245Y783747D01*
X909330Y783954D01*
X909389Y784250D01*
X909504Y784528D01*
X909854Y786285D01*
X910269Y788013D01*
X910315Y788605D01*
X910465Y789358D01*
Y789659D01*
X910524Y789955D01*
Y791255D01*
X910615Y792417D01*
X910524Y793579D01*
Y794879D01*
X910465Y795175D01*
Y795476D01*
X910315Y796229D01*
X910269Y796821D01*
X909854Y798549D01*
X909504Y800306D01*
X909389Y800584D01*
X909330Y800880D01*
X909245Y801086D01*
X909238Y801116D01*
X907547Y805197D01*
X907531Y805223D01*
X907446Y805430D01*
X907278Y805680D01*
X907163Y805958D01*
X906715Y806629D01*
Y852667D01*
X912896Y858848D01*
X1019805D01*
X1019965Y858817D01*
X1020130Y858849D01*
X1022449Y858388D01*
X1024559Y856979D01*
X1025968Y854870D01*
X1026429Y852551D01*
X1026396Y852385D01*
Y836228D01*
X1026274Y835615D01*
X1026396Y835001D01*
Y658486D01*
X1010016D01*
X1009966Y658536D01*
Y658536D01*
X1009961Y658536D01*
X1008008Y658382D01*
X1003920Y658061D01*
X998028Y656646D01*
X992430Y654327D01*
X987264Y651161D01*
X982656Y647226D01*
X978721Y642618D01*
X975555Y637452D01*
X973236Y631854D01*
X971822Y625962D01*
X971500Y621874D01*
X971346Y619921D01*
X971346Y619916D01*
X971346D01*
X971396Y619866D01*
Y602757D01*
X971411Y602686D01*
X971101Y599544D01*
X970166Y596460D01*
X968646Y593617D01*
X966602Y591126D01*
X964110Y589081D01*
X961267Y587562D01*
X959661Y587074D01*
X957782Y586587D01*
X957198Y586505D01*
X956555Y586310D01*
X956555Y586310D01*
X955896Y586111D01*
X954812Y585784D01*
X954649Y585752D01*
X954649Y585752D01*
X954634Y585749D01*
X954360Y585694D01*
X954184Y585577D01*
X952756Y585092D01*
X950979Y584489D01*
X945446Y581760D01*
X940316Y578333D01*
X935678Y574265D01*
X931611Y569627D01*
X928183Y564497D01*
X925455Y558964D01*
X923472Y553123D01*
X922268Y547072D01*
X921865Y540916D01*
X922268Y534760D01*
X923472Y528710D01*
X924477Y525748D01*
X923044Y523748D01*
X899524D01*
X899524Y523748D01*
Y706150D01*
X918319Y724945D01*
X954052D01*
X955223Y725178D01*
X956215Y725841D01*
X971190Y740816D01*
X971853Y741808D01*
X972086Y742979D01*
X972086Y742979D01*
Y832869D01*
X972281D01*
Y840773D01*
X968730Y844323D01*
X924099D01*
Y834237D01*
Y828237D01*
Y815312D01*
X922874Y815069D01*
X920889Y813743D01*
X919563Y811758D01*
X919098Y809417D01*
X919563Y807076D01*
X920889Y805091D01*
X922874Y803765D01*
X925215Y803299D01*
X946207D01*
X953826Y795680D01*
Y748684D01*
X949618Y744476D01*
X913715Y744476D01*
X912544Y744243D01*
X911552Y743580D01*
X911552Y743580D01*
X884802Y716830D01*
X884802Y716830D01*
X884139Y715837D01*
X883906Y714667D01*
X883906Y714667D01*
Y695615D01*
X882809Y694881D01*
X880621D01*
X878600Y694044D01*
X878525Y693970D01*
X834468D01*
X834393Y694044D01*
X832372Y694881D01*
X831786D01*
X829933Y694910D01*
X829933Y694910D01*
X829933Y694910D01*
X829081Y696504D01*
X830628Y698052D01*
X831465Y700073D01*
Y702261D01*
X830628Y704283D01*
X829081Y705830D01*
X827059Y706667D01*
X824871D01*
X822850Y705830D01*
X822421Y705401D01*
X822417Y705400D01*
X822242Y705361D01*
X822036Y705329D01*
X820864Y705245D01*
X810757D01*
X810474Y705252D01*
X809672Y705324D01*
X809438Y705361D01*
X809264Y705400D01*
X809259Y705401D01*
X808831Y705830D01*
X806809Y706667D01*
X804621D01*
X802600Y705830D01*
X801052Y704283D01*
X800215Y702261D01*
Y700073D01*
X801052Y698052D01*
X802600Y696504D01*
X804621Y695667D01*
X806809D01*
X808831Y696504D01*
X809259Y696933D01*
X809264Y696934D01*
X809438Y696973D01*
X809644Y697005D01*
X810816Y697089D01*
X820923D01*
X821206Y697082D01*
X822008Y697010D01*
X822242Y696973D01*
X822417Y696934D01*
X822421Y696933D01*
X822850Y696504D01*
X824871Y695667D01*
X825456D01*
X827309Y695639D01*
X827309Y695639D01*
X827309Y695639D01*
X828162Y694044D01*
X826615Y692497D01*
X825778Y690475D01*
Y688287D01*
X826615Y686266D01*
X828162Y684719D01*
X830184Y683882D01*
X832372D01*
X834393Y684719D01*
X834468Y684793D01*
X877756D01*
X878570Y684041D01*
X878168Y681710D01*
X877962Y681624D01*
X877887Y681550D01*
X822821D01*
X822215Y682156D01*
Y682261D01*
X821378Y684283D01*
X819831Y685830D01*
X817809Y686667D01*
X815621D01*
X813600Y685830D01*
X812053Y684283D01*
X811215Y682261D01*
Y680073D01*
X812053Y678052D01*
X813600Y676504D01*
X815621Y675667D01*
X815726D01*
X817676Y673717D01*
X819165Y672723D01*
X820920Y672374D01*
X877887D01*
X877962Y672299D01*
X879983Y671462D01*
X882171D01*
X882243Y671491D01*
X883906Y670380D01*
Y537274D01*
X871859Y525226D01*
X836215Y525226D01*
X835044Y524993D01*
X834052Y524330D01*
X834052Y524330D01*
X833052Y523330D01*
X832389Y522338D01*
X832156Y521167D01*
X832156Y521167D01*
X832156Y512167D01*
X832389Y510997D01*
X833052Y510004D01*
X833052Y510004D01*
X835052Y508004D01*
X835052Y508004D01*
X836045Y507341D01*
X837215Y507108D01*
X837215Y507108D01*
X882884Y507108D01*
X882884Y507108D01*
X884054Y507341D01*
X885047Y508004D01*
X885047Y508004D01*
X892460Y515417D01*
X929465Y515417D01*
X931611Y512205D01*
X935678Y507567D01*
X940316Y503500D01*
X945446Y500072D01*
X950979Y497344D01*
X956821Y495361D01*
X962871Y494157D01*
X969027Y493754D01*
Y493786D01*
X1026334D01*
Y208486D01*
X1010016D01*
X1009966Y208536D01*
Y208536D01*
X1009961Y208536D01*
X1008008Y208382D01*
X1003920Y208061D01*
X998028Y206646D01*
X992430Y204327D01*
X987264Y201161D01*
X982656Y197226D01*
X978721Y192619D01*
X975555Y187452D01*
X973236Y181854D01*
X971822Y175962D01*
X971500Y171874D01*
X971346Y169921D01*
X971346Y169916D01*
X971346D01*
X971396Y169866D01*
Y108512D01*
X956188D01*
X954822Y108240D01*
X953899Y107624D01*
X953664Y107467D01*
X953659Y107458D01*
X952891Y106309D01*
X952784Y106142D01*
X952040Y104326D01*
X950733Y101881D01*
X948375Y99007D01*
X945501Y96649D01*
X942222Y94896D01*
X938665Y93817D01*
X934965Y93453D01*
X931265Y93817D01*
X927708Y94896D01*
X924429Y96649D01*
X921555Y99007D01*
X919197Y101881D01*
X917905Y104298D01*
X917156Y106110D01*
X917053Y106272D01*
X916285Y107421D01*
X916279Y107430D01*
X916038Y107591D01*
X915121Y108203D01*
X913756Y108475D01*
X613744Y108475D01*
X613670Y109610D01*
X612481Y115589D01*
X610521Y121361D01*
X607825Y126829D01*
X604438Y131897D01*
X600419Y136481D01*
X595835Y140500D01*
X590767Y143887D01*
X585299Y146583D01*
X579527Y148542D01*
X573548Y149732D01*
X567465Y150130D01*
X561382Y149732D01*
X555403Y148542D01*
X549631Y146583D01*
X544163Y143887D01*
X539095Y140500D01*
X534511Y136481D01*
X530492Y131897D01*
X527105Y126829D01*
X524409Y121361D01*
X522450Y115589D01*
X521260Y109610D01*
X521187Y108485D01*
X221239Y108485D01*
X221180Y108474D01*
X221175Y108475D01*
X219809Y108203D01*
X218892Y107591D01*
X218651Y107430D01*
X218645Y107421D01*
X217878Y106272D01*
X217774Y106110D01*
X217025Y104298D01*
X215733Y101881D01*
X213375Y99007D01*
X210501Y96649D01*
X207222Y94896D01*
X203665Y93817D01*
X199965Y93453D01*
X196265Y93817D01*
X192708Y94896D01*
X189429Y96649D01*
X186555Y99007D01*
X184197Y101881D01*
X182890Y104326D01*
X182146Y106142D01*
X182040Y106309D01*
X181271Y107458D01*
X181266Y107467D01*
X181031Y107624D01*
X180108Y108240D01*
X178743Y108512D01*
X163534D01*
Y169866D01*
X163584Y169916D01*
X163584Y169921D01*
X163535Y170542D01*
X163534Y170562D01*
X163534Y171917D01*
Y174643D01*
X163262Y176009D01*
X163005Y176393D01*
X161694Y181854D01*
X159375Y187452D01*
X156209Y192619D01*
X152274Y197226D01*
X147667Y201161D01*
X142500Y204327D01*
X136902Y206646D01*
X131010Y208061D01*
X124969Y208536D01*
X124965Y208486D01*
X108596D01*
Y493786D01*
X165903D01*
Y493754D01*
X172059Y494157D01*
X178110Y495361D01*
X183951Y497344D01*
X189484Y500072D01*
X194614Y503500D01*
X199252Y507567D01*
X203320Y512205D01*
X206747Y517335D01*
X209476Y522868D01*
X211459Y528710D01*
X212662Y534760D01*
X213066Y540916D01*
X212662Y547072D01*
X211459Y553123D01*
X209476Y558964D01*
X206747Y564497D01*
X203320Y569627D01*
X199252Y574265D01*
X194614Y578333D01*
X189484Y581760D01*
X183951Y584489D01*
X182151Y585100D01*
X180706Y585603D01*
X180571Y585694D01*
X180281Y585752D01*
X180281Y585752D01*
X180118Y585784D01*
X179034Y586111D01*
X178375Y586310D01*
X178375Y586310D01*
X177732Y586505D01*
X177148Y586587D01*
X175269Y587074D01*
X173663Y587562D01*
X170820Y589081D01*
X168329Y591126D01*
X166284Y593617D01*
X164764Y596460D01*
X163829Y599544D01*
X163519Y602686D01*
X163534Y602757D01*
Y619866D01*
X163584Y619916D01*
X163584D01*
X163584Y619921D01*
X163430Y621874D01*
X163109Y625962D01*
X161694Y631854D01*
X159375Y637452D01*
X156209Y642618D01*
X152274Y647226D01*
X147667Y651161D01*
X142500Y654327D01*
X136902Y656646D01*
X131010Y658061D01*
X126922Y658382D01*
X124969Y658536D01*
X124965Y658536D01*
Y658536D01*
X124915Y658486D01*
X108534D01*
Y852417D01*
X108501Y852582D01*
X108962Y854901D01*
X110372Y857011D01*
X112481Y858420D01*
X114800Y858881D01*
X114965Y858848D01*
D02*
G37*
G36*
X539173Y657025D02*
X539396Y656897D01*
X539670Y656785D01*
X539994Y656687D01*
X540369Y656605D01*
X540796Y656537D01*
X541800Y656447D01*
X543006Y656417D01*
Y654417D01*
X542378Y654409D01*
X540796Y654297D01*
X540369Y654230D01*
X539994Y654147D01*
X539670Y654050D01*
X539396Y653937D01*
X539173Y653810D01*
X539001Y653667D01*
Y657167D01*
X539173Y657025D01*
D02*
G37*
G36*
X707909Y642396D02*
X709446Y641074D01*
X709766Y640851D01*
X710062Y640672D01*
X710331Y640536D01*
X710575Y640444D01*
X710794Y640395D01*
X707994Y638295D01*
X708000Y638513D01*
X707957Y638756D01*
X707864Y639026D01*
X707722Y639322D01*
X707530Y639643D01*
X707288Y639991D01*
X706997Y640365D01*
X706266Y641190D01*
X705826Y641642D01*
X707461Y642835D01*
X707909Y642396D01*
D02*
G37*
G36*
X760011Y641798D02*
X761203Y640795D01*
X761542Y640568D01*
X761853Y640396D01*
X762135Y640278D01*
X762388Y640213D01*
X762612Y640203D01*
X762808Y640247D01*
X761290Y637310D01*
X761242Y637427D01*
X761149Y637584D01*
X761009Y637778D01*
X760592Y638283D01*
X759622Y639331D01*
X758746Y640222D01*
X759557Y642240D01*
X760011Y641798D01*
D02*
G37*
G36*
X745162Y641397D02*
X746335Y640403D01*
X746659Y640187D01*
X746950Y640028D01*
X747208Y639926D01*
X747432Y639881D01*
X747623Y639894D01*
X747780Y639964D01*
X746868Y637056D01*
X744574Y639144D01*
X744704Y641842D01*
X745162Y641397D01*
D02*
G37*
G36*
X732475Y641082D02*
X733631Y640083D01*
X733941Y639868D01*
X734214Y639711D01*
X734449Y639612D01*
X734647Y639572D01*
X734807Y639590D01*
X734930Y639667D01*
X734447Y636866D01*
X731033Y639685D01*
X732015Y641531D01*
X732475Y641082D01*
D02*
G37*
G36*
X683940Y634917D02*
X683717Y634896D01*
X683469Y634828D01*
X683196Y634714D01*
X682898Y634554D01*
X682574Y634347D01*
X682225Y634093D01*
X681452Y633447D01*
X680577Y632615D01*
X679163Y634029D01*
X679602Y634479D01*
X680641Y635677D01*
X680895Y636026D01*
X681102Y636350D01*
X681262Y636648D01*
X681376Y636921D01*
X681444Y637169D01*
X681465Y637392D01*
X683940Y634917D01*
D02*
G37*
G36*
X669168Y627369D02*
X671411Y625410D01*
X671502Y625386D01*
X669027Y622911D01*
X669003Y623002D01*
X668930Y623135D01*
X668808Y623310D01*
X668637Y623527D01*
X667828Y624432D01*
X666577Y625714D01*
X668698Y627836D01*
X669168Y627369D01*
D02*
G37*
G36*
X464915Y624245D02*
X464449Y623776D01*
X462489Y621533D01*
X462465Y621442D01*
X459990Y623917D01*
X460081Y623941D01*
X460214Y624014D01*
X460389Y624136D01*
X460607Y624307D01*
X461511Y625116D01*
X462794Y626367D01*
X464915Y624245D01*
D02*
G37*
G36*
X477691Y616479D02*
X477252Y616028D01*
X476221Y614828D01*
X475973Y614479D01*
X475774Y614156D01*
X475623Y613859D01*
X475519Y613586D01*
X475464Y613340D01*
X475457Y613119D01*
X472813Y615412D01*
X473035Y615448D01*
X473282Y615528D01*
X473555Y615653D01*
X473852Y615822D01*
X474175Y616037D01*
X474523Y616297D01*
X475295Y616950D01*
X476168Y617784D01*
X477691Y616479D01*
D02*
G37*
G36*
X538017Y608805D02*
X537578Y608355D01*
X536539Y607157D01*
X536285Y606808D01*
X536078Y606484D01*
X535918Y606186D01*
X535804Y605913D01*
X535736Y605665D01*
X535715Y605442D01*
X533240Y607917D01*
X533463Y607938D01*
X533711Y608006D01*
X533984Y608120D01*
X534282Y608280D01*
X534606Y608487D01*
X534955Y608741D01*
X535728Y609387D01*
X536603Y610219D01*
X538017Y608805D01*
D02*
G37*
G36*
X678027Y608867D02*
X678034Y608238D01*
X678143Y606654D01*
X678209Y606227D01*
X678289Y605849D01*
X678384Y605522D01*
X678493Y605246D01*
X678617Y605019D01*
X678755Y604842D01*
X675257Y604944D01*
X675403Y605112D01*
X675534Y605331D01*
X675649Y605602D01*
X675750Y605924D01*
X675834Y606297D01*
X675904Y606721D01*
X675996Y607723D01*
X676027Y608930D01*
X678027Y608867D01*
D02*
G37*
G36*
X478665Y603995D02*
X478199Y603526D01*
X476239Y601283D01*
X476215Y601192D01*
X473740Y603667D01*
X473831Y603691D01*
X473964Y603764D01*
X474139Y603886D01*
X474357Y604057D01*
X475261Y604866D01*
X476544Y606117D01*
X478665Y603995D01*
D02*
G37*
G36*
X704014Y592604D02*
X703857Y592759D01*
X703648Y592897D01*
X703386Y593019D01*
X703072Y593124D01*
X702705Y593214D01*
X702285Y593287D01*
X701813Y593344D01*
X700711Y593409D01*
X700080Y593417D01*
X700300Y595417D01*
X700928Y595424D01*
X702515Y595524D01*
X702946Y595584D01*
X703661Y595745D01*
X703944Y595846D01*
X704179Y595960D01*
X704364Y596087D01*
X704014Y592604D01*
D02*
G37*
G36*
X969027Y836605D02*
Y742979D01*
X954052Y728004D01*
X917052D01*
X896465Y707417D01*
Y523748D01*
X882884Y510167D01*
X837215Y510167D01*
X835215Y512167D01*
X835215Y521167D01*
X836215Y522167D01*
X873126Y522167D01*
X886965Y536007D01*
Y687583D01*
X887323Y689381D01*
X886965Y691180D01*
Y714667D01*
X913715Y741417D01*
X950885Y741417D01*
X956885Y747417D01*
Y796947D01*
X946725Y807107D01*
Y836427D01*
X951465Y841167D01*
X964465D01*
X969027Y836605D01*
D02*
G37*
G36*
X1087730Y497310D02*
Y468100D01*
X1080110Y460480D01*
X1057250D01*
X1053440Y464290D01*
Y493500D01*
X1064870Y504930D01*
X1080110D01*
X1087730Y497310D01*
D02*
G37*
G36*
X1110590Y460480D02*
X1109890Y459780D01*
X1106988Y409472D01*
X1097890Y418570D01*
X1053227D01*
X1051565Y420232D01*
Y444635D01*
X1053440Y446510D01*
X1096620D01*
X1109890Y459780D01*
X1110590Y471910D01*
Y460480D01*
D02*
G37*
%LPC*%
G36*
X709070Y1006973D02*
X707081D01*
X705243Y1006212D01*
X703837Y1004805D01*
X703075Y1002967D01*
Y1000978D01*
X703837Y999140D01*
X705243Y997734D01*
X707081Y996973D01*
X709070D01*
X710908Y997734D01*
X712314Y999140D01*
X713075Y1000978D01*
Y1002967D01*
X712314Y1004805D01*
X710908Y1006212D01*
X709070Y1006973D01*
D02*
G37*
G36*
X686058D02*
X684068D01*
X682231Y1006212D01*
X680824Y1004805D01*
X680063Y1002967D01*
Y1000978D01*
X680824Y999140D01*
X682231Y997734D01*
X684068Y996973D01*
X686058D01*
X687895Y997734D01*
X689302Y999140D01*
X690063Y1000978D01*
Y1002967D01*
X689302Y1004805D01*
X687895Y1006212D01*
X686058Y1006973D01*
D02*
G37*
G36*
X327673Y1017134D02*
X325882D01*
X324229Y1016449D01*
X322963Y1015183D01*
X322278Y1013529D01*
Y1011739D01*
X322963Y1010085D01*
X324229Y1008819D01*
X325882Y1008134D01*
X327673D01*
X329327Y1008819D01*
X329514Y1009006D01*
X330446Y1009065D01*
X336729D01*
X365034Y980760D01*
X366192Y979987D01*
X367558Y979715D01*
X489269D01*
X493414Y975570D01*
X493573Y975401D01*
X493728Y975215D01*
Y974909D01*
X494413Y973255D01*
X495678Y971989D01*
X497332Y971304D01*
X499123D01*
X500777Y971989D01*
X502043Y973255D01*
X502728Y974909D01*
Y976699D01*
X502043Y978353D01*
X500777Y979619D01*
X499123Y980304D01*
X498858D01*
X498157Y980921D01*
X493271Y985807D01*
X492113Y986581D01*
X490748Y986852D01*
X432015D01*
X431884Y987065D01*
X431402Y988852D01*
X432427Y989877D01*
X433188Y991715D01*
Y993704D01*
X432427Y995542D01*
X431020Y996948D01*
X429183Y997709D01*
X427193D01*
X425356Y996948D01*
X423949Y995542D01*
X423188Y993704D01*
Y991715D01*
X423949Y989877D01*
X424974Y988852D01*
X424492Y987065D01*
X424361Y986852D01*
X409003D01*
X408872Y987065D01*
X408390Y988852D01*
X409414Y989877D01*
X410176Y991715D01*
Y993704D01*
X409414Y995542D01*
X408008Y996948D01*
X406170Y997709D01*
X404181D01*
X402343Y996948D01*
X400937Y995542D01*
X400176Y993704D01*
Y991715D01*
X400937Y989877D01*
X401962Y988852D01*
X401480Y987065D01*
X401349Y986852D01*
X369036D01*
X340731Y1015157D01*
X339573Y1015931D01*
X338208Y1016202D01*
X330016D01*
X329785Y1016210D01*
X329543Y1016232D01*
X329327Y1016449D01*
X327673Y1017134D01*
D02*
G37*
G36*
X616624Y982159D02*
X614436D01*
X612415Y981321D01*
X610867Y979774D01*
X610030Y977753D01*
Y975565D01*
X610867Y973543D01*
X612415Y971996D01*
X614436Y971159D01*
X616624D01*
X618646Y971996D01*
X620193Y973543D01*
X621030Y975565D01*
Y977753D01*
X620193Y979774D01*
X618646Y981321D01*
X616624Y982159D01*
D02*
G37*
G36*
X558824D02*
X556636D01*
X554615Y981321D01*
X553067Y979774D01*
X552230Y977753D01*
Y975565D01*
X553067Y973543D01*
X554615Y971996D01*
X556636Y971159D01*
X558824D01*
X560846Y971996D01*
X562393Y973543D01*
X563230Y975565D01*
Y977753D01*
X562393Y979774D01*
X560846Y981321D01*
X558824Y982159D01*
D02*
G37*
G36*
X609802Y960341D02*
X558195D01*
X557415Y960186D01*
X556754Y959744D01*
X550126Y953116D01*
X550126Y953115D01*
X549684Y952454D01*
X549528Y951674D01*
Y941990D01*
X549684Y941210D01*
X550126Y940548D01*
X554158Y936516D01*
X554159Y936516D01*
X554820Y936074D01*
X555600Y935918D01*
X617021Y935918D01*
X617802Y936074D01*
X618463Y936516D01*
X621035Y939087D01*
X621477Y939749D01*
X621632Y940529D01*
X621632Y953429D01*
X621477Y954209D01*
X621035Y954871D01*
X616221Y959685D01*
X615900Y959899D01*
X615582Y960117D01*
X615570Y960120D01*
X615559Y960127D01*
X615181Y960202D01*
X614803Y960282D01*
X609826Y960341D01*
X609814Y960339D01*
X609802Y960341D01*
D02*
G37*
G36*
X671600Y944160D02*
X670491Y944014D01*
X670463D01*
X670410Y944003D01*
X669103Y943831D01*
X666777Y942867D01*
X665732Y942065D01*
X665686Y942035D01*
X665667Y942015D01*
X664779Y941334D01*
X664098Y940447D01*
X664079Y940427D01*
X664048Y940382D01*
X663246Y939337D01*
X662283Y937010D01*
X662111Y935704D01*
X662100Y935650D01*
Y935623D01*
X661954Y934514D01*
X662100Y933405D01*
Y933377D01*
X662111Y933323D01*
X662283Y932017D01*
X663246Y929691D01*
X664048Y928645D01*
X664079Y928600D01*
X664098Y928580D01*
X664779Y927693D01*
X665667Y927012D01*
X665686Y926992D01*
X665732Y926962D01*
X666777Y926160D01*
X669103Y925196D01*
X670410Y925024D01*
X670464Y925014D01*
X670491D01*
X671600Y924868D01*
X672709Y925014D01*
X672737D01*
X672790Y925024D01*
X674097Y925196D01*
X676423Y926160D01*
X677468Y926962D01*
X677514Y926992D01*
X677533Y927012D01*
X678421Y927693D01*
X679102Y928580D01*
X679121Y928600D01*
X679152Y928645D01*
X679954Y929691D01*
X680917Y932017D01*
X681089Y933323D01*
X681100Y933377D01*
Y933404D01*
X681246Y934514D01*
X681100Y935623D01*
Y935650D01*
X681089Y935704D01*
X680917Y937010D01*
X679954Y939337D01*
X679152Y940382D01*
X679121Y940427D01*
X679102Y940447D01*
X678421Y941334D01*
X677533Y942016D01*
X677514Y942035D01*
X677469Y942065D01*
X676423Y942867D01*
X674097Y943831D01*
X672790Y944003D01*
X672737Y944014D01*
X672709D01*
X671600Y944160D01*
D02*
G37*
G36*
X331635D02*
X330526Y944014D01*
X330499D01*
X330445Y944003D01*
X329138Y943831D01*
X326812Y942867D01*
X325767Y942065D01*
X325721Y942035D01*
X325702Y942015D01*
X324814Y941334D01*
X324133Y940447D01*
X324114Y940427D01*
X324084Y940382D01*
X323281Y939337D01*
X322318Y937010D01*
X322146Y935704D01*
X322135Y935650D01*
Y935623D01*
X321989Y934514D01*
X322135Y933405D01*
Y933377D01*
X322146Y933323D01*
X322318Y932017D01*
X323281Y929691D01*
X324083Y928645D01*
X324114Y928600D01*
X324133Y928580D01*
X324814Y927693D01*
X325702Y927012D01*
X325721Y926992D01*
X325767Y926962D01*
X326812Y926160D01*
X329138Y925196D01*
X330445Y925024D01*
X330499Y925014D01*
X330526D01*
X331635Y924868D01*
X332744Y925014D01*
X332772D01*
X332825Y925024D01*
X334132Y925196D01*
X336458Y926160D01*
X337503Y926962D01*
X337549Y926992D01*
X337568Y927012D01*
X338456Y927693D01*
X339137Y928580D01*
X339156Y928600D01*
X339187Y928645D01*
X339989Y929691D01*
X340952Y932017D01*
X341124Y933323D01*
X341135Y933377D01*
Y933404D01*
X341281Y934514D01*
X341135Y935623D01*
Y935650D01*
X341124Y935704D01*
X340952Y937010D01*
X339989Y939337D01*
X339187Y940382D01*
X339156Y940427D01*
X339137Y940447D01*
X338456Y941334D01*
X337568Y942015D01*
X337549Y942035D01*
X337504Y942065D01*
X336458Y942867D01*
X334132Y943831D01*
X332825Y944003D01*
X332772Y944014D01*
X332744D01*
X331635Y944160D01*
D02*
G37*
G36*
X382747Y940184D02*
X380957D01*
X379303Y939499D01*
X378037Y938233D01*
X377352Y936579D01*
Y934789D01*
X378037Y933135D01*
X379303Y931869D01*
X380957Y931184D01*
X382747D01*
X383999Y931702D01*
X441766D01*
X453337Y920131D01*
X453855Y918879D01*
X455121Y917614D01*
X456775Y916928D01*
X458565D01*
X460219Y917614D01*
X461485Y918879D01*
X462170Y920533D01*
Y922324D01*
X461485Y923978D01*
X460219Y925243D01*
X458967Y925762D01*
X446230Y938499D01*
X444939Y939362D01*
X443415Y939665D01*
X383999D01*
X382747Y940184D01*
D02*
G37*
G36*
X606635Y864660D02*
X605526Y864514D01*
X605499D01*
X605445Y864503D01*
X604138Y864331D01*
X601812Y863367D01*
X600767Y862565D01*
X600721Y862535D01*
X600702Y862515D01*
X599814Y861834D01*
X599133Y860947D01*
X599114Y860928D01*
X599084Y860882D01*
X598281Y859837D01*
X597318Y857510D01*
X597146Y856204D01*
X597135Y856150D01*
Y856123D01*
X596989Y855014D01*
X597135Y853905D01*
Y853877D01*
X597146Y853823D01*
X597318Y852517D01*
X598281Y850191D01*
X599083Y849146D01*
X599114Y849100D01*
X599133Y849080D01*
X599814Y848193D01*
X600702Y847512D01*
X600721Y847493D01*
X600767Y847462D01*
X601812Y846660D01*
X604138Y845696D01*
X605445Y845524D01*
X605499Y845514D01*
X605526D01*
X606635Y845368D01*
X607744Y845514D01*
X607772D01*
X607825Y845524D01*
X609132Y845696D01*
X611458Y846660D01*
X612503Y847462D01*
X612549Y847493D01*
X612568Y847512D01*
X613456Y848193D01*
X614137Y849080D01*
X614156Y849100D01*
X614187Y849145D01*
X614989Y850191D01*
X615952Y852517D01*
X616124Y853823D01*
X616135Y853877D01*
Y853904D01*
X616281Y855014D01*
X616135Y856123D01*
Y856150D01*
X616124Y856204D01*
X615952Y857510D01*
X614989Y859837D01*
X614187Y860882D01*
X614156Y860928D01*
X614137Y860947D01*
X613456Y861834D01*
X612568Y862515D01*
X612549Y862535D01*
X612504Y862565D01*
X611458Y863367D01*
X609132Y864331D01*
X607825Y864503D01*
X607772Y864514D01*
X607744D01*
X606635Y864660D01*
D02*
G37*
G36*
X396600D02*
X395491Y864514D01*
X395463D01*
X395410Y864503D01*
X394104Y864331D01*
X391777Y863367D01*
X390732Y862565D01*
X390686Y862535D01*
X390667Y862515D01*
X389779Y861834D01*
X389098Y860947D01*
X389079Y860928D01*
X389048Y860882D01*
X388246Y859837D01*
X387283Y857510D01*
X387111Y856204D01*
X387100Y856150D01*
Y856123D01*
X386954Y855014D01*
X387100Y853905D01*
Y853877D01*
X387111Y853823D01*
X387283Y852517D01*
X388246Y850191D01*
X389048Y849146D01*
X389079Y849100D01*
X389098Y849080D01*
X389779Y848193D01*
X390667Y847512D01*
X390686Y847493D01*
X390732Y847462D01*
X391777Y846660D01*
X394104Y845696D01*
X395410Y845524D01*
X395463Y845514D01*
X395491D01*
X396600Y845368D01*
X397709Y845514D01*
X397737D01*
X397790Y845524D01*
X399097Y845696D01*
X401423Y846660D01*
X402468Y847462D01*
X402514Y847493D01*
X402533Y847512D01*
X403421Y848193D01*
X404102Y849080D01*
X404121Y849100D01*
X404152Y849145D01*
X404954Y850191D01*
X405917Y852517D01*
X406089Y853823D01*
X406100Y853877D01*
Y853904D01*
X406246Y855014D01*
X406100Y856123D01*
Y856150D01*
X406089Y856204D01*
X405917Y857510D01*
X404954Y859837D01*
X404152Y860882D01*
X404121Y860928D01*
X404102Y860947D01*
X403421Y861834D01*
X402533Y862515D01*
X402514Y862535D01*
X402469Y862565D01*
X401423Y863367D01*
X399097Y864331D01*
X397790Y864503D01*
X397737Y864514D01*
X397709D01*
X396600Y864660D01*
D02*
G37*
G36*
X656635Y865668D02*
X655460Y865514D01*
X655400D01*
X655282Y865490D01*
X653877Y865305D01*
X651308Y864241D01*
X650184Y863378D01*
X650084Y863311D01*
X650041Y863269D01*
X649101Y862548D01*
X648380Y861608D01*
X648337Y861565D01*
X648270Y861465D01*
X647408Y860341D01*
X646344Y857771D01*
X646159Y856366D01*
X646135Y856249D01*
Y856188D01*
X645980Y855014D01*
X646135Y853839D01*
Y853779D01*
X646159Y853660D01*
X646344Y852256D01*
X647408Y849686D01*
X648270Y848562D01*
X648337Y848462D01*
X648380Y848419D01*
X649101Y847480D01*
X650041Y846758D01*
X650084Y846716D01*
X650184Y846649D01*
X651308Y845786D01*
X653877Y844722D01*
X655282Y844537D01*
X655400Y844514D01*
X655460D01*
X656635Y844359D01*
X657810Y844514D01*
X657870D01*
X657988Y844537D01*
X659393Y844722D01*
X661962Y845786D01*
X663086Y846649D01*
X663186Y846716D01*
X663229Y846758D01*
X664169Y847480D01*
X664890Y848420D01*
X664933Y848462D01*
X665000Y848562D01*
X665862Y849686D01*
X666927Y852256D01*
X667112Y853661D01*
X667135Y853779D01*
Y853839D01*
X667290Y855014D01*
X667135Y856188D01*
Y856249D01*
X667112Y856367D01*
X666927Y857771D01*
X665862Y860341D01*
X665000Y861465D01*
X664933Y861565D01*
X664891Y861608D01*
X664169Y862548D01*
X663229Y863269D01*
X663186Y863311D01*
X663087Y863378D01*
X661962Y864241D01*
X659393Y865305D01*
X657988Y865490D01*
X657870Y865514D01*
X657810D01*
X656635Y865668D01*
D02*
G37*
G36*
X346600D02*
X345425Y865514D01*
X345365D01*
X345247Y865490D01*
X343842Y865305D01*
X341273Y864241D01*
X340149Y863378D01*
X340049Y863311D01*
X340006Y863269D01*
X339066Y862548D01*
X338345Y861608D01*
X338302Y861565D01*
X338235Y861465D01*
X337373Y860341D01*
X336308Y857771D01*
X336124Y856366D01*
X336100Y856249D01*
Y856188D01*
X335945Y855014D01*
X336100Y853839D01*
Y853779D01*
X336124Y853660D01*
X336308Y852256D01*
X337373Y849686D01*
X338235Y848562D01*
X338302Y848462D01*
X338345Y848419D01*
X339066Y847480D01*
X340006Y846758D01*
X340049Y846716D01*
X340149Y846649D01*
X341273Y845786D01*
X343842Y844722D01*
X345247Y844537D01*
X345365Y844514D01*
X345425D01*
X346600Y844359D01*
X347775Y844514D01*
X347835D01*
X347953Y844537D01*
X349358Y844722D01*
X351927Y845786D01*
X353051Y846649D01*
X353151Y846716D01*
X353194Y846758D01*
X354134Y847480D01*
X354855Y848420D01*
X354898Y848462D01*
X354965Y848562D01*
X355827Y849686D01*
X356892Y852256D01*
X357077Y853661D01*
X357100Y853779D01*
Y853839D01*
X357255Y855014D01*
X357100Y856188D01*
Y856249D01*
X357077Y856367D01*
X356892Y857771D01*
X355827Y860341D01*
X354965Y861465D01*
X354898Y861565D01*
X354855Y861608D01*
X354134Y862548D01*
X353194Y863269D01*
X353151Y863311D01*
X353051Y863378D01*
X351927Y864241D01*
X349358Y865305D01*
X347953Y865490D01*
X347835Y865514D01*
X347775D01*
X346600Y865668D01*
D02*
G37*
%LPD*%
G36*
X328634Y1014336D02*
X328750Y1014294D01*
X328910Y1014256D01*
X329115Y1014224D01*
X329658Y1014174D01*
X330806Y1014136D01*
X331278Y1014134D01*
Y1011134D01*
X330806Y1011131D01*
X328910Y1011011D01*
X328750Y1010974D01*
X328634Y1010931D01*
X328563Y1010884D01*
Y1014384D01*
X328634Y1014336D01*
D02*
G37*
G36*
X496442Y979715D02*
X497867Y978459D01*
X498007Y978372D01*
X498119Y978320D01*
X498203Y978304D01*
X495728Y975829D01*
X495711Y975913D01*
X495659Y976024D01*
X495572Y976164D01*
X495451Y976332D01*
X495102Y976751D01*
X494317Y977590D01*
X493985Y977925D01*
X496106Y980046D01*
X496442Y979715D01*
D02*
G37*
G36*
X614779Y958243D02*
X619593Y953429D01*
X619593Y940529D01*
X617021Y937958D01*
X555600Y937958D01*
X551568Y941990D01*
Y951674D01*
X558195Y958302D01*
X609802D01*
X614779Y958243D01*
D02*
G37*
%LPC*%
G36*
X276965Y852667D02*
X229215D01*
X229375Y824797D01*
X229629Y825051D01*
X277307D01*
Y852325D01*
X276965Y852667D01*
D02*
G37*
G36*
X1002465Y833072D02*
X1001737Y832976D01*
X1001726D01*
X1001706Y832972D01*
X1001290Y832917D01*
X1001130D01*
X1000815Y832854D01*
X999707Y832709D01*
X997138Y831644D01*
X996251Y830964D01*
X995985Y830786D01*
X995871Y830672D01*
X995538Y830417D01*
X995521Y830406D01*
X995514Y830398D01*
X994931Y829951D01*
X994484Y829368D01*
X994477Y829361D01*
X994465Y829344D01*
X994210Y829011D01*
X994096Y828897D01*
X993918Y828631D01*
X993238Y827744D01*
X992173Y825175D01*
X992028Y824067D01*
X991965Y823752D01*
Y823592D01*
X991910Y823176D01*
X991906Y823156D01*
Y823145D01*
X991810Y822417D01*
X991906Y821689D01*
Y821678D01*
X991910Y821658D01*
X991965Y821242D01*
Y821081D01*
X992028Y820767D01*
X992173Y819659D01*
X992356Y819219D01*
X992366Y819168D01*
X992395Y819124D01*
X993238Y817090D01*
X993918Y816203D01*
X994096Y815937D01*
X994210Y815823D01*
X994465Y815490D01*
X994477Y815473D01*
X994484Y815466D01*
X994931Y814883D01*
X995514Y814436D01*
X995521Y814428D01*
X995539Y814417D01*
X995871Y814162D01*
X995985Y814048D01*
X996252Y813870D01*
X997138Y813190D01*
X999707Y812125D01*
X1000815Y811980D01*
X1001130Y811917D01*
X1001290D01*
X1001706Y811862D01*
X1001726Y811858D01*
X1001737D01*
X1002465Y811762D01*
X1003193Y811858D01*
X1003204D01*
X1003224Y811862D01*
X1003640Y811917D01*
X1003801D01*
X1004115Y811980D01*
X1005223Y812125D01*
X1007792Y813190D01*
X1008679Y813870D01*
X1008945Y814048D01*
X1009059Y814162D01*
X1009392Y814417D01*
X1009409Y814428D01*
X1009416Y814436D01*
X1009999Y814883D01*
X1010446Y815466D01*
X1010454Y815473D01*
X1010465Y815490D01*
X1010721Y815823D01*
X1010834Y815937D01*
X1011012Y816203D01*
X1011692Y817090D01*
X1012757Y819659D01*
X1012903Y820767D01*
X1012965Y821081D01*
Y821242D01*
X1013020Y821658D01*
X1013024Y821678D01*
Y821689D01*
X1013120Y822417D01*
X1013024Y823145D01*
Y823156D01*
X1013020Y823176D01*
X1012965Y823592D01*
Y823752D01*
X1012903Y824067D01*
X1012757Y825175D01*
X1012574Y825615D01*
X1012564Y825666D01*
X1012535Y825710D01*
X1011692Y827744D01*
X1011012Y828631D01*
X1010834Y828897D01*
X1010721Y829011D01*
X1010465Y829344D01*
X1010454Y829361D01*
X1010446Y829368D01*
X1009999Y829951D01*
X1009416Y830398D01*
X1009409Y830406D01*
X1009392Y830417D01*
X1009059Y830672D01*
X1008945Y830786D01*
X1008679Y830964D01*
X1007792Y831644D01*
X1005223Y832709D01*
X1004115Y832854D01*
X1003801Y832917D01*
X1003640D01*
X1003224Y832972D01*
X1003204Y832976D01*
X1003193D01*
X1002465Y833072D01*
D02*
G37*
G36*
X132465D02*
X131737Y832976D01*
X131726D01*
X131706Y832972D01*
X131290Y832917D01*
X131130D01*
X130815Y832854D01*
X129707Y832709D01*
X127138Y831644D01*
X126251Y830964D01*
X125985Y830786D01*
X125871Y830672D01*
X125538Y830417D01*
X125521Y830406D01*
X125514Y830398D01*
X124931Y829951D01*
X124484Y829368D01*
X124477Y829361D01*
X124465Y829344D01*
X124210Y829011D01*
X124096Y828897D01*
X123918Y828631D01*
X123238Y827744D01*
X122174Y825175D01*
X122028Y824067D01*
X121965Y823752D01*
Y823592D01*
X121910Y823176D01*
X121906Y823156D01*
Y823145D01*
X121810Y822417D01*
X121906Y821689D01*
Y821678D01*
X121910Y821658D01*
X121965Y821242D01*
Y821081D01*
X122028Y820767D01*
X122174Y819659D01*
X123238Y817090D01*
X123918Y816203D01*
X124096Y815937D01*
X124210Y815823D01*
X124465Y815490D01*
X124477Y815473D01*
X124484Y815466D01*
X124931Y814883D01*
X125514Y814436D01*
X125521Y814428D01*
X125539Y814417D01*
X125871Y814162D01*
X125985Y814048D01*
X126251Y813870D01*
X127138Y813190D01*
X129707Y812125D01*
X130815Y811980D01*
X131130Y811917D01*
X131290D01*
X131706Y811862D01*
X131726Y811858D01*
X131737D01*
X132465Y811762D01*
X133193Y811858D01*
X133204D01*
X133224Y811862D01*
X133640Y811917D01*
X133800D01*
X134115Y811980D01*
X135223Y812125D01*
X137792Y813190D01*
X138679Y813870D01*
X138945Y814048D01*
X139059Y814162D01*
X139392Y814417D01*
X139409Y814428D01*
X139416Y814436D01*
X139999Y814883D01*
X140446Y815466D01*
X140454Y815473D01*
X140465Y815490D01*
X140720Y815823D01*
X140834Y815937D01*
X141012Y816203D01*
X141692Y817090D01*
X142757Y819659D01*
X142902Y820767D01*
X142965Y821081D01*
Y821242D01*
X143020Y821658D01*
X143024Y821678D01*
Y821689D01*
X143120Y822417D01*
X143024Y823145D01*
Y823156D01*
X143020Y823176D01*
X142965Y823592D01*
Y823752D01*
X142903Y824067D01*
X142757Y825175D01*
X141692Y827744D01*
X141012Y828631D01*
X140834Y828897D01*
X140721Y829011D01*
X140465Y829344D01*
X140454Y829361D01*
X140447Y829368D01*
X139999Y829951D01*
X139416Y830398D01*
X139409Y830406D01*
X139392Y830417D01*
X139059Y830673D01*
X138945Y830786D01*
X138679Y830964D01*
X137792Y831644D01*
X135223Y832709D01*
X134115Y832854D01*
X133800Y832917D01*
X133640D01*
X133224Y832972D01*
X133204Y832976D01*
X133193D01*
X132465Y833072D01*
D02*
G37*
G36*
X252465Y820567D02*
X251303Y820476D01*
X250003D01*
X249707Y820417D01*
X249406D01*
X248653Y820267D01*
X248061Y820221D01*
X246333Y819806D01*
X244576Y819456D01*
X244298Y819341D01*
X244002Y819282D01*
X243796Y819196D01*
X243766Y819190D01*
X239685Y817499D01*
X239659Y817483D01*
X239453Y817398D01*
X239202Y817230D01*
X238924Y817115D01*
X237435Y816120D01*
X235919Y815191D01*
X235467Y814805D01*
X234829Y814379D01*
X234616Y814166D01*
X234366Y813999D01*
X233447Y813080D01*
X232560Y812322D01*
X231803Y811436D01*
X230883Y810516D01*
X230716Y810266D01*
X230503Y810053D01*
X230077Y809415D01*
X229691Y808963D01*
X228762Y807448D01*
X227767Y805958D01*
X227652Y805680D01*
X227484Y805430D01*
X227399Y805223D01*
X227383Y805197D01*
X225693Y801116D01*
X225686Y801087D01*
X225600Y800880D01*
X225541Y800584D01*
X225426Y800306D01*
X225076Y798549D01*
X224661Y796821D01*
X224615Y796229D01*
X224465Y795476D01*
Y795175D01*
X224406Y794879D01*
Y793579D01*
X224315Y792417D01*
X224406Y791255D01*
Y789955D01*
X224465Y789659D01*
Y789358D01*
X224615Y788605D01*
X224661Y788013D01*
X225076Y786285D01*
X225426Y784528D01*
X225541Y784250D01*
X225600Y783954D01*
X225686Y783747D01*
X225693Y783718D01*
X227383Y779637D01*
X227399Y779611D01*
X227484Y779405D01*
X227652Y779154D01*
X227767Y778876D01*
X228762Y777386D01*
X229691Y775871D01*
X230077Y775419D01*
X230503Y774781D01*
X230716Y774568D01*
X230884Y774317D01*
X231803Y773398D01*
X232560Y772512D01*
X233446Y771755D01*
X234366Y770835D01*
X234616Y770668D01*
X234829Y770455D01*
X235467Y770028D01*
X235919Y769643D01*
X237434Y768714D01*
X238924Y767719D01*
X239202Y767604D01*
X239453Y767436D01*
X239659Y767351D01*
X239685Y767335D01*
X243766Y765645D01*
X243796Y765638D01*
X244002Y765552D01*
X244298Y765493D01*
X244576Y765378D01*
X246333Y765028D01*
X248061Y764613D01*
X248653Y764567D01*
X249406Y764417D01*
X249707D01*
X250003Y764358D01*
X251303D01*
X252465Y764267D01*
X253628Y764358D01*
X254927D01*
X255223Y764417D01*
X255524D01*
X256277Y764567D01*
X256869Y764613D01*
X258597Y765028D01*
X260354Y765378D01*
X260632Y765493D01*
X260928Y765552D01*
X261135Y765637D01*
X261164Y765645D01*
X265245Y767335D01*
X265271Y767351D01*
X265478Y767436D01*
X265728Y767604D01*
X266006Y767719D01*
X267496Y768714D01*
X269011Y769643D01*
X269463Y770029D01*
X270101Y770455D01*
X270314Y770668D01*
X270565Y770835D01*
X271484Y771755D01*
X272370Y772512D01*
X273127Y773398D01*
X274047Y774317D01*
X274214Y774568D01*
X274427Y774781D01*
X274854Y775419D01*
X275239Y775871D01*
X276168Y777386D01*
X277163Y778876D01*
X277278Y779154D01*
X277446Y779405D01*
X277531Y779611D01*
X277547Y779637D01*
X279238Y783718D01*
X279245Y783747D01*
X279330Y783954D01*
X279389Y784250D01*
X279504Y784528D01*
X279854Y786285D01*
X280269Y788013D01*
X280315Y788605D01*
X280465Y789358D01*
Y789659D01*
X280524Y789955D01*
Y791255D01*
X280615Y792417D01*
X280524Y793579D01*
Y794879D01*
X280465Y795175D01*
Y795476D01*
X280315Y796229D01*
X280269Y796821D01*
X279854Y798549D01*
X279504Y800306D01*
X279389Y800584D01*
X279330Y800880D01*
X279245Y801086D01*
X279238Y801116D01*
X277547Y805197D01*
X277531Y805223D01*
X277446Y805430D01*
X277278Y805680D01*
X277163Y805958D01*
X276168Y807447D01*
X275239Y808963D01*
X274853Y809415D01*
X274427Y810053D01*
X274214Y810266D01*
X274047Y810516D01*
X273128Y811435D01*
X272370Y812322D01*
X271484Y813080D01*
X270565Y813999D01*
X270314Y814166D01*
X270101Y814379D01*
X269463Y814805D01*
X269011Y815191D01*
X267495Y816120D01*
X266006Y817115D01*
X265728Y817230D01*
X265478Y817398D01*
X265271Y817483D01*
X265245Y817499D01*
X261164Y819190D01*
X261134Y819197D01*
X260928Y819282D01*
X260632Y819341D01*
X260354Y819456D01*
X258598Y819806D01*
X256869Y820221D01*
X256277Y820267D01*
X255524Y820417D01*
X255223D01*
X254927Y820476D01*
X253628D01*
X252465Y820567D01*
D02*
G37*
G36*
X1007465Y754080D02*
X1006671Y753976D01*
X1006628D01*
X1006543Y753959D01*
X1006225Y753917D01*
X1006031D01*
X1005652Y753841D01*
X1004446Y753683D01*
X1001634Y752518D01*
X1000669Y751777D01*
X1000347Y751563D01*
X1000210Y751426D01*
X999956Y751230D01*
X999884Y751182D01*
X999853Y751152D01*
X999218Y750664D01*
X998731Y750029D01*
X998700Y749998D01*
X998652Y749926D01*
X998456Y749672D01*
X998319Y749535D01*
X998104Y749213D01*
X997364Y748249D01*
X996199Y745436D01*
X996040Y744230D01*
X995965Y743851D01*
Y743657D01*
X995923Y743339D01*
X995906Y743254D01*
Y743211D01*
X995802Y742417D01*
X995906Y741623D01*
Y741580D01*
X995923Y741495D01*
X995965Y741177D01*
Y740983D01*
X996040Y740604D01*
X996199Y739398D01*
X997364Y736585D01*
X998104Y735621D01*
X998319Y735299D01*
X998457Y735162D01*
X998652Y734908D01*
X998700Y734836D01*
X998731Y734805D01*
X999218Y734170D01*
X999853Y733683D01*
X999884Y733652D01*
X999956Y733603D01*
X1000210Y733408D01*
X1000347Y733271D01*
X1000669Y733056D01*
X1001634Y732316D01*
X1004446Y731151D01*
X1005652Y730992D01*
X1006031Y730917D01*
X1006225D01*
X1006543Y730875D01*
X1006628Y730858D01*
X1006671D01*
X1007465Y730754D01*
X1008259Y730858D01*
X1008302D01*
X1008387Y730875D01*
X1008705Y730917D01*
X1008899D01*
X1009278Y730992D01*
X1010484Y731151D01*
X1013297Y732316D01*
X1014261Y733056D01*
X1014583Y733271D01*
X1014720Y733408D01*
X1014974Y733604D01*
X1015046Y733652D01*
X1015077Y733682D01*
X1015712Y734170D01*
X1016199Y734805D01*
X1016230Y734836D01*
X1016279Y734908D01*
X1016474Y735162D01*
X1016611Y735299D01*
X1016826Y735621D01*
X1017566Y736585D01*
X1018731Y739398D01*
X1018890Y740604D01*
X1018965Y740983D01*
Y741177D01*
X1019007Y741495D01*
X1019024Y741580D01*
Y741623D01*
X1019128Y742417D01*
X1019024Y743211D01*
Y743254D01*
X1019007Y743339D01*
X1018965Y743657D01*
Y743851D01*
X1018890Y744230D01*
X1018731Y745436D01*
X1017566Y748249D01*
X1016825Y749213D01*
X1016611Y749535D01*
X1016474Y749672D01*
X1016278Y749926D01*
X1016230Y749998D01*
X1016200Y750029D01*
X1015712Y750664D01*
X1015077Y751152D01*
X1015046Y751182D01*
X1014974Y751230D01*
X1014720Y751426D01*
X1014583Y751563D01*
X1014261Y751777D01*
X1013297Y752518D01*
X1010484Y753683D01*
X1009278Y753842D01*
X1008899Y753917D01*
X1008705D01*
X1008387Y753959D01*
X1008302Y753976D01*
X1008259D01*
X1007465Y754080D01*
D02*
G37*
G36*
X127465D02*
X126671Y753976D01*
X126628D01*
X126543Y753959D01*
X126225Y753917D01*
X126031D01*
X125652Y753841D01*
X124446Y753683D01*
X121634Y752518D01*
X120669Y751777D01*
X120347Y751563D01*
X120210Y751426D01*
X119956Y751230D01*
X119884Y751182D01*
X119853Y751152D01*
X119218Y750664D01*
X118731Y750029D01*
X118700Y749998D01*
X118652Y749926D01*
X118456Y749672D01*
X118319Y749535D01*
X118104Y749213D01*
X117364Y748249D01*
X116199Y745436D01*
X116040Y744230D01*
X115965Y743851D01*
Y743657D01*
X115923Y743339D01*
X115906Y743254D01*
Y743211D01*
X115802Y742417D01*
X115906Y741623D01*
Y741580D01*
X115923Y741495D01*
X115965Y741177D01*
Y740983D01*
X116040Y740604D01*
X116199Y739398D01*
X117364Y736585D01*
X118104Y735621D01*
X118319Y735299D01*
X118457Y735162D01*
X118652Y734908D01*
X118700Y734836D01*
X118731Y734805D01*
X119218Y734170D01*
X119853Y733683D01*
X119884Y733652D01*
X119956Y733603D01*
X120210Y733408D01*
X120347Y733271D01*
X120669Y733056D01*
X121634Y732316D01*
X124446Y731151D01*
X125652Y730992D01*
X126031Y730917D01*
X126225D01*
X126543Y730875D01*
X126628Y730858D01*
X126671D01*
X127465Y730754D01*
X128259Y730858D01*
X128302D01*
X128387Y730875D01*
X128705Y730917D01*
X128899D01*
X129278Y730992D01*
X130484Y731151D01*
X133297Y732316D01*
X134261Y733056D01*
X134583Y733271D01*
X134720Y733408D01*
X134974Y733604D01*
X135046Y733652D01*
X135077Y733682D01*
X135712Y734170D01*
X136200Y734805D01*
X136230Y734836D01*
X136279Y734908D01*
X136474Y735162D01*
X136611Y735299D01*
X136826Y735621D01*
X137566Y736585D01*
X138731Y739398D01*
X138890Y740604D01*
X138965Y740983D01*
Y741177D01*
X139007Y741495D01*
X139024Y741580D01*
Y741623D01*
X139128Y742417D01*
X139024Y743211D01*
Y743254D01*
X139007Y743339D01*
X138965Y743657D01*
Y743851D01*
X138890Y744230D01*
X138731Y745436D01*
X137566Y748249D01*
X136826Y749213D01*
X136611Y749535D01*
X136474Y749672D01*
X136278Y749926D01*
X136230Y749998D01*
X136200Y750029D01*
X135712Y750664D01*
X135077Y751152D01*
X135046Y751182D01*
X134974Y751230D01*
X134720Y751426D01*
X134583Y751563D01*
X134262Y751777D01*
X133297Y752518D01*
X130484Y753683D01*
X129278Y753842D01*
X128899Y753917D01*
X128705D01*
X128387Y753959D01*
X128302Y753976D01*
X128259D01*
X127465Y754080D01*
D02*
G37*
G36*
X429559Y757667D02*
X427371D01*
X425350Y756830D01*
X423802Y755283D01*
X422965Y753261D01*
Y751073D01*
X423802Y749052D01*
X425350Y747504D01*
X425638Y747385D01*
X439126Y728818D01*
X439954Y726817D01*
X441502Y725270D01*
X443523Y724433D01*
X445711D01*
X447733Y725270D01*
X449280Y726817D01*
X450117Y728839D01*
Y731027D01*
X449280Y733048D01*
X447733Y734595D01*
X447444Y734715D01*
X433957Y753281D01*
X433128Y755283D01*
X431581Y756830D01*
X429559Y757667D01*
D02*
G37*
G36*
X408309D02*
X406121D01*
X404100Y756830D01*
X402552Y755283D01*
X401715Y753261D01*
Y751073D01*
X402552Y749052D01*
X402665Y748939D01*
X402752Y747564D01*
Y732371D01*
X402733Y731614D01*
X401965Y729761D01*
Y727573D01*
X402802Y725552D01*
X404350Y724004D01*
X406371Y723167D01*
X408559D01*
X410581Y724004D01*
X412128Y725552D01*
X412965Y727573D01*
Y729761D01*
X412128Y731783D01*
X412015Y731895D01*
X411928Y733270D01*
Y748463D01*
X411948Y749220D01*
X412715Y751073D01*
Y753261D01*
X411878Y755283D01*
X410331Y756830D01*
X408309Y757667D01*
D02*
G37*
G36*
X827309Y719917D02*
X825121D01*
X823100Y719080D01*
X822540Y718520D01*
X822407Y718489D01*
X822216Y718457D01*
X821047Y718370D01*
X797654D01*
X797407Y718376D01*
X796590Y718446D01*
X796342Y718483D01*
X796152Y718522D01*
X796133Y718527D01*
X795831Y718830D01*
X793809Y719667D01*
X791621D01*
X789600Y718830D01*
X788052Y717282D01*
X787215Y715261D01*
Y713073D01*
X788052Y711051D01*
X789600Y709504D01*
X791621Y708667D01*
X793809D01*
X795831Y709504D01*
X796390Y710064D01*
X796524Y710095D01*
X796715Y710127D01*
X797883Y710214D01*
X821277D01*
X821523Y710208D01*
X822340Y710138D01*
X822588Y710101D01*
X822778Y710062D01*
X822797Y710057D01*
X823100Y709754D01*
X825121Y708917D01*
X827309D01*
X829331Y709754D01*
X830878Y711301D01*
X831715Y713323D01*
Y715511D01*
X830878Y717532D01*
X829331Y719080D01*
X827309Y719917D01*
D02*
G37*
G36*
X353965Y700789D02*
X351526Y700304D01*
X350439Y699578D01*
X348965Y699087D01*
X347491Y699578D01*
X346404Y700304D01*
X343965Y700789D01*
X341526Y700304D01*
X339459Y698923D01*
X338078Y696856D01*
X337593Y694417D01*
Y690917D01*
X338078Y688478D01*
X339459Y686411D01*
X341526Y685030D01*
X343965Y684545D01*
X346404Y685030D01*
X347491Y685756D01*
X348965Y686247D01*
X350439Y685756D01*
X351526Y685030D01*
X353965Y684545D01*
X356404Y685030D01*
X358471Y686411D01*
X359852Y688478D01*
X360338Y690917D01*
Y694417D01*
X359852Y696856D01*
X358471Y698923D01*
X356404Y700304D01*
X353965Y700789D01*
D02*
G37*
G36*
X178277Y699906D02*
X175908D01*
X173619Y699293D01*
X171567Y698108D01*
X169891Y696432D01*
X168706Y694380D01*
X168093Y692091D01*
Y689721D01*
X168706Y687432D01*
X169891Y685380D01*
X171567Y683704D01*
X173619Y682519D01*
X175908Y681906D01*
X178277D01*
X180567Y682519D01*
X182619Y683704D01*
X184294Y685380D01*
X185479Y687432D01*
X186093Y689721D01*
Y692091D01*
X185479Y694380D01*
X184294Y696432D01*
X182619Y698108D01*
X180567Y699293D01*
X178277Y699906D01*
D02*
G37*
G36*
X253975Y701406D02*
X251210D01*
X248540Y700691D01*
X246146Y699308D01*
X244191Y697353D01*
X242808Y694959D01*
X242093Y692288D01*
Y689524D01*
X242808Y686853D01*
X244191Y684459D01*
X246146Y682504D01*
X248540Y681122D01*
X251210Y680406D01*
X253975D01*
X256646Y681122D01*
X259040Y682504D01*
X260995Y684459D01*
X262377Y686853D01*
X263093Y689524D01*
Y692288D01*
X262377Y694959D01*
X260995Y697353D01*
X259040Y699308D01*
X256646Y700691D01*
X253975Y701406D01*
D02*
G37*
G36*
X1004215Y707167D02*
X977465D01*
X977415Y666912D01*
X1004215D01*
Y707167D01*
D02*
G37*
G36*
X343059Y637167D02*
X340871D01*
X338850Y636330D01*
X337302Y634782D01*
X336465Y632761D01*
Y630573D01*
X337302Y628551D01*
X337415Y628439D01*
X337502Y627064D01*
Y608371D01*
X337483Y607614D01*
X336715Y605761D01*
Y603573D01*
X337552Y601552D01*
X339100Y600004D01*
X341121Y599167D01*
X343309D01*
X345331Y600004D01*
X346878Y601552D01*
X347715Y603573D01*
Y605761D01*
X346878Y607783D01*
X346765Y607895D01*
X346678Y609270D01*
Y627963D01*
X346698Y628720D01*
X347465Y630573D01*
Y632761D01*
X346628Y634782D01*
X345081Y636330D01*
X343059Y637167D01*
D02*
G37*
G36*
X358059Y638417D02*
X355871D01*
X353850Y637580D01*
X352302Y636032D01*
X351465Y634011D01*
Y631823D01*
X352302Y629801D01*
X352674Y629430D01*
X352752Y628169D01*
Y624042D01*
X353101Y622286D01*
X354096Y620798D01*
X379721Y595173D01*
X381209Y594178D01*
X382965Y593829D01*
X389695D01*
X391450Y594178D01*
X392050Y594579D01*
X394045D01*
X394553Y594551D01*
X394600Y594504D01*
X396621Y593667D01*
X398809D01*
X400831Y594504D01*
X402378Y596051D01*
X403215Y598073D01*
Y600261D01*
X402378Y602282D01*
X400831Y603830D01*
X398809Y604667D01*
X396621D01*
X394661Y603855D01*
X393174Y603755D01*
X390444D01*
X388689Y603406D01*
X388089Y603005D01*
X384866D01*
X361928Y625942D01*
Y630048D01*
X361946Y630569D01*
X362465Y631823D01*
Y634011D01*
X361628Y636032D01*
X360081Y637580D01*
X358059Y638417D01*
D02*
G37*
G36*
X832559Y582667D02*
X830371D01*
X828350Y581830D01*
X826803Y580283D01*
X825965Y578261D01*
Y576073D01*
X826803Y574052D01*
X828350Y572504D01*
X830371Y571667D01*
X832559D01*
X834581Y572504D01*
X836128Y574052D01*
X836965Y576073D01*
Y578261D01*
X836128Y580283D01*
X834581Y581830D01*
X832559Y582667D01*
D02*
G37*
G36*
X840559Y566667D02*
X838371D01*
X836412Y565855D01*
X834924Y565755D01*
X783635D01*
X783127Y565784D01*
X783081Y565830D01*
X781059Y566667D01*
X778871D01*
X776850Y565830D01*
X775302Y564282D01*
X774465Y562261D01*
Y560073D01*
X775302Y558051D01*
X775303Y558051D01*
X775403Y557934D01*
X776350Y556580D01*
X774802Y555033D01*
X773965Y553011D01*
Y550823D01*
X774802Y548801D01*
X775887Y547717D01*
X775783Y545922D01*
X775570Y545421D01*
X775350Y545330D01*
X773802Y543783D01*
X772965Y541761D01*
Y539573D01*
X773802Y537551D01*
X775350Y536004D01*
X777371Y535167D01*
X779559D01*
X781519Y535979D01*
X783007Y536079D01*
X843545D01*
X844053Y536050D01*
X844100Y536004D01*
X846121Y535167D01*
X848309D01*
X850331Y536004D01*
X851878Y537551D01*
X852715Y539573D01*
Y541761D01*
X851878Y543783D01*
X850331Y545330D01*
X848309Y546167D01*
X846121D01*
X844564Y545522D01*
X843738Y545799D01*
X843604Y546052D01*
X843362Y548036D01*
X844378Y549052D01*
X845215Y551073D01*
Y553261D01*
X844378Y555283D01*
X842868Y556792D01*
X844128Y558051D01*
X844965Y560073D01*
Y562261D01*
X844128Y564282D01*
X842581Y565830D01*
X840559Y566667D01*
D02*
G37*
G36*
X343309Y571667D02*
X341121D01*
X339100Y570830D01*
X338407Y570137D01*
X337860Y569772D01*
X336755Y568118D01*
X336367Y566167D01*
X336755Y564216D01*
X337860Y562562D01*
X338407Y562197D01*
X339100Y561504D01*
X341121Y560667D01*
X343309D01*
X344280Y561069D01*
X386781D01*
X389756Y558093D01*
X388991Y556246D01*
X385161D01*
X384965Y556284D01*
X246215D01*
X246020Y556246D01*
X239485D01*
X238314Y556013D01*
X237322Y555350D01*
X236659Y554357D01*
X236426Y553187D01*
Y547897D01*
X236659Y546726D01*
X237322Y545734D01*
X237322Y545734D01*
X238552Y544504D01*
X239545Y543841D01*
X240715Y543608D01*
X240715Y543608D01*
X316419Y543608D01*
X317755Y541608D01*
X317715Y541511D01*
Y539323D01*
X318552Y537301D01*
X320100Y535754D01*
X322121Y534917D01*
X324309D01*
X326269Y535729D01*
X327757Y535829D01*
X333986D01*
X335157Y533829D01*
X334715Y532761D01*
Y530573D01*
X335552Y528551D01*
X337100Y527004D01*
X337326Y526910D01*
X353388Y504045D01*
Y503991D01*
X354225Y501969D01*
X355772Y500422D01*
X357794Y499585D01*
X359982D01*
X362003Y500422D01*
X363550Y501969D01*
X364388Y503991D01*
Y506179D01*
X363550Y508200D01*
X362003Y509747D01*
X361777Y509841D01*
X345715Y532706D01*
Y532761D01*
X345273Y533829D01*
X346445Y535829D01*
X357314D01*
X381220Y511923D01*
X382709Y510928D01*
X384465Y510579D01*
X393486D01*
X394804Y508579D01*
X394465Y507761D01*
Y505573D01*
X395303Y503551D01*
X396850Y502004D01*
X398871Y501167D01*
X401059D01*
X403019Y501979D01*
X404506Y502079D01*
X439766D01*
X441522Y502428D01*
X443011Y503423D01*
X489592Y550004D01*
X491439Y549238D01*
Y540061D01*
X491371Y539718D01*
Y535162D01*
X491439Y534818D01*
Y522585D01*
X491866Y520439D01*
X493082Y518620D01*
X538500Y473202D01*
X538959Y472895D01*
X539350Y472504D01*
X539860Y472293D01*
X540319Y471986D01*
X540861Y471878D01*
X541371Y471667D01*
X541923D01*
X542465Y471559D01*
X543007Y471667D01*
X543559D01*
X544069Y471878D01*
X544611Y471986D01*
X545070Y472293D01*
X545581Y472504D01*
X545971Y472895D01*
X546430Y473202D01*
X546504Y473311D01*
X547612Y473680D01*
X548294Y473662D01*
X549030Y473417D01*
X549803Y471552D01*
X551350Y470004D01*
X553371Y469167D01*
X555559D01*
X557581Y470004D01*
X559128Y471552D01*
X559965Y473573D01*
Y475761D01*
X559128Y477783D01*
X557581Y479330D01*
X555621Y480141D01*
X554498Y481123D01*
X547869Y487751D01*
X548339Y490110D01*
X548668Y490247D01*
X550215Y491794D01*
X551053Y493815D01*
Y493921D01*
X552563Y495431D01*
X654264D01*
X656020Y495780D01*
X656550Y496135D01*
X657515D01*
X659536Y496972D01*
X661083Y498519D01*
X661920Y500541D01*
Y502729D01*
X661083Y504750D01*
X659536Y506298D01*
X657515Y507135D01*
X655327D01*
X653305Y506298D01*
X651758Y504750D01*
X651699Y504608D01*
X644757D01*
X643992Y506455D01*
X651281Y513744D01*
X651300Y513726D01*
X653321Y512889D01*
X655509D01*
X657531Y513726D01*
X659078Y515273D01*
X659915Y517295D01*
Y519483D01*
X659465Y520569D01*
X660626Y522569D01*
X668103D01*
X669860Y520812D01*
X671514Y519707D01*
X673465Y519319D01*
X696900D01*
X697871Y518917D01*
X700059D01*
X702081Y519754D01*
X703628Y521301D01*
X704465Y523323D01*
Y525511D01*
X703628Y527532D01*
X702081Y529080D01*
X700059Y529917D01*
X697871D01*
X696900Y529515D01*
X675577D01*
X673820Y531272D01*
X672166Y532377D01*
X670215Y532765D01*
X617347D01*
X614265Y535847D01*
X613878Y536782D01*
X612331Y538330D01*
X610309Y539167D01*
X608121D01*
X606100Y538330D01*
X604552Y536782D01*
X603715Y534761D01*
Y532573D01*
X604552Y530551D01*
X606100Y529004D01*
X607106Y528588D01*
X611631Y524062D01*
X613285Y522957D01*
X615236Y522569D01*
X644300D01*
X645128Y520569D01*
X636711Y512152D01*
X636150Y512141D01*
X634847Y512526D01*
X634489Y512758D01*
X634408Y513165D01*
X634101Y513625D01*
X633890Y514135D01*
X633499Y514525D01*
X633192Y514985D01*
X632733Y515291D01*
X632342Y515682D01*
X632141Y515765D01*
X630395Y517511D01*
X628576Y518727D01*
X626430Y519153D01*
X539311D01*
X530982Y527483D01*
Y531600D01*
X530555Y533746D01*
X529953Y534646D01*
X529846Y534907D01*
X529646Y535106D01*
X529339Y535565D01*
X529148Y535756D01*
X528689Y536063D01*
X528298Y536454D01*
X527788Y536665D01*
X527329Y536972D01*
X526787Y537080D01*
X526277Y537291D01*
X525724D01*
X525183Y537399D01*
X524641Y537291D01*
X524089D01*
X523578Y537080D01*
X523037Y536972D01*
X522578Y536665D01*
X522067Y536454D01*
X521677Y536063D01*
X521218Y535756D01*
X520911Y535297D01*
X520520Y534907D01*
X520309Y534396D01*
X520002Y533937D01*
X519894Y533395D01*
X519683Y532885D01*
Y532333D01*
X519575Y531791D01*
X519683Y531249D01*
Y530697D01*
X519766Y530495D01*
Y529585D01*
X517766Y528551D01*
X517078Y529039D01*
Y543767D01*
X516729Y545522D01*
X515734Y547011D01*
X514413Y548333D01*
Y548438D01*
X513576Y550459D01*
X512028Y552007D01*
X510007Y552844D01*
X507819D01*
X505797Y552007D01*
X504655Y550864D01*
X502771Y551403D01*
X502655Y551477D01*
Y555462D01*
X502547Y556004D01*
Y556557D01*
X502336Y557067D01*
X502228Y557608D01*
X501921Y558068D01*
X501710Y558578D01*
X501319Y558969D01*
X501012Y559428D01*
X500553Y559735D01*
X500163Y560125D01*
X499652Y560336D01*
X499193Y560643D01*
X498651Y560751D01*
X498141Y560962D01*
X497589D01*
X497047Y561070D01*
X496506Y560962D01*
X496259D01*
X495870Y561185D01*
X495583Y561494D01*
X494810Y562604D01*
X494790Y562660D01*
X495365Y564048D01*
Y566236D01*
X494528Y568258D01*
X492981Y569805D01*
X490959Y570642D01*
X488771D01*
X486750Y569805D01*
X485203Y568258D01*
X484365Y566236D01*
Y564048D01*
X485177Y562089D01*
X485277Y560601D01*
Y558666D01*
X437866Y511255D01*
X417695D01*
X416376Y513255D01*
X416715Y514073D01*
Y516261D01*
X415878Y518283D01*
X414331Y519830D01*
X412309Y520667D01*
X411658D01*
X411570Y520732D01*
X410486Y522667D01*
X410965Y523823D01*
Y526011D01*
X410563Y526982D01*
Y549594D01*
X410175Y551545D01*
X409070Y553199D01*
X392497Y569772D01*
X390843Y570877D01*
X388892Y571265D01*
X344280D01*
X343309Y571667D01*
D02*
G37*
G36*
X776215Y522726D02*
X776215Y522726D01*
X774465D01*
X774465Y522726D01*
X774170Y522667D01*
X772481D01*
X772480Y522667D01*
X771310Y522434D01*
X770318Y521771D01*
X769591Y521045D01*
X768928Y520052D01*
X768695Y518882D01*
X768695Y518882D01*
Y498995D01*
X768695Y498994D01*
X768928Y497824D01*
X769591Y496832D01*
X769591Y496832D01*
X803936Y462486D01*
X804929Y461823D01*
X806099Y461590D01*
X806099Y461590D01*
X808158D01*
X808215Y461579D01*
X897478D01*
X898307Y459579D01*
X897552Y458825D01*
X896715Y456803D01*
Y454615D01*
X897527Y452655D01*
X897627Y451168D01*
Y421337D01*
X897599Y420829D01*
X897552Y420783D01*
X896715Y418761D01*
Y416573D01*
X897552Y414552D01*
X899100Y413004D01*
X901121Y412167D01*
X903309D01*
X905331Y413004D01*
X906878Y414552D01*
X907715Y416573D01*
Y418761D01*
X906903Y420721D01*
X906803Y422208D01*
Y452039D01*
X906832Y452547D01*
X906878Y452594D01*
X907715Y454615D01*
Y456803D01*
X906989Y458557D01*
X907356Y459768D01*
X907829Y460701D01*
X908800Y460844D01*
X913156Y456487D01*
Y360917D01*
X913389Y359746D01*
X914052Y358754D01*
X914052Y358754D01*
X930715Y342091D01*
Y333167D01*
X934465Y329417D01*
X945791D01*
X945922Y327417D01*
X944135Y327182D01*
X941814Y326220D01*
X939821Y324691D01*
X938292Y322698D01*
X937331Y320378D01*
X937266Y319887D01*
X947125D01*
X956984D01*
X956920Y320378D01*
X955958Y322698D01*
X954429Y324691D01*
X952436Y326220D01*
X950116Y327182D01*
X948328Y327417D01*
X948459Y329417D01*
X953965D01*
X965965Y317417D01*
X981715D01*
X986215Y321917D01*
Y325384D01*
X986791Y326246D01*
X987024Y327417D01*
X987024Y327417D01*
Y356667D01*
X987024Y356667D01*
X986791Y357837D01*
X986215Y358699D01*
Y435417D01*
X979965Y441667D01*
X964965D01*
X951965Y454667D01*
X928541D01*
X923628Y459580D01*
X923628Y459580D01*
X923628Y459580D01*
X912395Y470813D01*
X911402Y471476D01*
X910232Y471709D01*
X910232Y471709D01*
X809249D01*
X780024Y500934D01*
Y518917D01*
X779791Y520088D01*
X779128Y521080D01*
X779128Y521080D01*
X778378Y521830D01*
X777386Y522493D01*
X776215Y522726D01*
D02*
G37*
G36*
X283059Y535917D02*
X280871D01*
X278850Y535080D01*
X277302Y533532D01*
X276465Y531511D01*
Y529323D01*
X277302Y527301D01*
X278561Y526043D01*
X279209Y524579D01*
X289148Y497295D01*
X289313Y496748D01*
X289215Y496511D01*
Y494323D01*
X290053Y492301D01*
X291600Y490754D01*
X293621Y489917D01*
X295809D01*
X297831Y490754D01*
X299378Y492301D01*
X300215Y494323D01*
Y496511D01*
X299378Y498532D01*
X298119Y499791D01*
X297472Y501255D01*
X287532Y528539D01*
X287367Y529086D01*
X287465Y529323D01*
Y531511D01*
X286628Y533532D01*
X285081Y535080D01*
X283059Y535917D01*
D02*
G37*
G36*
X789736Y520209D02*
X787548D01*
X785526Y519372D01*
X783979Y517825D01*
X783142Y515803D01*
Y513615D01*
X783979Y511594D01*
X785526Y510047D01*
X786167Y509781D01*
X787438Y508510D01*
X787047Y506549D01*
X786735Y506419D01*
X785188Y504872D01*
X784351Y502851D01*
Y500663D01*
X785188Y498641D01*
X786735Y497094D01*
X788695Y496283D01*
X789818Y495301D01*
X806376Y478743D01*
X807865Y477748D01*
X809621Y477399D01*
X850345D01*
X850853Y477370D01*
X850900Y477324D01*
X852921Y476487D01*
X855109D01*
X857131Y477324D01*
X858678Y478871D01*
X859515Y480893D01*
Y483081D01*
X858678Y485103D01*
X857131Y486650D01*
X855109Y487487D01*
X852921D01*
X850962Y486675D01*
X849474Y486575D01*
X811521D01*
X802444Y495652D01*
X802913Y498012D01*
X803261Y498156D01*
X804808Y499703D01*
X805646Y501724D01*
Y503913D01*
X804808Y505934D01*
X803261Y507481D01*
X802621Y507746D01*
X793843Y516524D01*
X793304Y517825D01*
X791757Y519372D01*
X789736Y520209D01*
D02*
G37*
G36*
X636558Y468382D02*
X636558Y468382D01*
X589638D01*
X589638Y468382D01*
X588467Y468150D01*
X587475Y467487D01*
X584890Y464901D01*
X584226Y463909D01*
X583994Y462738D01*
X583994Y462738D01*
Y458801D01*
X583997Y458786D01*
X583994Y458770D01*
X584043Y454061D01*
X584162Y453492D01*
X584275Y452922D01*
X584284Y452908D01*
X584288Y452893D01*
X584616Y452412D01*
X584938Y451930D01*
X586914Y449954D01*
X587907Y449291D01*
X589077Y449058D01*
X589077Y449058D01*
X636453D01*
X636453Y449058D01*
X637623Y449291D01*
X638616Y449954D01*
X638616Y449954D01*
X640378Y451716D01*
X641041Y452708D01*
X641274Y453879D01*
X641274Y453879D01*
Y463667D01*
X641041Y464837D01*
X640378Y465830D01*
X638721Y467487D01*
X637729Y468150D01*
X636558Y468382D01*
D02*
G37*
G36*
X582559Y490917D02*
X580371D01*
X578350Y490080D01*
X576802Y488532D01*
X575965Y486511D01*
Y484323D01*
X576802Y482301D01*
X577937Y481167D01*
X576553Y479782D01*
X575715Y477761D01*
Y475573D01*
X576553Y473551D01*
X578100Y472004D01*
X580121Y471167D01*
X582309D01*
X584269Y471979D01*
X585756Y472079D01*
X639315D01*
X646626Y464768D01*
X646965Y464388D01*
Y464323D01*
X647803Y462301D01*
X649350Y460754D01*
X651371Y459917D01*
X653559D01*
X655581Y460754D01*
X657128Y462301D01*
X657965Y464323D01*
Y466417D01*
X658809D01*
X660831Y467254D01*
X662378Y468801D01*
X663215Y470823D01*
Y473011D01*
X663276Y473102D01*
X663359D01*
X665319Y473914D01*
X666806Y474014D01*
X680815D01*
X682571Y474363D01*
X684060Y475358D01*
X686554Y477852D01*
X686933Y478191D01*
X686998D01*
X689020Y479028D01*
X690567Y480575D01*
X691404Y482597D01*
Y484785D01*
X690567Y486806D01*
X689020Y488354D01*
X686998Y489191D01*
X684810D01*
X682789Y488354D01*
X681242Y486806D01*
X680430Y484847D01*
X679448Y483724D01*
X678915Y483190D01*
X665935D01*
X665427Y483218D01*
X665380Y483265D01*
X663359Y484102D01*
X661171D01*
X659149Y483265D01*
X657602Y481717D01*
X657494Y481455D01*
X655135Y480986D01*
X647459Y488661D01*
X645971Y489656D01*
X644215Y490005D01*
X585135D01*
X584627Y490033D01*
X584581Y490080D01*
X582559Y490917D01*
D02*
G37*
G36*
X170983Y470580D02*
X170189Y470476D01*
X170145D01*
X170060Y470459D01*
X169742Y470417D01*
X169549D01*
X169170Y470342D01*
X167964Y470183D01*
X165151Y469018D01*
X164186Y468278D01*
X163865Y468063D01*
X163728Y467926D01*
X163473Y467730D01*
X163401Y467682D01*
X163371Y467651D01*
X162736Y467164D01*
X162248Y466529D01*
X162217Y466498D01*
X162169Y466426D01*
X161974Y466172D01*
X161837Y466035D01*
X161622Y465713D01*
X160882Y464749D01*
X159717Y461936D01*
X159558Y460730D01*
X159483Y460351D01*
Y460157D01*
X159441Y459839D01*
X159424Y459754D01*
Y459711D01*
X159319Y458917D01*
X159424Y458123D01*
Y458080D01*
X159441Y457995D01*
X159483Y457677D01*
Y457483D01*
X159558Y457104D01*
X159717Y455898D01*
X160882Y453085D01*
X161622Y452121D01*
X161837Y451799D01*
X161974Y451662D01*
X162169Y451408D01*
X162217Y451336D01*
X162248Y451305D01*
X162736Y450670D01*
X163370Y450183D01*
X163401Y450152D01*
X163474Y450103D01*
X163728Y449908D01*
X163865Y449771D01*
X164187Y449556D01*
X165151Y448816D01*
X167964Y447651D01*
X169170Y447492D01*
X169549Y447417D01*
X169742D01*
X170060Y447375D01*
X170145Y447358D01*
X170189D01*
X170983Y447254D01*
X171776Y447358D01*
X171820D01*
X171905Y447375D01*
X172223Y447417D01*
X172416D01*
X172796Y447492D01*
X174001Y447651D01*
X176814Y448816D01*
X177779Y449556D01*
X178100Y449771D01*
X178237Y449908D01*
X178492Y450103D01*
X178564Y450152D01*
X178595Y450182D01*
X179230Y450670D01*
X179717Y451305D01*
X179748Y451336D01*
X179796Y451408D01*
X179991Y451662D01*
X180128Y451799D01*
X180343Y452121D01*
X181083Y453085D01*
X182248Y455898D01*
X182407Y457104D01*
X182483Y457483D01*
Y457677D01*
X182525Y457995D01*
X182541Y458080D01*
Y458123D01*
X182646Y458917D01*
X182541Y459711D01*
Y459754D01*
X182525Y459839D01*
X182483Y460157D01*
Y460351D01*
X182407Y460730D01*
X182248Y461936D01*
X181083Y464749D01*
X180343Y465713D01*
X180128Y466035D01*
X179991Y466172D01*
X179796Y466426D01*
X179748Y466498D01*
X179717Y466529D01*
X179230Y467164D01*
X178595Y467651D01*
X178564Y467682D01*
X178492Y467730D01*
X178237Y467926D01*
X178100Y468063D01*
X177779Y468277D01*
X176814Y469018D01*
X174001Y470183D01*
X172796Y470342D01*
X172417Y470417D01*
X172223D01*
X171905Y470459D01*
X171820Y470476D01*
X171776D01*
X170983Y470580D01*
D02*
G37*
G36*
X888761Y457286D02*
X886573D01*
X884552Y456449D01*
X883005Y454902D01*
X882167Y452880D01*
Y450692D01*
X882593Y449664D01*
Y423674D01*
X882215Y422761D01*
Y420573D01*
X883053Y418551D01*
X884600Y417004D01*
X886621Y416167D01*
X888809D01*
X890831Y417004D01*
X892378Y418551D01*
X893215Y420573D01*
Y422761D01*
X892789Y423789D01*
Y449779D01*
X893167Y450692D01*
Y452880D01*
X892330Y454902D01*
X890783Y456449D01*
X888761Y457286D01*
D02*
G37*
G36*
X487465Y488025D02*
X486923Y487917D01*
X486371D01*
X485861Y487706D01*
X485319Y487598D01*
X484860Y487291D01*
X484350Y487080D01*
X483959Y486689D01*
X483500Y486382D01*
X483193Y485923D01*
X482803Y485532D01*
X482591Y485022D01*
X482284Y484563D01*
X482177Y484021D01*
X481965Y483511D01*
Y482959D01*
X481857Y482417D01*
Y436740D01*
X470674Y425556D01*
X469396D01*
X467250Y425129D01*
X466350Y424527D01*
X466090Y424420D01*
X465890Y424220D01*
X465431Y423914D01*
X465240Y423722D01*
X464933Y423263D01*
X464543Y422873D01*
X464331Y422362D01*
X464024Y421903D01*
X463917Y421361D01*
X463705Y420851D01*
Y420299D01*
X463597Y419757D01*
X463705Y419215D01*
Y418663D01*
X463917Y418153D01*
X464024Y417611D01*
X464331Y417152D01*
X464543Y416642D01*
X464933Y416251D01*
X465240Y415792D01*
X465699Y415485D01*
X466090Y415094D01*
X466600Y414883D01*
X467059Y414576D01*
X467601Y414468D01*
X468111Y414257D01*
X468663D01*
X469205Y414149D01*
X469747Y414257D01*
X470299D01*
X470501Y414341D01*
X472996D01*
X475142Y414767D01*
X476962Y415983D01*
X491430Y430452D01*
X492646Y432271D01*
X493073Y434417D01*
Y482417D01*
X492965Y482959D01*
Y483511D01*
X492754Y484021D01*
X492646Y484563D01*
X492339Y485022D01*
X492128Y485532D01*
X491737Y485923D01*
X491430Y486382D01*
X490971Y486689D01*
X490581Y487080D01*
X490070Y487291D01*
X489611Y487598D01*
X489069Y487706D01*
X488559Y487917D01*
X488007D01*
X487465Y488025D01*
D02*
G37*
G36*
X823864Y397077D02*
X823853Y397075D01*
X823842Y397077D01*
X805664Y396946D01*
X805089Y396828D01*
X804515Y396713D01*
X804506Y396707D01*
X804495Y396705D01*
X804009Y396375D01*
X803523Y396050D01*
X801028Y393555D01*
X801027Y393555D01*
X800364Y392563D01*
X800132Y391392D01*
X800132Y391392D01*
X800132Y379442D01*
X800131Y379442D01*
X800364Y378271D01*
X801027Y377279D01*
X802802Y375504D01*
X802802Y375504D01*
X803795Y374841D01*
X804965Y374608D01*
X804965Y374608D01*
X820698D01*
X834906Y360400D01*
Y333139D01*
X834906Y333139D01*
X835139Y331968D01*
X835802Y330976D01*
X835802Y330976D01*
X839274Y327504D01*
X840266Y326841D01*
X841437Y326608D01*
X841437Y326608D01*
X850465D01*
X851636Y326841D01*
X852628Y327504D01*
X855624Y330500D01*
X855624Y330500D01*
X856287Y331492D01*
X856520Y332663D01*
X856520Y332663D01*
X856520Y364421D01*
X856287Y365592D01*
X855624Y366584D01*
X855624Y366584D01*
X826027Y396181D01*
X826017Y396187D01*
X826011Y396197D01*
X825522Y396519D01*
X825034Y396844D01*
X825023Y396847D01*
X825014Y396853D01*
X824441Y396962D01*
X823864Y397077D01*
D02*
G37*
G36*
X487809Y390417D02*
X485621D01*
X484650Y390015D01*
X380780D01*
X379809Y390417D01*
X377621D01*
X375600Y389580D01*
X374053Y388032D01*
X373215Y386011D01*
Y383823D01*
X374053Y381801D01*
X375600Y380254D01*
X377621Y379417D01*
X379809D01*
X380780Y379819D01*
X484650D01*
X485621Y379417D01*
X487809D01*
X489831Y380254D01*
X491378Y381801D01*
X492215Y383823D01*
Y386011D01*
X491378Y388032D01*
X489831Y389580D01*
X487809Y390417D01*
D02*
G37*
G36*
X155089Y426033D02*
X128289D01*
Y385779D01*
X155039D01*
X155089Y426033D01*
D02*
G37*
G36*
X410059Y356712D02*
X407871D01*
X406900Y356310D01*
X360670D01*
X359809Y356667D01*
X357621D01*
X355600Y355830D01*
X354053Y354282D01*
X353215Y352261D01*
Y350073D01*
X354053Y348051D01*
X355600Y346504D01*
X357621Y345667D01*
X359809D01*
X360889Y346114D01*
X406900D01*
X407871Y345712D01*
X410059D01*
X412081Y346550D01*
X413628Y348097D01*
X414465Y350118D01*
Y352306D01*
X413628Y354328D01*
X412081Y355875D01*
X410059Y356712D01*
D02*
G37*
G36*
X588301Y415408D02*
X586113D01*
X584091Y414571D01*
X582544Y413024D01*
X581707Y411002D01*
Y408814D01*
X582544Y406793D01*
X584091Y405246D01*
X586051Y404434D01*
X587174Y403453D01*
X618928Y371698D01*
Y338866D01*
X619277Y337110D01*
X620272Y335621D01*
X630626Y325268D01*
X630965Y324888D01*
Y324823D01*
X631802Y322802D01*
X633350Y321254D01*
X635371Y320417D01*
X637559D01*
X639581Y321254D01*
X641128Y322802D01*
X641965Y324823D01*
Y327011D01*
X641128Y329033D01*
X639581Y330580D01*
X637621Y331391D01*
X636498Y332373D01*
X628104Y340766D01*
Y373599D01*
X627755Y375354D01*
X626761Y376843D01*
X593046Y410558D01*
X592706Y410937D01*
Y411002D01*
X591869Y413024D01*
X590322Y414571D01*
X588301Y415408D01*
D02*
G37*
G36*
X586809Y357417D02*
X584621D01*
X582600Y356580D01*
X581053Y355033D01*
X580215Y353011D01*
Y350823D01*
X581053Y348801D01*
X581127Y348727D01*
Y321224D01*
X581053Y321150D01*
X580215Y319128D01*
Y316940D01*
X581053Y314919D01*
X582600Y313372D01*
X584621Y312534D01*
X586809D01*
X588831Y313372D01*
X590378Y314919D01*
X591215Y316940D01*
Y319128D01*
X590378Y321150D01*
X590303Y321224D01*
Y348727D01*
X590378Y348801D01*
X591215Y350823D01*
Y353011D01*
X590378Y355033D01*
X588831Y356580D01*
X586809Y357417D01*
D02*
G37*
G36*
X956984Y315887D02*
X949125D01*
Y308462D01*
X950116Y308593D01*
X952436Y309554D01*
X954429Y311083D01*
X955958Y313076D01*
X956920Y315397D01*
X956984Y315887D01*
D02*
G37*
G36*
X945125D02*
X937266D01*
X937331Y315397D01*
X938292Y313076D01*
X939821Y311083D01*
X941814Y309554D01*
X944135Y308593D01*
X945125Y308462D01*
Y315887D01*
D02*
G37*
G36*
X974125Y314812D02*
Y307387D01*
X981984D01*
X981919Y307878D01*
X980958Y310198D01*
X979429Y312191D01*
X977436Y313720D01*
X975116Y314682D01*
X974125Y314812D01*
D02*
G37*
G36*
X970125Y314812D02*
X969135Y314682D01*
X966814Y313720D01*
X964821Y312191D01*
X963292Y310198D01*
X962331Y307878D01*
X962266Y307387D01*
X970125D01*
Y314812D01*
D02*
G37*
G36*
X332045Y505816D02*
X328419Y505459D01*
X324931Y504401D01*
X321717Y502684D01*
X318900Y500372D01*
X316588Y497555D01*
X314871Y494341D01*
X313813Y490854D01*
X313456Y487227D01*
X313477D01*
Y320537D01*
X313456D01*
X313813Y316910D01*
X314871Y313423D01*
X316588Y310209D01*
X318900Y307392D01*
X321717Y305080D01*
X324931Y303363D01*
X328419Y302305D01*
X332045Y301947D01*
X335672Y302305D01*
X339159Y303363D01*
X342373Y305080D01*
X345190Y307392D01*
X347502Y310209D01*
X349220Y313423D01*
X350277Y316910D01*
X350635Y320537D01*
X350614D01*
Y487227D01*
X350635D01*
X350277Y490854D01*
X349220Y494341D01*
X347502Y497555D01*
X345190Y500372D01*
X342373Y502684D01*
X339159Y504401D01*
X335672Y505459D01*
X332045Y505816D01*
D02*
G37*
G36*
X970125Y303387D02*
X962266D01*
X962331Y302897D01*
X963292Y300576D01*
X964821Y298583D01*
X966814Y297054D01*
X969135Y296093D01*
X970125Y295962D01*
Y303387D01*
D02*
G37*
G36*
X981984D02*
X974125D01*
Y295962D01*
X975116Y296093D01*
X977436Y297054D01*
X979429Y298583D01*
X980958Y300576D01*
X981919Y302897D01*
X981984Y303387D01*
D02*
G37*
G36*
X949125Y302312D02*
Y294887D01*
X956984D01*
X956919Y295378D01*
X955958Y297698D01*
X954429Y299691D01*
X952436Y301220D01*
X950115Y302181D01*
X949125Y302312D01*
D02*
G37*
G36*
X945125Y302312D02*
X944135Y302181D01*
X941814Y301220D01*
X939821Y299691D01*
X938292Y297698D01*
X937330Y295378D01*
X937266Y294887D01*
X945125D01*
Y302312D01*
D02*
G37*
G36*
X145965Y371417D02*
X116715D01*
X116465Y239417D01*
X125934D01*
X126332Y237417D01*
X124835Y236797D01*
X122425Y234947D01*
X120575Y232537D01*
X119412Y229729D01*
X119279Y228717D01*
X146031D01*
X145898Y229729D01*
X144735Y232537D01*
X142886Y234947D01*
X140475Y236797D01*
X138979Y237417D01*
X139376Y239417D01*
X145715D01*
X145965Y239667D01*
Y248064D01*
X146346Y248984D01*
X146759Y252117D01*
X146346Y255250D01*
X145965Y256170D01*
Y273464D01*
X146346Y274384D01*
X146759Y277517D01*
X146346Y280650D01*
X145965Y281570D01*
Y298864D01*
X146346Y299784D01*
X146759Y302917D01*
X146346Y306050D01*
X145965Y306970D01*
Y324264D01*
X146346Y325184D01*
X146759Y328317D01*
X146346Y331450D01*
X145965Y332370D01*
Y346919D01*
X148275Y347126D01*
X150012Y347159D01*
X150022Y347161D01*
X207070D01*
X267069Y287161D01*
X269054Y285835D01*
X271395Y285369D01*
X432375D01*
X434716Y285835D01*
X436701Y287161D01*
X438027Y289146D01*
X438493Y291487D01*
X438027Y293828D01*
X436701Y295813D01*
X434716Y297139D01*
X432375Y297605D01*
X273929D01*
X215058Y356476D01*
X214843Y356995D01*
X213801Y358353D01*
X212443Y359395D01*
X210862Y360050D01*
X209165Y360273D01*
X150022D01*
X150012Y360275D01*
X148235Y360309D01*
X146737Y360403D01*
X145965Y360495D01*
Y371417D01*
D02*
G37*
G36*
X956984Y290887D02*
X949125D01*
Y283462D01*
X950115Y283593D01*
X952436Y284554D01*
X954429Y286083D01*
X955958Y288076D01*
X956919Y290397D01*
X956984Y290887D01*
D02*
G37*
G36*
X945125D02*
X937266D01*
X937330Y290397D01*
X938292Y288076D01*
X939821Y286083D01*
X941814Y284554D01*
X944135Y283593D01*
X945125Y283462D01*
Y290887D01*
D02*
G37*
G36*
X974042Y289666D02*
Y282241D01*
X981901D01*
X981836Y282732D01*
X980875Y285053D01*
X979345Y287045D01*
X977353Y288575D01*
X975032Y289536D01*
X974042Y289666D01*
D02*
G37*
G36*
X970042Y289666D02*
X969051Y289536D01*
X966730Y288575D01*
X964737Y287045D01*
X963208Y285053D01*
X962247Y282732D01*
X962182Y282241D01*
X970042D01*
Y289666D01*
D02*
G37*
G36*
X972042Y280241D02*
D01*
D01*
D01*
D02*
G37*
G36*
X981901Y278241D02*
X974042D01*
Y270817D01*
X975032Y270947D01*
X977353Y271908D01*
X979345Y273437D01*
X980875Y275430D01*
X981836Y277751D01*
X981901Y278241D01*
D02*
G37*
G36*
X970042D02*
X962182D01*
X962247Y277751D01*
X963208Y275430D01*
X964737Y273437D01*
X966730Y271908D01*
X969051Y270947D01*
X970042Y270816D01*
Y278241D01*
D02*
G37*
G36*
X377765Y276775D02*
X352965D01*
X352423Y276667D01*
X351121D01*
X349100Y275830D01*
X347552Y274282D01*
X346715Y272261D01*
Y270073D01*
X347552Y268051D01*
X349100Y266504D01*
X351121Y265667D01*
X352423D01*
X352965Y265559D01*
X377765D01*
X378307Y265667D01*
X378859D01*
X379369Y265878D01*
X379911Y265986D01*
X380370Y266293D01*
X380881Y266504D01*
X381271Y266895D01*
X381730Y267202D01*
X382037Y267661D01*
X382428Y268051D01*
X382639Y268562D01*
X382946Y269021D01*
X383054Y269563D01*
X383265Y270073D01*
Y270625D01*
X383373Y271167D01*
X383265Y271709D01*
Y272261D01*
X383054Y272771D01*
X382946Y273313D01*
X382639Y273772D01*
X382428Y274282D01*
X382037Y274673D01*
X381730Y275132D01*
X381271Y275439D01*
X380881Y275830D01*
X380370Y276041D01*
X379911Y276348D01*
X379369Y276456D01*
X378859Y276667D01*
X378307D01*
X377765Y276775D01*
D02*
G37*
G36*
X224965Y312525D02*
X224423Y312417D01*
X223871D01*
X223361Y312206D01*
X222819Y312098D01*
X222360Y311791D01*
X221850Y311580D01*
X221459Y311189D01*
X221000Y310882D01*
X220693Y310423D01*
X220303Y310033D01*
X220091Y309522D01*
X219784Y309063D01*
X219676Y308521D01*
X219465Y308011D01*
Y307459D01*
X219357Y306917D01*
Y251667D01*
X219465Y251125D01*
Y250573D01*
X219676Y250063D01*
X219784Y249521D01*
X220091Y249062D01*
X220303Y248552D01*
X220693Y248161D01*
X221000Y247702D01*
X221459Y247395D01*
X221850Y247004D01*
X222360Y246793D01*
X222819Y246486D01*
X223361Y246378D01*
X223871Y246167D01*
X224423D01*
X224965Y246059D01*
X225507Y246167D01*
X226059D01*
X226569Y246378D01*
X227111Y246486D01*
X227570Y246793D01*
X228081Y247004D01*
X228471Y247395D01*
X228930Y247702D01*
X229237Y248161D01*
X229628Y248552D01*
X229839Y249062D01*
X230146Y249521D01*
X230254Y250063D01*
X230465Y250573D01*
Y251125D01*
X230573Y251667D01*
Y306917D01*
X230465Y307459D01*
Y308011D01*
X230254Y308521D01*
X230146Y309063D01*
X229839Y309522D01*
X229628Y310033D01*
X229237Y310423D01*
X228930Y310882D01*
X228471Y311189D01*
X228081Y311580D01*
X227570Y311791D01*
X227111Y312098D01*
X226569Y312206D01*
X226059Y312417D01*
X225507D01*
X224965Y312525D01*
D02*
G37*
G36*
X865309Y291667D02*
X863121D01*
X862150Y291265D01*
X797678D01*
X795727Y290877D01*
X794073Y289772D01*
X754628Y250326D01*
X753522Y248672D01*
X753134Y246721D01*
Y151191D01*
X753522Y149240D01*
X754215Y148203D01*
Y148073D01*
X755052Y146052D01*
X756600Y144504D01*
X758621Y143667D01*
X760809D01*
X762831Y144504D01*
X764378Y146052D01*
X764999Y147552D01*
X767063Y148317D01*
X779892Y135488D01*
X780885Y134825D01*
X781677Y134667D01*
X781926Y134582D01*
X782093Y134592D01*
X782145D01*
X782336Y134554D01*
X834365D01*
X835535Y134787D01*
X836527Y135450D01*
X836528Y135450D01*
X839628Y138551D01*
X840291Y139543D01*
X840524Y140714D01*
X840524Y140714D01*
Y146917D01*
X840524Y146917D01*
X840291Y148088D01*
X839628Y149080D01*
X839628Y149080D01*
X837878Y150830D01*
X837878Y150830D01*
X836886Y151493D01*
X835715Y151726D01*
X835715Y151726D01*
X786678D01*
X775577Y162827D01*
X775715Y163999D01*
X775869Y164241D01*
X777688Y165490D01*
X777948Y165439D01*
X777948Y165439D01*
X784153D01*
X784153Y165439D01*
X785324Y165671D01*
X786316Y166334D01*
X787161Y167179D01*
X789597Y167218D01*
X790531Y166283D01*
X791524Y165620D01*
X792694Y165387D01*
X792694Y165387D01*
X796610D01*
X797780Y165620D01*
X798773Y166283D01*
X798773Y166283D01*
X803075Y170585D01*
X803738Y171577D01*
X803971Y172748D01*
X803971Y172748D01*
Y178177D01*
X803971Y178177D01*
X803738Y179347D01*
X803075Y180340D01*
X799669Y183746D01*
Y232460D01*
X809067Y241858D01*
X857465Y241858D01*
X857465Y241858D01*
X858635Y242091D01*
X859628Y242754D01*
X860878Y244004D01*
X861541Y244996D01*
X861774Y246167D01*
X861774Y246167D01*
X861774Y251167D01*
X861774Y251167D01*
X861541Y252337D01*
X861129Y252955D01*
X861565Y254312D01*
X862015Y254955D01*
X878311D01*
X879482Y255187D01*
X880474Y255851D01*
X880474Y255851D01*
X882747Y258123D01*
X883569Y258673D01*
X890629Y265732D01*
X891179Y266555D01*
X892982Y268358D01*
X905465D01*
X906636Y268591D01*
X907628Y269254D01*
X907628Y269254D01*
X911628Y273254D01*
X912291Y274246D01*
X912524Y275417D01*
X912524Y275417D01*
Y283167D01*
X912291Y284338D01*
X911628Y285330D01*
X911628Y285330D01*
X909882Y287075D01*
X908890Y287738D01*
X907719Y287971D01*
X907719Y287971D01*
X885581D01*
X885581Y287971D01*
X884410Y287738D01*
X883418Y287075D01*
X883418Y287075D01*
X878802Y282460D01*
X878139Y281467D01*
X877906Y280297D01*
X877906Y280297D01*
Y275692D01*
X872190Y269976D01*
X846754D01*
X846281Y270665D01*
X845868Y271976D01*
X846291Y272609D01*
X846524Y273780D01*
X846524Y273780D01*
X846524Y278167D01*
X846344Y279069D01*
X846586Y279747D01*
X847539Y281069D01*
X862150D01*
X863121Y280667D01*
X865309D01*
X867331Y281504D01*
X868878Y283051D01*
X869715Y285073D01*
Y287261D01*
X868878Y289282D01*
X867331Y290830D01*
X865309Y291667D01*
D02*
G37*
G36*
X203965Y283223D02*
X202268Y283000D01*
X200687Y282345D01*
X199329Y281303D01*
X198287Y279945D01*
X197632Y278364D01*
X197409Y276667D01*
Y231667D01*
X197632Y229970D01*
X198287Y228389D01*
X199329Y227031D01*
X200687Y225989D01*
X202268Y225334D01*
X203965Y225111D01*
X205662Y225334D01*
X207243Y225989D01*
X208601Y227031D01*
X209643Y228389D01*
X210298Y229970D01*
X210521Y231667D01*
Y276667D01*
X210298Y278364D01*
X209643Y279945D01*
X208601Y281303D01*
X207243Y282345D01*
X205662Y283000D01*
X203965Y283223D01*
D02*
G37*
G36*
X146031Y224717D02*
X134655D01*
Y215077D01*
X134655D01*
X137668Y215474D01*
X140475Y216637D01*
X142886Y218487D01*
X144735Y220897D01*
X145898Y223704D01*
X146031Y224717D01*
D02*
G37*
G36*
X130655D02*
X119279D01*
X119412Y223704D01*
X120575Y220897D01*
X122425Y218487D01*
X124835Y216637D01*
X127642Y215474D01*
X130655Y215077D01*
X130655D01*
Y224717D01*
D02*
G37*
G36*
X499965Y283723D02*
X498268Y283500D01*
X496687Y282845D01*
X495329Y281803D01*
X493779Y280253D01*
X492737Y278895D01*
X492082Y277314D01*
X491859Y275617D01*
Y187347D01*
X492082Y185650D01*
X492737Y184069D01*
X493779Y182711D01*
X495137Y181669D01*
X496718Y181014D01*
X498415Y180791D01*
X500112Y181014D01*
X501693Y181669D01*
X503051Y182711D01*
X504093Y184069D01*
X504748Y185650D01*
X504971Y187347D01*
Y273014D01*
X505643Y273889D01*
X506298Y275470D01*
X506521Y277167D01*
X506298Y278864D01*
X505643Y280445D01*
X504601Y281803D01*
X503243Y282845D01*
X501662Y283500D01*
X499965Y283723D01*
D02*
G37*
G36*
X620465Y218417D02*
X606715Y204667D01*
Y189667D01*
X632715Y163667D01*
X643418D01*
X657008Y177257D01*
Y181874D01*
X620465Y218417D01*
D02*
G37*
G36*
X925385Y172677D02*
X922225D01*
X919173Y171859D01*
X916437Y170279D01*
X914203Y168045D01*
X912623Y165309D01*
X911805Y162257D01*
Y159097D01*
X912623Y156045D01*
X914203Y153309D01*
X916437Y151075D01*
X919173Y149495D01*
X922225Y148677D01*
X925385D01*
X928437Y149495D01*
X931173Y151075D01*
X933408Y153309D01*
X934987Y156045D01*
X935805Y159097D01*
Y162257D01*
X934987Y165309D01*
X933408Y168045D01*
X931173Y170279D01*
X928437Y171859D01*
X925385Y172677D01*
D02*
G37*
G36*
X854385D02*
X851225D01*
X848173Y171859D01*
X845437Y170279D01*
X843203Y168045D01*
X841623Y165309D01*
X840805Y162257D01*
Y159097D01*
X841623Y156045D01*
X843203Y153309D01*
X845437Y151075D01*
X848173Y149495D01*
X851225Y148677D01*
X854385D01*
X857437Y149495D01*
X860173Y151075D01*
X862408Y153309D01*
X863987Y156045D01*
X864805Y159097D01*
Y162257D01*
X863987Y165309D01*
X862408Y168045D01*
X860173Y170279D01*
X857437Y171859D01*
X854385Y172677D01*
D02*
G37*
G36*
X934965Y124521D02*
X931833Y124108D01*
X928913Y122899D01*
X926407Y120976D01*
X924483Y118469D01*
X923274Y115550D01*
X922861Y112417D01*
X923274Y109284D01*
X924483Y106365D01*
X926407Y103858D01*
X928913Y101935D01*
X931833Y100726D01*
X934965Y100313D01*
X938098Y100726D01*
X941017Y101935D01*
X943524Y103858D01*
X945447Y106365D01*
X946656Y109284D01*
X947069Y112417D01*
X946656Y115550D01*
X945447Y118469D01*
X943524Y120976D01*
X941017Y122899D01*
X938098Y124108D01*
X934965Y124521D01*
D02*
G37*
G36*
X199965D02*
X196833Y124108D01*
X193913Y122899D01*
X191407Y120976D01*
X189483Y118469D01*
X188274Y115550D01*
X187861Y112417D01*
X188274Y109284D01*
X189483Y106365D01*
X191407Y103858D01*
X193913Y101935D01*
X196833Y100726D01*
X199965Y100313D01*
X203098Y100726D01*
X206017Y101935D01*
X208524Y103858D01*
X210447Y106365D01*
X211656Y109284D01*
X212069Y112417D01*
X211656Y115550D01*
X210447Y118469D01*
X208524Y120976D01*
X206017Y122899D01*
X203098Y124108D01*
X199965Y124521D01*
D02*
G37*
%LPD*%
G36*
X409012Y750393D02*
X408976Y750250D01*
X408944Y750042D01*
X408893Y749430D01*
X408842Y747430D01*
X408840Y746767D01*
X405840Y746579D01*
X405837Y747240D01*
X405659Y750067D01*
X405610Y750214D01*
X405557Y750296D01*
X409052Y750471D01*
X409012Y750393D01*
D02*
G37*
G36*
X408843Y733594D02*
X409022Y730767D01*
X409070Y730620D01*
X409124Y730538D01*
X405628Y730363D01*
X405668Y730441D01*
X405704Y730584D01*
X405736Y730792D01*
X405787Y731404D01*
X405838Y733404D01*
X405840Y734067D01*
X408840Y734255D01*
X408843Y733594D01*
D02*
G37*
G36*
X824520Y712580D02*
X824340Y712715D01*
X824111Y712836D01*
X823832Y712943D01*
X823503Y713036D01*
X823124Y713114D01*
X822696Y713178D01*
X821689Y713263D01*
X820483Y713292D01*
X820373Y715292D01*
X821003Y715300D01*
X822581Y715417D01*
X823004Y715488D01*
X823376Y715574D01*
X823695Y715676D01*
X823963Y715793D01*
X824180Y715927D01*
X824344Y716076D01*
X824520Y712580D01*
D02*
G37*
G36*
X794590Y715869D02*
X794819Y715748D01*
X795098Y715641D01*
X795427Y715548D01*
X795806Y715470D01*
X796234Y715406D01*
X797241Y715320D01*
X798448Y715292D01*
X798557Y713292D01*
X797927Y713284D01*
X796349Y713167D01*
X795926Y713096D01*
X795555Y713010D01*
X795235Y712908D01*
X794967Y712791D01*
X794751Y712657D01*
X794586Y712508D01*
X794411Y716004D01*
X794590Y715869D01*
D02*
G37*
G36*
X343762Y629893D02*
X343726Y629750D01*
X343694Y629542D01*
X343643Y628930D01*
X343592Y626930D01*
X343590Y626267D01*
X340590Y626079D01*
X340587Y626740D01*
X340409Y629567D01*
X340360Y629714D01*
X340307Y629796D01*
X343802Y629971D01*
X343762Y629893D01*
D02*
G37*
G36*
X343593Y609594D02*
X343772Y606767D01*
X343820Y606620D01*
X343874Y606538D01*
X340378Y606363D01*
X340418Y606441D01*
X340454Y606584D01*
X340486Y606792D01*
X340537Y607403D01*
X340588Y609404D01*
X340590Y610067D01*
X343590Y610255D01*
X343593Y609594D01*
D02*
G37*
G36*
X358940Y631348D02*
X358919Y631216D01*
X358900Y631017D01*
X358851Y629557D01*
X358840Y627763D01*
X355840Y627184D01*
X355837Y627845D01*
X355675Y630454D01*
X355624Y630663D01*
X355567Y630808D01*
X355503Y630889D01*
X358963Y631414D01*
X358940Y631348D01*
D02*
G37*
G36*
X395930Y597417D02*
X395849Y597464D01*
X395703Y597507D01*
X395493Y597545D01*
X395218Y597577D01*
X394007Y597645D01*
X392215Y597667D01*
Y600667D01*
X392877Y600670D01*
X395849Y600869D01*
X395930Y600917D01*
Y597417D01*
D02*
G37*
G36*
X837680Y559417D02*
X837598Y559464D01*
X837453Y559507D01*
X837243Y559544D01*
X836968Y559577D01*
X835757Y559645D01*
X833965Y559667D01*
Y562667D01*
X834627Y562669D01*
X837598Y562869D01*
X837680Y562917D01*
Y559417D01*
D02*
G37*
G36*
X781832Y562869D02*
X781977Y562827D01*
X782188Y562789D01*
X782462Y562757D01*
X783673Y562690D01*
X785465Y562667D01*
Y559667D01*
X784803Y559664D01*
X781832Y559464D01*
X781750Y559417D01*
Y562917D01*
X781832Y562869D01*
D02*
G37*
G36*
X838019Y550330D02*
X837941Y550370D01*
X837798Y550406D01*
X837590Y550438D01*
X836979Y550489D01*
X834978Y550540D01*
X834315Y550542D01*
X834127Y553542D01*
X834788Y553545D01*
X837615Y553723D01*
X837762Y553772D01*
X837844Y553825D01*
X838019Y550330D01*
D02*
G37*
G36*
X781239Y553714D02*
X781382Y553678D01*
X781591Y553646D01*
X782202Y553595D01*
X784202Y553544D01*
X784865Y553542D01*
X785053Y550542D01*
X784392Y550539D01*
X781565Y550360D01*
X781418Y550312D01*
X781336Y550258D01*
X781161Y553754D01*
X781239Y553714D01*
D02*
G37*
G36*
X845430Y538917D02*
X845349Y538965D01*
X845203Y539007D01*
X844993Y539044D01*
X844718Y539077D01*
X843507Y539145D01*
X841715Y539167D01*
Y542167D01*
X842377Y542169D01*
X845349Y542369D01*
X845430Y542417D01*
Y538917D01*
D02*
G37*
G36*
X780332Y542369D02*
X780478Y542327D01*
X780688Y542290D01*
X780962Y542257D01*
X782174Y542189D01*
X783965Y542167D01*
Y539167D01*
X783303Y539165D01*
X780332Y538965D01*
X780250Y538917D01*
Y542417D01*
X780332Y542369D01*
D02*
G37*
G36*
X491568Y563276D02*
X491525Y563130D01*
X491488Y562920D01*
X491455Y562645D01*
X491388Y561434D01*
X491365Y559642D01*
X488365D01*
X488363Y560304D01*
X488163Y563276D01*
X488115Y563357D01*
X491615D01*
X491568Y563276D01*
D02*
G37*
G36*
X392945Y553187D02*
X393715Y552417D01*
Y547417D01*
X392965Y546667D01*
X240715Y546667D01*
X239485Y547897D01*
Y553187D01*
X392945Y553187D01*
D02*
G37*
G36*
X325082Y542119D02*
X325228Y542077D01*
X325438Y542039D01*
X325712Y542007D01*
X326924Y541940D01*
X328715Y541917D01*
Y538917D01*
X328053Y538914D01*
X325082Y538714D01*
X325000Y538667D01*
Y542167D01*
X325082Y542119D01*
D02*
G37*
G36*
X505931Y537359D02*
X505889Y537213D01*
X505851Y537003D01*
X505819Y536728D01*
X505751Y535517D01*
X505729Y533725D01*
X502729D01*
X502726Y534387D01*
X502526Y537359D01*
X502479Y537440D01*
X505979D01*
X505931Y537359D01*
D02*
G37*
G36*
X409430Y513417D02*
X409348Y513465D01*
X409203Y513507D01*
X408993Y513545D01*
X408718Y513577D01*
X407507Y513644D01*
X405715Y513667D01*
Y516667D01*
X406377Y516670D01*
X409348Y516870D01*
X409430Y516917D01*
Y513417D01*
D02*
G37*
G36*
X401832Y508369D02*
X401978Y508327D01*
X402188Y508289D01*
X402462Y508257D01*
X403674Y508190D01*
X405465Y508167D01*
Y505167D01*
X404803Y505164D01*
X401832Y504964D01*
X401750Y504917D01*
Y508417D01*
X401832Y508369D01*
D02*
G37*
G36*
X552106Y479151D02*
X554349Y477191D01*
X554440Y477167D01*
X551965Y474692D01*
X551941Y474783D01*
X551868Y474916D01*
X551746Y475091D01*
X551575Y475308D01*
X550766Y476213D01*
X549515Y477495D01*
X551637Y479617D01*
X552106Y479151D01*
D02*
G37*
G36*
X903918Y453842D02*
X903875Y453697D01*
X903838Y453486D01*
X903805Y453212D01*
X903738Y452001D01*
X903715Y450209D01*
X900715D01*
X900713Y450871D01*
X900513Y453842D01*
X900465Y453924D01*
X903965D01*
X903918Y453842D01*
D02*
G37*
G36*
X903718Y422505D02*
X903918Y419534D01*
X903965Y419452D01*
X900465D01*
X900513Y419534D01*
X900555Y419679D01*
X900593Y419890D01*
X900625Y420164D01*
X900693Y421375D01*
X900715Y423167D01*
X903715D01*
X903718Y422505D01*
D02*
G37*
G36*
X776965Y518917D02*
Y499667D01*
X807982Y468650D01*
X910232D01*
X921465Y457417D01*
Y381452D01*
X928797Y374120D01*
X941215Y374167D01*
X952715D01*
X965215Y361667D01*
X978965D01*
X983965Y356667D01*
Y327417D01*
X979715Y323167D01*
X966465D01*
X953465Y336167D01*
X940965D01*
X916215Y360917D01*
Y457794D01*
X909360Y464649D01*
X806099D01*
X771754Y498994D01*
Y518882D01*
X772480Y519608D01*
X774407D01*
X774465Y519667D01*
X776215D01*
X776965Y518917D01*
D02*
G37*
G36*
X284204Y529246D02*
X284214Y529094D01*
X284250Y528884D01*
X284314Y528615D01*
X284665Y527454D01*
X285257Y525763D01*
X282438Y524736D01*
X282209Y525357D01*
X281004Y528080D01*
X280932Y528140D01*
X284221Y529338D01*
X284204Y529246D01*
D02*
G37*
G36*
X294471Y500477D02*
X295676Y497754D01*
X295748Y497693D01*
X292460Y496496D01*
X292477Y496588D01*
X292467Y496740D01*
X292430Y496950D01*
X292366Y497219D01*
X292015Y498380D01*
X291423Y500071D01*
X294242Y501098D01*
X294471Y500477D01*
D02*
G37*
G36*
X792374Y501641D02*
X792447Y501508D01*
X792570Y501333D01*
X792741Y501115D01*
X793549Y500211D01*
X794800Y498928D01*
X792679Y496807D01*
X792209Y497273D01*
X789967Y499233D01*
X789876Y499257D01*
X792350Y501732D01*
X792374Y501641D01*
D02*
G37*
G36*
X852230Y480237D02*
X852149Y480285D01*
X852003Y480327D01*
X851793Y480364D01*
X851518Y480397D01*
X850307Y480465D01*
X848515Y480487D01*
Y483487D01*
X849177Y483489D01*
X852149Y483689D01*
X852230Y483737D01*
Y480237D01*
D02*
G37*
G36*
X638215Y463667D02*
Y453879D01*
X636453Y452117D01*
X589077D01*
X587101Y454092D01*
X587052Y458801D01*
Y462738D01*
X589638Y465324D01*
X636558D01*
X638215Y463667D01*
D02*
G37*
G36*
X583332Y487119D02*
X583478Y487077D01*
X583688Y487039D01*
X583962Y487007D01*
X585174Y486940D01*
X586965Y486917D01*
Y483917D01*
X586303Y483914D01*
X583332Y483714D01*
X583251Y483667D01*
Y487167D01*
X583332Y487119D01*
D02*
G37*
G36*
X685879Y481191D02*
X685788Y481167D01*
X685655Y481094D01*
X685480Y480972D01*
X685263Y480801D01*
X684359Y479992D01*
X683076Y478741D01*
X680955Y480863D01*
X681421Y481332D01*
X683381Y483575D01*
X683404Y483666D01*
X685879Y481191D01*
D02*
G37*
G36*
X664132Y480304D02*
X664277Y480262D01*
X664488Y480224D01*
X664762Y480192D01*
X665973Y480124D01*
X667765Y480102D01*
Y477102D01*
X667103Y477099D01*
X664132Y476899D01*
X664050Y476852D01*
Y480352D01*
X664132Y480304D01*
D02*
G37*
G36*
X583082Y478369D02*
X583228Y478327D01*
X583438Y478289D01*
X583712Y478257D01*
X584924Y478190D01*
X586715Y478167D01*
Y475167D01*
X586053Y475164D01*
X583082Y474964D01*
X583000Y474917D01*
Y478417D01*
X583082Y478369D01*
D02*
G37*
G36*
X655356Y476401D02*
X657599Y474441D01*
X657690Y474417D01*
X655215Y471942D01*
X655191Y472033D01*
X655118Y472166D01*
X654996Y472341D01*
X654825Y472559D01*
X654016Y473463D01*
X652765Y474745D01*
X654887Y476867D01*
X655356Y476401D01*
D02*
G37*
G36*
X650106Y469901D02*
X652349Y467941D01*
X652440Y467917D01*
X649965Y465442D01*
X649941Y465533D01*
X649868Y465666D01*
X649746Y465841D01*
X649575Y466059D01*
X648766Y466963D01*
X647515Y468245D01*
X649637Y470367D01*
X650106Y469901D01*
D02*
G37*
G36*
X853461Y364421D02*
X853461Y332663D01*
X850465Y329667D01*
X841437D01*
X837965Y333139D01*
Y361667D01*
X821965Y377667D01*
X804965D01*
X803190Y379442D01*
X803190Y391392D01*
X805686Y393888D01*
X823864Y394018D01*
X853461Y364421D01*
D02*
G37*
G36*
X589730Y409792D02*
X589803Y409659D01*
X589925Y409484D01*
X590097Y409267D01*
X590905Y408363D01*
X592156Y407080D01*
X590035Y404959D01*
X589565Y405425D01*
X587323Y407385D01*
X587231Y407408D01*
X589706Y409883D01*
X589730Y409792D01*
D02*
G37*
G36*
X634106Y330401D02*
X636349Y328441D01*
X636440Y328417D01*
X633965Y325942D01*
X633941Y326033D01*
X633868Y326166D01*
X633746Y326341D01*
X633575Y326559D01*
X632766Y327463D01*
X631515Y328745D01*
X633637Y330867D01*
X634106Y330401D01*
D02*
G37*
G36*
X140342Y360033D02*
X140633Y359442D01*
X141119Y358920D01*
X141798Y358469D01*
X142672Y358086D01*
X143741Y357773D01*
X145003Y357530D01*
X146459Y357356D01*
X148110Y357252D01*
X149955Y357217D01*
Y350217D01*
X148110Y350182D01*
X145003Y349904D01*
X143741Y349661D01*
X142672Y349348D01*
X141798Y348965D01*
X141119Y348513D01*
X140633Y347992D01*
X140342Y347401D01*
X140245Y346740D01*
Y360693D01*
X140342Y360033D01*
D02*
G37*
G36*
X909465Y283167D02*
Y275417D01*
X905465Y271417D01*
X891715D01*
X878311Y258013D01*
X805311D01*
X805068Y257770D01*
X804932Y257743D01*
X803940Y257080D01*
X803940Y257080D01*
X787563Y240703D01*
X786900Y239710D01*
X786873Y239575D01*
X785715Y238417D01*
Y170059D01*
X784153Y168497D01*
X777948D01*
X776493Y169953D01*
X776467Y171633D01*
Y240919D01*
X802465Y266917D01*
X873457Y266917D01*
X880965Y274425D01*
Y280297D01*
X885581Y284913D01*
X907719D01*
X909465Y283167D01*
D02*
G37*
G36*
X858715Y251167D02*
X858715Y246167D01*
X857465Y244917D01*
X807800Y244917D01*
X796610Y233727D01*
Y182479D01*
X800912Y178177D01*
Y172748D01*
X796610Y168446D01*
X792694D01*
X789731Y171409D01*
Y172370D01*
X789726Y175534D01*
Y238540D01*
X806103Y254917D01*
X854965D01*
X858715Y251167D01*
D02*
G37*
G36*
X800850Y279782D02*
X841850Y279782D01*
X843465Y278167D01*
X843465Y273780D01*
X841602Y271917D01*
X801965Y271917D01*
X771715Y241667D01*
X771715Y162363D01*
X785411Y148667D01*
X835715D01*
X837465Y146917D01*
Y140714D01*
X834365Y137613D01*
X782336D01*
X782326Y137651D01*
X782055D01*
X763715Y155991D01*
Y243417D01*
X800465Y280167D01*
X800850Y279782D01*
D02*
G37*
D11*
X739944Y892500D02*
D03*
X991564D02*
D03*
D20*
X381852Y935684D02*
X443415D01*
X457442Y921656D01*
D21*
X503465Y755417D02*
X517767Y741115D01*
X619168Y793881D02*
X630829Y805542D01*
X844840D02*
X860215Y820917D01*
Y820917D01*
X630829Y805542D02*
X844840D01*
X843715Y342417D02*
Y362727D01*
Y336535D02*
Y342417D01*
Y335186D02*
Y336535D01*
X405465Y524917D02*
Y549594D01*
X388892Y566167D02*
X405465Y549594D01*
X341465Y566167D02*
X388892D01*
X340215Y531667D02*
X358888Y505084D01*
X359639Y351212D02*
X408260D01*
X378715Y384917D02*
X486715D01*
X378715Y696167D02*
X495215D01*
X503465Y651240D02*
Y687917D01*
X495215Y696167D02*
X503465Y687917D01*
X428465Y752167D02*
X444617Y729933D01*
X788642Y514516D02*
X800146Y503012D01*
Y502818D02*
Y503012D01*
X788642Y514516D02*
Y514709D01*
X887691Y421691D02*
X887715Y421667D01*
X887691Y421691D02*
Y451762D01*
X887667Y451786D02*
X887691Y451762D01*
X503285Y651060D02*
X503465Y651240D01*
X314465Y715417D02*
X359465D01*
X378715Y696167D01*
X673465Y524417D02*
X698965D01*
X670215Y527667D02*
X673465Y524417D01*
X615236Y527667D02*
X670215D01*
X609236Y533667D02*
X615236Y527667D01*
X609215Y533667D02*
X609236D01*
X797678Y286167D02*
X864215D01*
X758232Y246721D02*
X797678Y286167D01*
X758232Y151191D02*
Y246721D01*
Y151191D02*
X759715Y149708D01*
Y149167D02*
Y149708D01*
D22*
X271395Y291487D02*
X432375D01*
X209165Y353717D02*
X271395Y291487D01*
X246215Y550167D02*
X384965D01*
X385215Y549917D01*
X925215Y809417D02*
X955845D01*
D23*
X536989Y513546D02*
X626430D01*
X628956Y511019D02*
X629227D01*
X626430Y513546D02*
X628956Y511019D01*
X497047Y522585D02*
Y535094D01*
X496979Y535162D02*
Y539718D01*
X497047Y539786D01*
Y522585D02*
X542465Y477167D01*
X497047Y539786D02*
Y555462D01*
X496979Y535162D02*
X497047Y535094D01*
X817465Y388977D02*
X843715Y362727D01*
X472996Y419948D02*
X487465Y434417D01*
Y482417D01*
X469205Y419757D02*
X469396Y419948D01*
X472996D01*
X224965Y251667D02*
Y306917D01*
X525374Y525160D02*
X536989Y513546D01*
X525374Y525160D02*
Y531600D01*
X525183Y531791D02*
X525374Y531600D01*
X352965Y271167D02*
X377765D01*
D24*
X490748Y983284D02*
X498228Y975804D01*
X367558Y983284D02*
X490748D01*
X338208Y1012634D02*
X367558Y983284D01*
X326778Y1012634D02*
X338208D01*
X611213Y741115D02*
X619168Y749070D01*
Y793881D01*
X517767Y741115D02*
X611213D01*
X680413Y735615D02*
X687715Y742917D01*
X562913Y735615D02*
X680413D01*
X531965Y704667D02*
X562913Y735615D01*
X636068Y505019D02*
X649437Y518388D01*
X654415D01*
X533418Y505019D02*
X636068D01*
X655879Y501635D02*
X656421D01*
X654264Y500019D02*
X655879Y501635D01*
X550662Y500019D02*
X654264D01*
X512490Y525947D02*
X533418Y505019D01*
X508913Y547344D02*
X512490Y543767D01*
Y525947D02*
Y543767D01*
X504229Y524903D02*
X554465Y474667D01*
X504229Y524903D02*
Y539225D01*
X545553Y494910D02*
X550662Y500019D01*
X585715Y318034D02*
Y351917D01*
X831278Y689381D02*
X881715D01*
X778465Y540667D02*
X847215D01*
X359215Y540417D02*
X384465Y515167D01*
X323215Y540417D02*
X359215D01*
X384465Y515167D02*
X411215D01*
X816715Y681167D02*
X820920Y676962D01*
X881077D01*
X414465Y683667D02*
X492465D01*
X492715Y683917D01*
X359594Y351167D02*
X359639Y351212D01*
X358715Y351167D02*
X359594D01*
X408260Y351212D02*
X408965Y351917D01*
X929745Y367887D02*
X947125D01*
X918715Y378917D02*
X929745Y367887D01*
X918715Y378917D02*
Y457417D01*
X909965Y466167D02*
X918715Y457417D01*
X808215Y466167D02*
X909965D01*
X774465Y499917D02*
X808215Y466167D01*
X774465Y499917D02*
Y516917D01*
X473715Y601167D02*
X503715Y631167D01*
X663246D01*
X459965Y621417D02*
X481465Y642917D01*
Y675417D01*
X789851Y501757D02*
X809621Y481987D01*
X854015D01*
X281965Y530417D02*
X294715Y495417D01*
X680815Y478602D02*
X685904Y483691D01*
X662265Y478602D02*
X680815D01*
X581215Y476667D02*
X641215D01*
X652465Y465417D01*
X644215Y485417D02*
X657715Y471917D01*
X581465Y485417D02*
X644215D01*
X439766Y506667D02*
X489865Y556766D01*
X399965Y506667D02*
X439766D01*
X489865Y556766D02*
Y565142D01*
X389695Y598417D02*
X390444Y599167D01*
X397715D01*
X382965Y598417D02*
X389695D01*
X357340Y624042D02*
X382965Y598417D01*
X357340Y624042D02*
Y632542D01*
X356965Y632917D02*
X357340Y632542D01*
X591715Y461917D02*
X591864Y461768D01*
X634787D02*
X634936Y461620D01*
X591864Y461768D02*
X634787D01*
X407340Y728792D02*
Y752042D01*
X407215Y752167D02*
X407340Y752042D01*
Y728792D02*
X407465Y728667D01*
X342090Y604792D02*
X342215Y604667D01*
X342090Y604792D02*
Y631542D01*
X341965Y631667D02*
X342090Y631542D01*
X587474Y409641D02*
X623516Y373599D01*
Y338866D02*
Y373599D01*
Y338866D02*
X636465Y325917D01*
X902215Y417667D02*
Y455709D01*
X531965Y704167D02*
Y704667D01*
X663246Y631167D02*
X671527Y622886D01*
X481465Y675417D02*
X481715Y675667D01*
X779965Y561167D02*
X839465D01*
X839590Y552042D02*
X839715Y552167D01*
X779590Y552042D02*
X839590D01*
X779465Y551917D02*
X779590Y552042D01*
X880325Y261917D02*
X887385Y268977D01*
X892215Y275928D02*
Y276167D01*
X887385Y271098D02*
X892215Y275928D01*
X887385Y268977D02*
Y271098D01*
X804465Y261917D02*
X880325D01*
X781130Y238582D02*
X804465Y261917D01*
X781130Y174748D02*
Y238582D01*
D25*
X132655Y353717D02*
X209165D01*
X498415Y187347D02*
Y275617D01*
X499965Y277167D01*
X203965Y231667D02*
Y276667D01*
D55*
X625926Y764305D02*
X697827D01*
X704715Y757417D01*
X631842Y772827D02*
X704805D01*
X711465Y766167D01*
X524853Y643847D02*
X705035D01*
X524543Y643537D02*
X524853Y643847D01*
X710465Y637917D02*
Y638417D01*
X705035Y643847D02*
X710465Y638417D01*
X530488Y649409D02*
X710723D01*
X723715Y636417D01*
X779501Y144167D02*
X779965D01*
X767965Y155703D02*
X779501Y144167D01*
X539215Y683667D02*
X539340Y683792D01*
X592340D01*
X592465Y683917D01*
X677027Y630479D02*
X683965Y637417D01*
X677027Y603181D02*
Y630479D01*
X676954Y603109D02*
X677027Y603181D01*
X563109Y700478D02*
X566102Y697485D01*
X636331D01*
X564465Y725667D02*
X569820Y731022D01*
X690610D02*
X704465Y717167D01*
X569820Y731022D02*
X690610D01*
X682617Y725939D02*
X697401Y711155D01*
X577237Y725939D02*
X682617D01*
X569965Y718667D02*
X577237Y725939D01*
X650715Y691917D02*
X662072Y703274D01*
X689677D01*
X644715Y744417D02*
X657215Y751023D01*
X663965Y694417D02*
X683215D01*
X643214Y673665D02*
X663965Y694417D01*
X542963Y673665D02*
X643214D01*
X610715Y691917D02*
X650715D01*
X609147Y693485D02*
X610715Y691917D01*
X560083Y693485D02*
X609147D01*
X602147Y689485D02*
X605599Y686033D01*
X547140Y689485D02*
X602147D01*
X605599Y686033D02*
X638997D01*
X539603Y678167D02*
X622403D01*
X534871Y673707D02*
X535143D01*
X539603Y678167D01*
X599840Y720042D02*
X639340D01*
X639465Y720167D01*
X599715Y719917D02*
X599840Y720042D01*
X589880Y714343D02*
X589917Y714380D01*
X646928D01*
X646965Y714417D01*
X472715Y612917D02*
X502037Y642239D01*
X511537D01*
X559965Y718667D02*
X569965D01*
X551715Y701853D02*
X560083Y693485D01*
X551715Y701853D02*
Y711417D01*
X956405Y808857D02*
X960695Y804567D01*
X623653Y679417D02*
X624465D01*
X622403Y678167D02*
X623653Y679417D01*
X544456Y692169D02*
X547140Y689485D01*
X636331Y697485D02*
X636432Y697384D01*
X581622Y708843D02*
X627645D01*
X581423Y709041D02*
X581622Y708843D01*
X627645D02*
X627796Y708691D01*
X511537Y642239D02*
X542963Y673665D01*
X575662Y703114D02*
X575689Y703141D01*
X621545D01*
X621573Y703169D01*
X671715Y594417D02*
X705965D01*
X647715Y618417D02*
X671715Y594417D01*
X533215Y605417D02*
X546215Y618417D01*
X647715D01*
X716715Y655417D02*
X736715Y635417D01*
X722824Y662308D02*
X749215Y635917D01*
X732389Y667993D02*
X763715Y636667D01*
X549857Y667993D02*
X732389D01*
X543086Y662308D02*
X722824D01*
X537215Y655417D02*
X716715D01*
X805715Y701167D02*
X825965D01*
X792840Y714292D02*
X826090D01*
X826215Y714417D01*
X792715Y714167D02*
X792840Y714292D01*
X835403Y276917D02*
X836215D01*
X828965Y275917D02*
X834403D01*
X835403Y276917D01*
X828465Y276417D02*
X828965Y275917D01*
X767965Y241917D02*
X802965Y276917D01*
X823715D01*
X824215Y276417D01*
X828465D01*
X767965Y155703D02*
Y241917D01*
X795226Y174840D02*
Y175501D01*
X793215Y236225D02*
X798135Y241145D01*
X793215Y177512D02*
X795226Y175501D01*
X793215Y177512D02*
Y236225D01*
X798135Y241957D02*
X808295Y252117D01*
X843855D01*
X907555Y726269D02*
Y729739D01*
X904707Y725097D02*
X906384D01*
X907555Y726269D01*
Y729739D02*
X913803Y735987D01*
X954345D01*
X960794Y742435D02*
Y804567D01*
X954345Y735987D02*
X960794Y742435D01*
X960695Y804567D02*
X960794D01*
X798135Y241145D02*
Y241957D01*
D60*
X865754Y892500D02*
D03*
X469790Y970584D02*
D03*
X459630Y969314D02*
D03*
Y959154D02*
D03*
X262780Y980744D02*
D03*
Y1004874D02*
D03*
X683150Y959154D02*
D03*
X671720D02*
D03*
X660290D02*
D03*
X647590D02*
D03*
Y947724D02*
D03*
X634890Y932484D02*
D03*
X678070Y874064D02*
D03*
X323740Y896924D02*
D03*
X351680Y948994D02*
D03*
X346600Y955344D02*
D03*
X336440Y959154D02*
D03*
X325010D02*
D03*
X313580Y956614D02*
D03*
X352950Y921054D02*
D03*
X605406Y837644D02*
D03*
X593406D02*
D03*
X581407D02*
D03*
X569407D02*
D03*
X557407D02*
D03*
X545406D02*
D03*
X533406D02*
D03*
X521407D02*
D03*
X509406D02*
D03*
X497406D02*
D03*
X485406D02*
D03*
X473406D02*
D03*
X461406D02*
D03*
X449406D02*
D03*
X437406D02*
D03*
X425406D02*
D03*
X413406D02*
D03*
X401406D02*
D03*
X395406Y897644D02*
D03*
X389406Y885644D02*
D03*
X395406Y873644D02*
D03*
X389406Y837644D02*
D03*
X383406Y897644D02*
D03*
X377406Y885644D02*
D03*
X383406Y873644D02*
D03*
X377406Y861644D02*
D03*
X365406Y909644D02*
D03*
X371406Y897644D02*
D03*
X365406Y885644D02*
D03*
X371406Y873644D02*
D03*
X353406Y909644D02*
D03*
X359406Y897644D02*
D03*
X353406Y885644D02*
D03*
X341406Y909644D02*
D03*
X347406Y897644D02*
D03*
X341406Y885644D02*
D03*
X329406Y909644D02*
D03*
X335406Y897644D02*
D03*
X329406Y885644D02*
D03*
X737406Y993644D02*
D03*
Y969644D02*
D03*
X731406Y981644D02*
D03*
X725406Y969644D02*
D03*
X731406Y957644D02*
D03*
X713407Y1017644D02*
D03*
X719407Y1005644D02*
D03*
Y957644D02*
D03*
X701406Y1017644D02*
D03*
Y993644D02*
D03*
X707406Y957644D02*
D03*
X701406Y945644D02*
D03*
X689407Y1017644D02*
D03*
X695406Y1005644D02*
D03*
X689407Y993644D02*
D03*
X695406Y981644D02*
D03*
Y957644D02*
D03*
X677406Y1017644D02*
D03*
X665406Y993644D02*
D03*
X653407D02*
D03*
X659407Y981644D02*
D03*
X641406Y1017644D02*
D03*
X647406Y1005644D02*
D03*
X605406Y1017644D02*
D03*
X611406Y1005644D02*
D03*
X593406Y1017644D02*
D03*
X599406Y1005644D02*
D03*
X581407Y1017644D02*
D03*
X587406Y1005644D02*
D03*
X569407Y1017644D02*
D03*
X575406Y1005644D02*
D03*
X563406D02*
D03*
X521407Y1017644D02*
D03*
X509406D02*
D03*
X497406D02*
D03*
X503406Y1005644D02*
D03*
X485406Y1017644D02*
D03*
X491406Y1005644D02*
D03*
X485406Y993644D02*
D03*
X479406Y1005644D02*
D03*
X677406Y897644D02*
D03*
X671406Y909644D02*
D03*
X665406Y897644D02*
D03*
X671406Y885644D02*
D03*
X659407Y909644D02*
D03*
X653407Y897644D02*
D03*
X659407Y885644D02*
D03*
X647406Y933644D02*
D03*
X641406Y921644D02*
D03*
X647406Y909644D02*
D03*
X641406Y897644D02*
D03*
X647406Y885644D02*
D03*
X641406Y873644D02*
D03*
X629407Y921644D02*
D03*
X635406Y909644D02*
D03*
X629407Y897644D02*
D03*
X635406Y885644D02*
D03*
X629407Y873644D02*
D03*
X617407Y897644D02*
D03*
X623406Y885644D02*
D03*
X617407Y873644D02*
D03*
X623406Y861644D02*
D03*
X605406Y897644D02*
D03*
X611406Y885644D02*
D03*
X605406Y873644D02*
D03*
X305406Y945644D02*
D03*
X293406Y969644D02*
D03*
X299406Y957644D02*
D03*
X281406Y1017644D02*
D03*
X287406Y1005644D02*
D03*
X281406Y993644D02*
D03*
X287406Y981644D02*
D03*
X281406Y969644D02*
D03*
X287406Y957644D02*
D03*
X269406Y1017644D02*
D03*
X275406Y1005644D02*
D03*
X269406Y993644D02*
D03*
X275406Y981644D02*
D03*
X269406Y969644D02*
D03*
X275406Y957644D02*
D03*
X457670Y921429D02*
D03*
X577740Y913434D02*
D03*
X570967D02*
D03*
X564193D02*
D03*
X557420D02*
D03*
X436770Y915974D02*
D03*
X381852Y935684D02*
D03*
X526940Y1003604D02*
D03*
X596790Y905814D02*
D03*
X612030D02*
D03*
X615840Y941374D02*
D03*
X610760D02*
D03*
X557420Y919784D02*
D03*
X564193D02*
D03*
X570967D02*
D03*
X577740D02*
D03*
Y926134D02*
D03*
X570967D02*
D03*
X564193D02*
D03*
X557420D02*
D03*
X615840Y947018D02*
D03*
X610760D02*
D03*
Y952663D02*
D03*
X615840D02*
D03*
X556648Y942784D02*
D03*
Y947864D02*
D03*
X561728Y942784D02*
D03*
Y947864D02*
D03*
Y952944D02*
D03*
X687458Y984694D02*
D03*
X498228Y975804D02*
D03*
X523628Y963104D02*
D03*
Y969454D02*
D03*
Y975804D02*
D03*
X529978Y963104D02*
D03*
Y969454D02*
D03*
Y975804D02*
D03*
X635388Y941514D02*
D03*
X629038D02*
D03*
X635388Y947864D02*
D03*
X629038D02*
D03*
X635388Y954214D02*
D03*
X629038D02*
D03*
X326778Y1012634D02*
D03*
X471558Y998664D02*
D03*
X625926Y764305D02*
D03*
X631842Y772827D02*
D03*
X524543Y643537D02*
D03*
X530488Y649409D02*
D03*
X511715Y664917D02*
D03*
X516215Y672417D02*
D03*
X257589Y390667D02*
D03*
X245589D02*
D03*
X251589Y378667D02*
D03*
X233589Y390667D02*
D03*
X239589Y378667D02*
D03*
X233589Y366667D02*
D03*
X221589Y390667D02*
D03*
X227589Y378667D02*
D03*
X221589Y366667D02*
D03*
X227589Y354667D02*
D03*
X215589Y378667D02*
D03*
X209589Y366667D02*
D03*
X203589Y378667D02*
D03*
X197589Y366667D02*
D03*
X191589Y378667D02*
D03*
X179589D02*
D03*
X167589D02*
D03*
X155589D02*
D03*
X869589Y558667D02*
D03*
X857589D02*
D03*
X533590Y594667D02*
D03*
X521590D02*
D03*
X509590D02*
D03*
X515589Y582667D02*
D03*
X509590Y570667D02*
D03*
X515589Y558667D02*
D03*
X815590Y666667D02*
D03*
X797589Y678667D02*
D03*
X803589Y666667D02*
D03*
X785590Y678667D02*
D03*
X791590Y666667D02*
D03*
X773589Y726667D02*
D03*
X779589Y714667D02*
D03*
X773589Y702667D02*
D03*
X779589Y690667D02*
D03*
X509590Y786667D02*
D03*
Y762667D02*
D03*
X503589Y798667D02*
D03*
X497589Y786667D02*
D03*
X503589Y774667D02*
D03*
X491589Y798667D02*
D03*
X485589Y786667D02*
D03*
X479589Y798667D02*
D03*
X485589Y750667D02*
D03*
X479589Y762667D02*
D03*
X473590Y750667D02*
D03*
X461590Y774667D02*
D03*
X467589Y762667D02*
D03*
X215589Y546667D02*
D03*
Y522667D02*
D03*
X209589Y510667D02*
D03*
X203589Y498667D02*
D03*
X197589Y486667D02*
D03*
X203589Y474667D02*
D03*
X197589Y462667D02*
D03*
X185589Y486667D02*
D03*
X191589Y474667D02*
D03*
X173589Y486667D02*
D03*
X179589Y474667D02*
D03*
X161589Y486667D02*
D03*
Y438667D02*
D03*
X149589Y486667D02*
D03*
X155589Y474667D02*
D03*
X149589Y462667D02*
D03*
X155589Y450667D02*
D03*
X149589Y438667D02*
D03*
X137589Y486667D02*
D03*
X143589Y474667D02*
D03*
X137589Y462667D02*
D03*
X143589Y450667D02*
D03*
X137589Y438667D02*
D03*
X125589Y486667D02*
D03*
X131589Y474667D02*
D03*
X125589Y462667D02*
D03*
X131589Y450667D02*
D03*
X125589Y438667D02*
D03*
X113589Y486667D02*
D03*
X119589Y474667D02*
D03*
X113589Y462667D02*
D03*
X119589Y450667D02*
D03*
X113589Y438667D02*
D03*
X425589Y366667D02*
D03*
X413589D02*
D03*
X425589Y450667D02*
D03*
Y426667D02*
D03*
X413589Y450667D02*
D03*
X419589Y438667D02*
D03*
X413589Y426667D02*
D03*
X419589Y414667D02*
D03*
X401589Y450667D02*
D03*
X407589Y438667D02*
D03*
X401589Y426667D02*
D03*
X407589Y414667D02*
D03*
X401589Y402667D02*
D03*
X827589Y330667D02*
D03*
X821590Y318667D02*
D03*
X827589Y306667D02*
D03*
X809589Y318667D02*
D03*
X815590Y306667D02*
D03*
X803589D02*
D03*
X791590D02*
D03*
X779589D02*
D03*
X773589Y294667D02*
D03*
X767589Y306667D02*
D03*
X761590Y294667D02*
D03*
X767589Y282667D02*
D03*
X755590Y306667D02*
D03*
X749589Y294667D02*
D03*
X755590Y282667D02*
D03*
X743589Y306667D02*
D03*
X737589Y294667D02*
D03*
X743589Y282667D02*
D03*
X731590Y306667D02*
D03*
X725590Y294667D02*
D03*
X731590Y282667D02*
D03*
X725590Y270667D02*
D03*
Y246667D02*
D03*
Y222667D02*
D03*
Y198667D02*
D03*
X719589Y306667D02*
D03*
X713589Y294667D02*
D03*
X719589Y282667D02*
D03*
X713589Y270667D02*
D03*
X719589Y258667D02*
D03*
X713589Y246667D02*
D03*
X719589Y234667D02*
D03*
X713589Y222667D02*
D03*
X719589Y210667D02*
D03*
X713589Y198667D02*
D03*
X719589Y186667D02*
D03*
X707589Y306667D02*
D03*
X701590Y294667D02*
D03*
X707589Y282667D02*
D03*
X701590Y270667D02*
D03*
X707589Y258667D02*
D03*
X701590Y246667D02*
D03*
X707589Y234667D02*
D03*
X701590Y222667D02*
D03*
X707589Y210667D02*
D03*
X695590Y306667D02*
D03*
X689589Y294667D02*
D03*
X695590Y282667D02*
D03*
X689589Y270667D02*
D03*
X695590Y258667D02*
D03*
X689589Y246667D02*
D03*
X695590Y234667D02*
D03*
X689589Y222667D02*
D03*
X695590Y210667D02*
D03*
X683589Y306667D02*
D03*
X677589Y294667D02*
D03*
X683589Y282667D02*
D03*
X677589Y270667D02*
D03*
X683589Y258667D02*
D03*
X677589Y246667D02*
D03*
X683589Y234667D02*
D03*
X671590Y306667D02*
D03*
X665590Y294667D02*
D03*
X671590Y282667D02*
D03*
X665590Y270667D02*
D03*
X671590Y258667D02*
D03*
X665590Y246667D02*
D03*
X671590Y234667D02*
D03*
X659589Y306667D02*
D03*
X653589Y294667D02*
D03*
X659589Y282667D02*
D03*
X653589Y270667D02*
D03*
X659589Y258667D02*
D03*
X647589Y306667D02*
D03*
X641590Y294667D02*
D03*
X647589Y282667D02*
D03*
X641590Y270667D02*
D03*
X647589Y258667D02*
D03*
X635589Y282667D02*
D03*
X629590Y270667D02*
D03*
X623590Y282667D02*
D03*
X617589Y270667D02*
D03*
X611590Y282667D02*
D03*
X605589Y270667D02*
D03*
X599590Y282667D02*
D03*
X593590Y270667D02*
D03*
X587589Y282667D02*
D03*
X581590Y270667D02*
D03*
X569590Y294667D02*
D03*
X575589Y282667D02*
D03*
X569590Y270667D02*
D03*
X563589Y306667D02*
D03*
X557589Y294667D02*
D03*
X563589Y282667D02*
D03*
X557589Y270667D02*
D03*
X551589Y306667D02*
D03*
X545589Y294667D02*
D03*
X551589Y282667D02*
D03*
X545589Y270667D02*
D03*
X539589Y282667D02*
D03*
X533590Y270667D02*
D03*
X527589Y282667D02*
D03*
X521590Y270667D02*
D03*
X515589Y330667D02*
D03*
X509590Y318667D02*
D03*
X503589Y330667D02*
D03*
X497589Y318667D02*
D03*
X491589Y330667D02*
D03*
X485589Y318667D02*
D03*
X491589Y306667D02*
D03*
X485589Y294667D02*
D03*
Y270667D02*
D03*
X479589Y330667D02*
D03*
X473590Y318667D02*
D03*
X479589Y306667D02*
D03*
X473590Y294667D02*
D03*
X479589Y282667D02*
D03*
X473590Y270667D02*
D03*
X467589Y330667D02*
D03*
X461590Y318667D02*
D03*
X467589Y306667D02*
D03*
X461590Y294667D02*
D03*
X467589Y282667D02*
D03*
X1013589Y486667D02*
D03*
X1019589Y474667D02*
D03*
X1013589Y462667D02*
D03*
X1019589Y450667D02*
D03*
X1013589Y438667D02*
D03*
X1019589Y426667D02*
D03*
X1013589Y414667D02*
D03*
X1019589Y402667D02*
D03*
X1013589Y390667D02*
D03*
X1019589Y378667D02*
D03*
X1013589Y366667D02*
D03*
X1019589Y354667D02*
D03*
X1013589Y342667D02*
D03*
X1019589Y330667D02*
D03*
X1013589Y318667D02*
D03*
X1019589Y306667D02*
D03*
X1013589Y294667D02*
D03*
X1019589Y282667D02*
D03*
X1013589Y270667D02*
D03*
X1019589Y258667D02*
D03*
X1013589Y246667D02*
D03*
X1019589Y234667D02*
D03*
X1013589Y222667D02*
D03*
X1001590Y486667D02*
D03*
X1007589Y474667D02*
D03*
X1001590Y462667D02*
D03*
X1007589Y450667D02*
D03*
Y378667D02*
D03*
X1001590Y366667D02*
D03*
X1007589Y354667D02*
D03*
X1001590Y342667D02*
D03*
X1007589Y330667D02*
D03*
X1001590Y318667D02*
D03*
X1007589Y306667D02*
D03*
X1001590Y294667D02*
D03*
X1007589Y282667D02*
D03*
X1001590Y270667D02*
D03*
X1007589Y258667D02*
D03*
X1001590Y246667D02*
D03*
X1007589Y234667D02*
D03*
X1001590Y222667D02*
D03*
X989589Y486667D02*
D03*
X995590Y474667D02*
D03*
Y258667D02*
D03*
X989589Y246667D02*
D03*
X995590Y234667D02*
D03*
X989589Y222667D02*
D03*
X977589Y486667D02*
D03*
X983589Y474667D02*
D03*
X977589Y246667D02*
D03*
X983589Y234667D02*
D03*
X977589Y222667D02*
D03*
X965590Y486667D02*
D03*
Y246667D02*
D03*
X971590Y234667D02*
D03*
X965590Y222667D02*
D03*
X953589Y246667D02*
D03*
X959589Y234667D02*
D03*
X953589Y222667D02*
D03*
X941590Y246667D02*
D03*
X947589Y234667D02*
D03*
X929589Y246667D02*
D03*
X935590Y234667D02*
D03*
X917589Y246667D02*
D03*
X923589Y234667D02*
D03*
X905590Y246667D02*
D03*
X911590Y234667D02*
D03*
X899589D02*
D03*
X599590Y210667D02*
D03*
X593590Y198667D02*
D03*
X587589Y210667D02*
D03*
X581590Y198667D02*
D03*
X575589Y210667D02*
D03*
X569590Y198667D02*
D03*
X563589Y210667D02*
D03*
X551589D02*
D03*
X539589D02*
D03*
X521590Y198667D02*
D03*
X515589Y186667D02*
D03*
X509590Y174667D02*
D03*
X497589D02*
D03*
X491589Y162667D02*
D03*
X485589Y150667D02*
D03*
X479589Y186667D02*
D03*
X473590Y174667D02*
D03*
Y150667D02*
D03*
X467589Y186667D02*
D03*
X461590Y174667D02*
D03*
X978465Y835167D02*
D03*
X1019965Y763667D02*
D03*
X988965Y724417D02*
D03*
X971465Y656167D02*
D03*
X1019589Y846667D02*
D03*
Y798667D02*
D03*
X1013589Y786667D02*
D03*
X1019589Y774667D02*
D03*
X1013589Y714667D02*
D03*
X1019589Y702667D02*
D03*
X1013589Y690667D02*
D03*
X1019589Y678667D02*
D03*
X1013589Y666667D02*
D03*
X1007589Y846667D02*
D03*
Y798667D02*
D03*
X1001590Y786667D02*
D03*
X1007589Y774667D02*
D03*
X995590Y846667D02*
D03*
Y798667D02*
D03*
Y774667D02*
D03*
X989589Y762667D02*
D03*
X983589Y846667D02*
D03*
X959589Y126667D02*
D03*
X911590D02*
D03*
X905590Y114667D02*
D03*
X899589Y126667D02*
D03*
X893589Y114667D02*
D03*
X887589Y126667D02*
D03*
X881590Y114667D02*
D03*
X875590Y126667D02*
D03*
X869589Y114667D02*
D03*
X863589Y126667D02*
D03*
X857589Y114667D02*
D03*
X851590Y126667D02*
D03*
X845590Y114667D02*
D03*
X839589Y126667D02*
D03*
X833589Y114667D02*
D03*
X827589Y126667D02*
D03*
X821590Y114667D02*
D03*
X797589D02*
D03*
X785590D02*
D03*
X773589D02*
D03*
X767589Y126667D02*
D03*
X761590Y114667D02*
D03*
X749589Y138667D02*
D03*
X755590Y126667D02*
D03*
X749589Y114667D02*
D03*
X737589Y138667D02*
D03*
X743589Y126667D02*
D03*
X737589Y114667D02*
D03*
X725590Y138667D02*
D03*
X731590Y126667D02*
D03*
X725590Y114667D02*
D03*
X719589Y150667D02*
D03*
X713589Y138667D02*
D03*
X719589Y126667D02*
D03*
X713589Y114667D02*
D03*
X701590Y162667D02*
D03*
X707589Y150667D02*
D03*
X701590Y138667D02*
D03*
X707589Y126667D02*
D03*
X701590Y114667D02*
D03*
X695590Y150667D02*
D03*
X689589Y138667D02*
D03*
X695590Y126667D02*
D03*
X689589Y114667D02*
D03*
X683589Y150667D02*
D03*
X677589Y138667D02*
D03*
X683589Y126667D02*
D03*
X677589Y114667D02*
D03*
X671590Y126667D02*
D03*
X665590Y114667D02*
D03*
X659589Y126667D02*
D03*
X653589Y114667D02*
D03*
X527589Y150667D02*
D03*
X521590Y138667D02*
D03*
X509590D02*
D03*
X515589Y126667D02*
D03*
X509590Y114667D02*
D03*
X503589Y126667D02*
D03*
X497589Y114667D02*
D03*
X491589Y126667D02*
D03*
X485589Y114667D02*
D03*
X473590D02*
D03*
X461590D02*
D03*
X449589D02*
D03*
X437589D02*
D03*
X425589D02*
D03*
X413589D02*
D03*
X401589D02*
D03*
X389589D02*
D03*
X377589D02*
D03*
X365589D02*
D03*
X353589D02*
D03*
X341589D02*
D03*
X329589D02*
D03*
X317589D02*
D03*
X305589D02*
D03*
X293589D02*
D03*
X287589Y222667D02*
D03*
X281589Y210667D02*
D03*
X287589Y198667D02*
D03*
Y126667D02*
D03*
X281589Y114667D02*
D03*
X269589Y210667D02*
D03*
Y138667D02*
D03*
X275589Y126667D02*
D03*
X269589Y114667D02*
D03*
X257589Y210667D02*
D03*
Y162667D02*
D03*
X263589Y150667D02*
D03*
X257589Y138667D02*
D03*
X263589Y126667D02*
D03*
X257589Y114667D02*
D03*
X245589Y234667D02*
D03*
Y210667D02*
D03*
X251589Y198667D02*
D03*
X245589Y186667D02*
D03*
Y162667D02*
D03*
X251589Y150667D02*
D03*
X245589Y138667D02*
D03*
X251589Y126667D02*
D03*
X245589Y114667D02*
D03*
X233589Y234667D02*
D03*
X239589Y222667D02*
D03*
X233589Y210667D02*
D03*
X239589Y198667D02*
D03*
X233589Y186667D02*
D03*
X239589Y174667D02*
D03*
X233589Y162667D02*
D03*
X239589Y150667D02*
D03*
X233589Y138667D02*
D03*
X239589Y126667D02*
D03*
X233589Y114667D02*
D03*
X221589Y234667D02*
D03*
X227589Y222667D02*
D03*
X221589Y210667D02*
D03*
X227589Y198667D02*
D03*
X221589Y186667D02*
D03*
X227589Y174667D02*
D03*
X221589Y162667D02*
D03*
X227589Y150667D02*
D03*
X221589Y138667D02*
D03*
X227589Y126667D02*
D03*
X215589Y222667D02*
D03*
X209589Y210667D02*
D03*
X215589Y198667D02*
D03*
X209589Y186667D02*
D03*
X215589Y174667D02*
D03*
X209589Y162667D02*
D03*
X215589Y150667D02*
D03*
X209589Y138667D02*
D03*
X197589Y210667D02*
D03*
X203589Y198667D02*
D03*
Y174667D02*
D03*
X197589Y162667D02*
D03*
X203589Y150667D02*
D03*
X197589Y138667D02*
D03*
X185589Y210667D02*
D03*
Y162667D02*
D03*
X191589Y150667D02*
D03*
X185589Y138667D02*
D03*
X173589Y210667D02*
D03*
Y162667D02*
D03*
X179589Y150667D02*
D03*
X173589Y138667D02*
D03*
X161589Y234667D02*
D03*
X167589Y222667D02*
D03*
X161589Y210667D02*
D03*
X167589Y198667D02*
D03*
X299589Y774667D02*
D03*
X287589D02*
D03*
X281589Y762667D02*
D03*
Y738667D02*
D03*
X269589Y762667D02*
D03*
X275589Y750667D02*
D03*
X269589Y738667D02*
D03*
X275589Y726667D02*
D03*
X269589Y714667D02*
D03*
X263589Y750667D02*
D03*
X257589Y738667D02*
D03*
X263589Y726667D02*
D03*
X257589Y714667D02*
D03*
X263589Y702667D02*
D03*
Y678667D02*
D03*
X257589Y666667D02*
D03*
X263589Y654667D02*
D03*
X257589Y642667D02*
D03*
X263589Y630667D02*
D03*
X257589Y618667D02*
D03*
X263589Y606667D02*
D03*
X257589Y594667D02*
D03*
X251589Y750667D02*
D03*
X245589Y738667D02*
D03*
X251589Y726667D02*
D03*
X245589Y714667D02*
D03*
Y666667D02*
D03*
X251589Y654667D02*
D03*
X245589Y642667D02*
D03*
X251589Y630667D02*
D03*
X245589Y618667D02*
D03*
X251589Y606667D02*
D03*
X245589Y594667D02*
D03*
X233589Y762667D02*
D03*
X239589Y750667D02*
D03*
X233589Y738667D02*
D03*
X239589Y726667D02*
D03*
X233589Y714667D02*
D03*
X239589Y702667D02*
D03*
X233589Y690667D02*
D03*
X239589Y678667D02*
D03*
X233589Y666667D02*
D03*
X239589Y654667D02*
D03*
X233589Y642667D02*
D03*
X239589Y630667D02*
D03*
X233589Y618667D02*
D03*
X239589Y606667D02*
D03*
X233589Y594667D02*
D03*
X227589Y750667D02*
D03*
Y726667D02*
D03*
Y702667D02*
D03*
Y678667D02*
D03*
Y654667D02*
D03*
Y630667D02*
D03*
Y606667D02*
D03*
X203589Y846667D02*
D03*
X197589Y834667D02*
D03*
Y810667D02*
D03*
Y786667D02*
D03*
Y762667D02*
D03*
Y738667D02*
D03*
Y714667D02*
D03*
Y690667D02*
D03*
Y666667D02*
D03*
Y642667D02*
D03*
Y618667D02*
D03*
Y594667D02*
D03*
X191589Y846667D02*
D03*
X185589Y834667D02*
D03*
X191589Y822667D02*
D03*
X185589Y810667D02*
D03*
X191589Y798667D02*
D03*
X185589Y786667D02*
D03*
X191589Y774667D02*
D03*
X185589Y762667D02*
D03*
X191589Y750667D02*
D03*
X185589Y738667D02*
D03*
X191589Y726667D02*
D03*
X185589Y714667D02*
D03*
X191589Y702667D02*
D03*
Y678667D02*
D03*
X185589Y666667D02*
D03*
X191589Y654667D02*
D03*
X185589Y642667D02*
D03*
X191589Y630667D02*
D03*
X185589Y618667D02*
D03*
X191589Y606667D02*
D03*
X185589Y594667D02*
D03*
X179589Y846667D02*
D03*
X173589Y834667D02*
D03*
X179589Y822667D02*
D03*
X173589Y810667D02*
D03*
X179589Y798667D02*
D03*
X173589Y786667D02*
D03*
X179589Y774667D02*
D03*
X173589Y762667D02*
D03*
X179589Y750667D02*
D03*
X173589Y738667D02*
D03*
X179589Y726667D02*
D03*
X173589Y714667D02*
D03*
X179589Y702667D02*
D03*
Y678667D02*
D03*
X173589Y666667D02*
D03*
X179589Y654667D02*
D03*
X173589Y642667D02*
D03*
X179589Y630667D02*
D03*
X173589Y618667D02*
D03*
X179589Y606667D02*
D03*
X173589Y594667D02*
D03*
X167589Y846667D02*
D03*
X161589Y834667D02*
D03*
X167589Y822667D02*
D03*
X161589Y810667D02*
D03*
X167589Y798667D02*
D03*
X161589Y786667D02*
D03*
X167589Y774667D02*
D03*
X161589Y762667D02*
D03*
X167589Y750667D02*
D03*
X161589Y738667D02*
D03*
X167589Y726667D02*
D03*
X161589Y714667D02*
D03*
X167589Y702667D02*
D03*
Y678667D02*
D03*
X161589Y666667D02*
D03*
X167589Y654667D02*
D03*
X161589Y642667D02*
D03*
X167589Y630667D02*
D03*
Y606667D02*
D03*
X155589Y846667D02*
D03*
X149589Y834667D02*
D03*
X155589Y822667D02*
D03*
X149589Y810667D02*
D03*
X155589Y798667D02*
D03*
X149589Y786667D02*
D03*
X155589Y774667D02*
D03*
X149589Y762667D02*
D03*
X155589Y750667D02*
D03*
X149589Y738667D02*
D03*
X155589Y726667D02*
D03*
X149589Y714667D02*
D03*
X155589Y654667D02*
D03*
X143589Y846667D02*
D03*
Y798667D02*
D03*
X137589Y786667D02*
D03*
X143589Y774667D02*
D03*
X137589Y762667D02*
D03*
X143589Y726667D02*
D03*
X137589Y714667D02*
D03*
X131589Y846667D02*
D03*
Y798667D02*
D03*
X125589Y786667D02*
D03*
X131589Y774667D02*
D03*
X125589Y762667D02*
D03*
Y714667D02*
D03*
X119589Y846667D02*
D03*
X113589Y834667D02*
D03*
Y810667D02*
D03*
X119589Y798667D02*
D03*
X113589Y786667D02*
D03*
X119589Y774667D02*
D03*
X113589Y762667D02*
D03*
Y714667D02*
D03*
X805215Y114417D02*
D03*
X286965Y188417D02*
D03*
X329715Y231917D02*
D03*
X472965Y229417D02*
D03*
X455215Y237917D02*
D03*
X811662Y390793D02*
D03*
X817465Y384667D02*
D03*
Y390793D02*
D03*
X764465Y381417D02*
D03*
X564965Y455917D02*
D03*
X314215Y751667D02*
D03*
X376215Y722667D02*
D03*
Y715417D02*
D03*
X382465Y712417D02*
D03*
X302465Y625167D02*
D03*
X321465Y567917D02*
D03*
X573017Y576536D02*
D03*
X593965Y562417D02*
D03*
X647215Y556917D02*
D03*
X654415Y518388D02*
D03*
X937215Y712917D02*
D03*
X929715D02*
D03*
X922465Y588917D02*
D03*
X862215Y572167D02*
D03*
X629227Y511019D02*
D03*
X531435Y420417D02*
D03*
Y439667D02*
D03*
X646715Y404417D02*
D03*
X719715Y438667D02*
D03*
X667215Y447667D02*
D03*
X779965Y144167D02*
D03*
X789215Y120167D02*
D03*
X726465Y176167D02*
D03*
X811326Y208881D02*
D03*
X803190Y201051D02*
D03*
Y216667D02*
D03*
X779965Y419417D02*
D03*
X797465D02*
D03*
X831278Y689381D02*
D03*
X860215Y820917D02*
D03*
X749499Y706312D02*
D03*
Y741442D02*
D03*
Y731417D02*
D03*
Y716167D02*
D03*
X759215D02*
D03*
X734255Y741442D02*
D03*
Y706312D02*
D03*
X759215Y731417D02*
D03*
X724715D02*
D03*
Y716167D02*
D03*
X734255D02*
D03*
Y731417D02*
D03*
X737715Y220167D02*
D03*
X927465Y466417D02*
D03*
X650465Y561667D02*
D03*
X653715Y556917D02*
D03*
X811662Y384667D02*
D03*
X848965Y336535D02*
D03*
X842781D02*
D03*
X848965Y342417D02*
D03*
X842781D02*
D03*
X887465Y526917D02*
D03*
X840900Y512784D02*
D03*
Y519167D02*
D03*
X845715Y515917D02*
D03*
X492715Y683667D02*
D03*
X592465Y683917D02*
D03*
X676954Y603109D02*
D03*
X789965Y294417D02*
D03*
X358888Y505084D02*
D03*
X358715Y351167D02*
D03*
X378715Y384917D02*
D03*
X408965Y351212D02*
D03*
X224965Y306917D02*
D03*
X631147Y792444D02*
D03*
X689677Y703274D02*
D03*
X697401Y711155D02*
D03*
X687715Y742917D02*
D03*
X704715Y757417D02*
D03*
X711465Y766167D02*
D03*
X453465Y777667D02*
D03*
X410521Y654953D02*
D03*
X444617Y729933D02*
D03*
X638997Y686033D02*
D03*
X534871Y673707D02*
D03*
X644715Y744417D02*
D03*
X639465Y720167D02*
D03*
X646965Y714417D02*
D03*
X599715Y719917D02*
D03*
X385215Y549917D02*
D03*
X390465D02*
D03*
X248215Y550167D02*
D03*
X242715D02*
D03*
X487465Y482417D02*
D03*
X585715Y318034D02*
D03*
X662265Y478602D02*
D03*
X685904Y483691D02*
D03*
X789851Y501757D02*
D03*
X656421Y501635D02*
D03*
X652465Y465417D02*
D03*
X657715Y471917D02*
D03*
X525183Y531791D02*
D03*
X504229Y539225D02*
D03*
X508913Y547344D02*
D03*
X497047Y555462D02*
D03*
X489865Y565142D02*
D03*
X459965Y621417D02*
D03*
X472965Y612917D02*
D03*
X397715Y599167D02*
D03*
X473715Y601167D02*
D03*
X468965Y587167D02*
D03*
Y579167D02*
D03*
X405465Y524917D02*
D03*
X411215Y515167D02*
D03*
X342215Y566167D02*
D03*
X635215Y455917D02*
D03*
X591715D02*
D03*
Y461620D02*
D03*
X788642Y514709D02*
D03*
X800146Y502818D02*
D03*
X816715Y681167D02*
D03*
X281965Y530417D02*
D03*
X564465Y725667D02*
D03*
X559965Y718667D02*
D03*
X551715Y711417D02*
D03*
X407465Y728667D02*
D03*
X407215Y752167D02*
D03*
X428465D02*
D03*
X340215Y531667D02*
D03*
X323215Y540417D02*
D03*
X414465Y683667D02*
D03*
X356965Y632917D02*
D03*
X341965Y631667D02*
D03*
X342215Y604667D02*
D03*
X247715Y568167D02*
D03*
X288122Y559002D02*
D03*
X563109Y700478D02*
D03*
X589880Y714343D02*
D03*
X627796Y708691D02*
D03*
X581423Y709041D02*
D03*
X636465Y697417D02*
D03*
X624465Y679417D02*
D03*
X636465Y325917D02*
D03*
X189965Y367667D02*
D03*
X876215Y342917D02*
D03*
X545553Y494910D02*
D03*
X437715Y463900D02*
D03*
X430882D02*
D03*
X424049D02*
D03*
X417215D02*
D03*
X869465Y530667D02*
D03*
X634936Y461620D02*
D03*
X902215Y455709D02*
D03*
Y417667D02*
D03*
X788965Y419417D02*
D03*
X887667Y451786D02*
D03*
X887715Y421667D02*
D03*
X876465Y415167D02*
D03*
X586098Y298417D02*
D03*
X927465Y494917D02*
D03*
X621573Y703169D02*
D03*
X585715Y351917D02*
D03*
X657215Y751023D02*
D03*
X887465Y520917D02*
D03*
X925215Y809417D02*
D03*
X957965Y810417D02*
D03*
X881077Y676962D02*
D03*
X628715Y610417D02*
D03*
X642215D02*
D03*
X635215D02*
D03*
X847215Y540667D02*
D03*
X778465D02*
D03*
X705965Y594167D02*
D03*
X533215Y605417D02*
D03*
X503285Y651060D02*
D03*
X314465Y715417D02*
D03*
X609215Y533667D02*
D03*
X698965Y524417D02*
D03*
X684715Y536417D02*
D03*
X486715Y384917D02*
D03*
X763715Y637917D02*
D03*
X749215D02*
D03*
X736715D02*
D03*
X723715D02*
D03*
X710465D02*
D03*
X575662Y703114D02*
D03*
X539215Y683667D02*
D03*
X549223Y667993D02*
D03*
X543086Y662308D02*
D03*
X671527Y622886D02*
D03*
X503465Y755417D02*
D03*
X224965Y251667D02*
D03*
X294715Y495417D02*
D03*
X399965Y506667D02*
D03*
X481715Y675667D02*
D03*
X825965Y701167D02*
D03*
X826215Y714417D02*
D03*
X805715Y701167D02*
D03*
X792715Y714167D02*
D03*
X774465Y516917D02*
D03*
X687965Y794667D02*
D03*
X499965Y277167D02*
D03*
X581215Y476667D02*
D03*
X581465Y485417D02*
D03*
X779965Y561167D02*
D03*
X839465D02*
D03*
X839715Y552167D02*
D03*
X779465Y551917D02*
D03*
X904215Y725167D02*
D03*
X831465Y577167D02*
D03*
X487465Y661917D02*
D03*
X251965Y173667D02*
D03*
X259715D02*
D03*
X203965Y231667D02*
D03*
Y276667D02*
D03*
X881715Y689381D02*
D03*
X937215Y787417D02*
D03*
Y781167D02*
D03*
X931590D02*
D03*
X925965D02*
D03*
X931590Y787417D02*
D03*
X925965D02*
D03*
X352215Y271167D02*
D03*
X531965Y704167D02*
D03*
X544456Y692169D02*
D03*
X683215Y694417D02*
D03*
X530965Y547667D02*
D03*
X527465Y580167D02*
D03*
X704465Y717167D02*
D03*
X587206Y409908D02*
D03*
X554465Y474667D02*
D03*
X542465Y477167D02*
D03*
X683965Y637417D02*
D03*
X619913Y537665D02*
D03*
X537215Y655417D02*
D03*
X549030Y605348D02*
D03*
X251465Y432917D02*
D03*
X237215D02*
D03*
X310955Y569897D02*
D03*
X280965Y147917D02*
D03*
X152215Y669667D02*
D03*
X142778D02*
D03*
X123903D02*
D03*
X114465D02*
D03*
X667965Y176667D02*
D03*
X676965Y167417D02*
D03*
X437715Y317900D02*
D03*
X430882D02*
D03*
X424049D02*
D03*
X443715Y324150D02*
D03*
Y331150D02*
D03*
Y338150D02*
D03*
X417215Y317900D02*
D03*
X443715Y471667D02*
D03*
Y478667D02*
D03*
Y485667D02*
D03*
X411215Y471667D02*
D03*
Y478667D02*
D03*
Y485667D02*
D03*
X315195Y658140D02*
D03*
X855918Y248119D02*
D03*
X847808Y248069D02*
D03*
X851965Y252167D02*
D03*
X905715Y275917D02*
D03*
X892215D02*
D03*
X898965D02*
D03*
X836215Y276917D02*
D03*
X823715D02*
D03*
X829965D02*
D03*
X823109Y141261D02*
D03*
X828813Y141165D02*
D03*
X781130Y174748D02*
D03*
X759965Y275167D02*
D03*
X759715Y149167D02*
D03*
X864215Y286167D02*
D03*
X405465Y223417D02*
D03*
X396590D02*
D03*
X387715D02*
D03*
X405465Y215167D02*
D03*
X795226Y174840D02*
D03*
X358215Y127917D02*
D03*
X342215Y124167D02*
D03*
X460329Y186632D02*
D03*
X432768Y450121D02*
D03*
X469989Y359984D02*
D03*
X584215Y576667D02*
D03*
X854015Y481987D02*
D03*
X904815Y539137D02*
D03*
X959425Y687727D02*
D03*
Y678837D02*
D03*
X672405Y172107D02*
D03*
X322965Y122917D02*
D03*
X667465Y404417D02*
D03*
X803190Y208881D02*
D03*
X377765Y271167D02*
D03*
X432375Y291487D02*
D03*
X498415Y187347D02*
D03*
X133340Y669667D02*
D03*
X467317Y429908D02*
D03*
X424095Y280667D02*
D03*
X843855Y252117D02*
D03*
X737715Y192427D02*
D03*
Y206397D02*
D03*
X469205Y419757D02*
D03*
X531435Y429917D02*
D03*
X507425Y451507D02*
D03*
X568905Y538707D02*
D03*
X578443Y513546D02*
D03*
X798135Y241957D02*
D03*
D61*
X89918Y575178D02*
D03*
Y580178D02*
D03*
Y585178D02*
D03*
Y590178D02*
D03*
X89984Y550000D02*
D03*
Y555000D02*
D03*
Y560000D02*
D03*
Y565000D02*
D03*
Y570000D02*
D03*
X89926Y140183D02*
D03*
Y145183D02*
D03*
Y150183D02*
D03*
Y155183D02*
D03*
X89991Y115006D02*
D03*
Y120006D02*
D03*
Y125006D02*
D03*
Y130006D02*
D03*
Y135006D02*
D03*
X729984Y1045000D02*
D03*
X724984D02*
D03*
X719984D02*
D03*
X714984D02*
D03*
Y1030000D02*
D03*
X719984D02*
D03*
X724984D02*
D03*
X729984D02*
D03*
X416484Y1045000D02*
D03*
X421484D02*
D03*
X426484D02*
D03*
X431484D02*
D03*
X436484D02*
D03*
X396306Y1045065D02*
D03*
X401306D02*
D03*
X406306D02*
D03*
X411306D02*
D03*
X416484Y1009000D02*
D03*
X411484D02*
D03*
X406484D02*
D03*
X401484D02*
D03*
X396484D02*
D03*
X436662Y1008935D02*
D03*
X431662D02*
D03*
X426662D02*
D03*
X421662D02*
D03*
X686524Y902500D02*
D03*
Y897500D02*
D03*
Y892500D02*
D03*
Y887500D02*
D03*
Y882500D02*
D03*
X1044984D02*
D03*
Y887500D02*
D03*
Y892500D02*
D03*
Y897500D02*
D03*
Y902500D02*
D03*
X462306Y830065D02*
D03*
X457306D02*
D03*
X452306D02*
D03*
X447306D02*
D03*
X487484Y830000D02*
D03*
X482484D02*
D03*
X477484D02*
D03*
X472484D02*
D03*
X467484D02*
D03*
Y746500D02*
D03*
X472484D02*
D03*
X477484D02*
D03*
X482484D02*
D03*
X487484D02*
D03*
X447306Y746435D02*
D03*
X452306D02*
D03*
X457306D02*
D03*
X462306D02*
D03*
X1044977Y135006D02*
D03*
Y130006D02*
D03*
Y125006D02*
D03*
Y120006D02*
D03*
Y115006D02*
D03*
X1045042Y155183D02*
D03*
Y150183D02*
D03*
Y145183D02*
D03*
Y140183D02*
D03*
X1044984Y570000D02*
D03*
Y565000D02*
D03*
Y560000D02*
D03*
Y555000D02*
D03*
Y550000D02*
D03*
X1045049Y590178D02*
D03*
Y585178D02*
D03*
Y580178D02*
D03*
Y575178D02*
D03*
D62*
X543430Y971759D02*
D03*
X629830D02*
D03*
D63*
X557730Y976659D02*
D03*
X615530D02*
D03*
D64*
X629830Y1013259D02*
D03*
X543430D02*
D03*
D65*
X405176Y992709D02*
D03*
X428188D02*
D03*
X685063Y1001973D02*
D03*
X708075D02*
D03*
X1105510Y305540D02*
D03*
Y296650D02*
D03*
X1071220Y489690D02*
D03*
X1077570Y496040D02*
D03*
X1066140D02*
D03*
X900847Y1109997D02*
D03*
X738347D02*
D03*
X250843D02*
D03*
X25003Y900847D02*
D03*
Y738347D02*
D03*
Y575847D02*
D03*
X25000Y413037D02*
D03*
X24997Y249723D02*
D03*
X234153Y25003D02*
D03*
X396653D02*
D03*
X559153D02*
D03*
X721952Y25029D02*
D03*
X885272Y24997D02*
D03*
X1109994Y235405D02*
D03*
Y400704D02*
D03*
X1109997Y559909D02*
D03*
X1110040Y723899D02*
D03*
X1109997Y884141D02*
D03*
X615290Y1090400D02*
D03*
D66*
X870345Y837933D02*
D03*
X895745D02*
D03*
X265953Y838357D02*
D03*
X240553D02*
D03*
D67*
X658965Y159417D02*
D03*
X639965Y176917D02*
D03*
X622215Y196667D02*
D03*
D68*
X947125Y317887D02*
D03*
X972125Y405387D02*
D03*
Y330387D02*
D03*
Y380387D02*
D03*
Y305387D02*
D03*
X947125Y392887D02*
D03*
X972041Y280241D02*
D03*
X947125Y417887D02*
D03*
X947125Y292887D02*
D03*
X947125Y367887D02*
D03*
X972125Y355387D02*
D03*
X947125Y342887D02*
D03*
Y442887D02*
D03*
X972125Y430387D02*
D03*
D69*
X852805Y160677D02*
D03*
X923805D02*
D03*
D70*
X177093Y690906D02*
D03*
D71*
X252593D02*
D03*
D72*
X954185Y831237D02*
D03*
X934185D02*
D03*
D73*
X132655Y353717D02*
D03*
Y328317D02*
D03*
Y302917D02*
D03*
Y277517D02*
D03*
Y252117D02*
D03*
Y226717D02*
D03*
D74*
X990959Y696999D02*
D03*
Y676999D02*
D03*
X141545Y415947D02*
D03*
Y395947D02*
D03*
D75*
X343965Y692667D02*
D03*
X353965D02*
D03*
D76*
X1110590Y235405D02*
Y1047220D01*
D77*
X24740Y93450D02*
X93193Y24997D01*
X24740Y93450D02*
Y1058650D01*
X885272Y24997D02*
X1054837D01*
X93193D02*
X885272D01*
X24740Y1058650D02*
X76077Y1109987D01*
X1054837Y24997D02*
X1109994Y80154D01*
Y235405D01*
X1048360Y1109450D02*
X1110590Y1047220D01*
X630530Y1090400D02*
X649580Y1109450D01*
X615290Y1090400D02*
X630530D01*
X76077Y1109987D02*
X250937D01*
X649580Y1109450D02*
X1048360D01*
M02*
